<svg xmlns="http://www.w3.org/2000/svg" width="11.474" height="11.471" viewBox="0 0 11.474 11.471">
  <path id="패스_39" data-name="패스 39" d="M141.287,39.117c-.568-.558-1.14-1.134-1.692-1.69q-.442-.445-.886-.89a.6.6,0,0,0-.128-.092l-.028-.017a4.887,4.887,0,0,0,1.03-3.7,4.834,4.834,0,0,0-1.91-3.248,4.891,4.891,0,0,0-2.863-.931,4.811,4.811,0,1,0,.011,9.622,5.008,5.008,0,0,0,3.065-1.082l.015.028a.635.635,0,0,0,.091.13c.9.9,1.782,1.778,2.527,2.517a1.346,1.346,0,0,0,.2.172.453.453,0,0,0,.258.084.537.537,0,0,0,.265-.076.45.45,0,0,0,.231-.34A.578.578,0,0,0,141.287,39.117Zm-2.656-5.754a3.827,3.827,0,0,1-3.807,3.812h-.015a3.838,3.838,0,0,1-3.8-3.823,3.828,3.828,0,0,1,3.8-3.8h.016A3.825,3.825,0,0,1,138.631,33.363Z" transform="translate(-130.006 -28.552)" fill="#999"/>
</svg>
