<svg xmlns="http://www.w3.org/2000/svg" xmlns:xlink="http://www.w3.org/1999/xlink" width="975.168" height="139.561" viewBox="0 0 975.168 139.561">
  <defs>
    <clipPath id="clip-path">
      <rect id="사각형_2" data-name="사각형 2" width="975.168" height="139.561" transform="translate(-307.584 2719.901)" fill="none"/>
    </clipPath>
  </defs>
  <g id="그룹_45" data-name="그룹 45" transform="translate(307.584 -2719.901)">
    <rect id="사각형_1" data-name="사각형 1" width="975.168" height="139.561" transform="translate(-307.584 2719.901)" fill="#39b54a"/>
    <g id="그룹_44" data-name="그룹 44">
      <g id="그룹_43" data-name="그룹 43" clip-path="url(#clip-path)">
        <g id="그룹_42" data-name="그룹 42">
          <path id="패스_49" data-name="패스 49" d="M132.98,2846.356l-18.923,5.426a17.84,17.84,0,0,0,24.523-6.711,17.844,17.844,0,0,0-25,4.653Z" fill="#00914b" opacity="0.4"/>
          <path id="패스_50" data-name="패스 50" d="M-190.611,2780.145c8.226-.211.407-1.337.407-1.337,5.006-3.32-1.64-1.125-1.64-1.125,2.271-2.692-1.9-.974-1.569.462.248,1.09-.8,1.788-1.076,1.948-.07.016-.14.029-.21.041-.972-1.338-1.961-2.664-2.869-3.821-.517-.659-1.278-.743-.326.375.787.926,1.817,2.17,2.948,3.627-.028.043-.056.088-.086.131l0,0-.058.029-.062.031-.109.048-.034.013c-.045.018-.092.035-.139.05l-.044.013c-.042.013-.085.025-.128.035l-.037.008c-.056.011-.113.022-.171.028h-.019c-.052.006-.1.008-.157.009h-.043a1.394,1.394,0,0,1-.159-.012l-.024,0a1.314,1.314,0,0,1-.182-.04l-.041-.014c-.048-.015-.1-.034-.143-.054l-.05-.025a1.232,1.232,0,0,1-.18-.1,1.024,1.024,0,0,0-.831-.092c-1.177.287-2.531,1.863-.951,1.591.069-.013.143-.027.223-.047s.166-.042.258-.068.19-.059.294-.095c0,0-4.479,5.38.446,1.94,0,0-1.822,7.687,1.393.113,0,0,.365,11.038,1.457.616,0,0,3.636,11.374,1.623-.382,0,0,2.391,4.994,3.861,4.19,1.289-1.073-2.481-5.129-2.481-5.129,10.2,6.187.951-1.37.951-1.37C-180.476,2784.534-190.611,2780.145-190.611,2780.145Z" fill="#00914b" opacity="0.4"/>
          <path id="패스_51" data-name="패스 51" d="M-205.962,2745.68c-.3.054-.728.045-.783-.258-.035-.2.136-.368.3-.485a6.628,6.628,0,0,1,4.785-.76,18.186,18.186,0,0,1,4.017,1.047,14.427,14.427,0,0,0-2.189-6.486c-.2-.036-.407-.067-.613-.089a8.707,8.707,0,0,0-5.677,1.4,2.228,2.228,0,0,1-1.014.476c-.377.03-.806-.267-.751-.641.04-.274.3-.449.544-.583a15.757,15.757,0,0,1,6.54-1.927,21.469,21.469,0,0,0-4.811-4.417,13.438,13.438,0,0,0-3.816,2,12.734,12.734,0,0,0-2.4,2.361.513.513,0,0,1-.915-.4l0-.012a2.264,2.264,0,0,1,.66-1,24.494,24.494,0,0,1,4.712-4.025c-5.8-3.177-11.743-2.9-9.629,4.464-5.13-5.688-8.509-.792-8.879,5.812a24.5,24.5,0,0,1,5.907-1.871,2.275,2.275,0,0,1,1.2-.03l.011,0a.514.514,0,0,1-.145.988,12.762,12.762,0,0,0-3.277.791,13.477,13.477,0,0,0-3.717,2.181,21.485,21.485,0,0,0,1.205,6.419,15.749,15.749,0,0,1,5.093-4.534.933.933,0,0,1,.783-.153.664.664,0,0,1,.148.977,2.259,2.259,0,0,1-.942.609,8.7,8.7,0,0,0-4.188,4.079c-.09.186-.172.376-.249.568a14.438,14.438,0,0,0,4.348,5.286,18.168,18.168,0,0,1,1.235-3.963,6.634,6.634,0,0,1,3.176-3.659.547.547,0,0,1,.569,0c.228.207.012.574-.194.8a10.981,10.981,0,0,0-2.7,8.176,22.164,22.164,0,0,0,5,1.98,9.762,9.762,0,0,1,1.055-7.724c.252-.407.75-.842,1.142-.567.323.226.233.717.129,1.1a11.31,11.31,0,0,0,.186,6.531c.125.377.428.847.624,1.311a27.111,27.111,0,0,0,4.556.31c2-.06,2.392.646,2.392.646s-.392-.706.717-2.372a27.27,27.27,0,0,0,2.145-4.03c-.29-.413-.529-.917-.782-1.223a11.3,11.3,0,0,0-5.445-3.611c-.378-.113-.842-.3-.864-.69-.026-.478.607-.671,1.086-.67A9.765,9.765,0,0,1-198.56,2753a22.2,22.2,0,0,0,.965-5.294A10.985,10.985,0,0,0-205.962,2745.68Z" fill="#00914b" opacity="0.4"/>
          <path id="패스_52" data-name="패스 52" d="M-104.441,2719.546c.159.226.311.579.084.737-.147.1-.352.027-.509-.062a5.977,5.977,0,0,1-2.426-3.625,16.412,16.412,0,0,1-.657-3.678,12.99,12.99,0,0,0-4.476,4.232c.047.18.1.359.158.535a7.838,7.838,0,0,0,3.282,4.114,2.011,2.011,0,0,1,.773.65.6.6,0,0,1-.242.855.827.827,0,0,1-.682-.225,14.161,14.161,0,0,1-4.039-4.62,19.351,19.351,0,0,0-1.8,5.6,12.079,12.079,0,0,0,3.076,2.364,11.445,11.445,0,0,0,2.837,1.075.462.462,0,0,1,.018.9l-.01,0a2.03,2.03,0,0,1-1.07-.162,21.945,21.945,0,0,1-5.066-2.335c-.411,5.941,2.057,10.693,7.277,6.189-2.715,6.338,2.559,7.255,8.1,5.069a22.086,22.086,0,0,1-3.756-4.124,2.044,2.044,0,0,1-.477-.971v-.007a.462.462,0,0,1,.862-.257,11.461,11.461,0,0,0,1.882,2.38,12.116,12.116,0,0,0,3.182,2.217,19.39,19.39,0,0,0,4.794-3.4,14.158,14.158,0,0,1-5.625-2.455.833.833,0,0,1-.421-.582c-.006-.34.41-.557.743-.489a2.011,2.011,0,0,1,.853.541,7.838,7.838,0,0,0,4.913,1.886c.186,0,.371,0,.558-.011a12.98,12.98,0,0,0,2.682-5.546,16.244,16.244,0,0,1-3.705.483,5.965,5.965,0,0,1-4.188-1.217c-.132-.122-.267-.293-.213-.466.083-.264.465-.225.729-.142a9.884,9.884,0,0,0,7.7-.874,19.928,19.928,0,0,0-.267-4.836,8.787,8.787,0,0,1-6.711,2.048c-.428-.052-.971-.3-.894-.719.063-.349.5-.462.849-.519a10.184,10.184,0,0,0,5.268-2.615c.261-.244.531-.668.836-1a24.479,24.479,0,0,0-1.463-3.84c-.8-1.614-.374-2.2-.374-2.2s-.429.586-2.209.309a24.511,24.511,0,0,0-4.1-.235c-.228.392-.549.777-.7,1.1a10.191,10.191,0,0,0-.9,5.813c.051.351.076.8-.238.966-.381.2-.777-.244-.956-.635a8.8,8.8,0,0,1-.075-7.017,19.911,19.911,0,0,0-4.69,1.206A9.889,9.889,0,0,0-104.441,2719.546Z" fill="#00914b" opacity="0.4"/>
          <path id="패스_53" data-name="패스 53" d="M117.958,2788.352c.133.19.262.487.071.62a.414.414,0,0,1-.428-.052,5.024,5.024,0,0,1-2.041-3.051,13.78,13.78,0,0,1-.554-3.095,10.936,10.936,0,0,0-3.766,3.562c.039.151.082.3.133.45a6.6,6.6,0,0,0,2.761,3.461,1.7,1.7,0,0,1,.65.547.5.5,0,0,1-.2.721.7.7,0,0,1-.574-.19,11.914,11.914,0,0,1-3.4-3.889,16.27,16.27,0,0,0-1.512,4.711,10.236,10.236,0,0,0,2.588,1.99,9.644,9.644,0,0,0,2.387.9.39.39,0,0,1,.015.757h-.009a1.726,1.726,0,0,1-.9-.136,18.591,18.591,0,0,1-4.263-1.965c-.346,5,1.731,9,6.123,5.207-2.285,5.332,2.153,6.1,6.814,4.266a18.557,18.557,0,0,1-3.16-3.471,1.709,1.709,0,0,1-.4-.816v-.01a.389.389,0,0,1,.726-.213,9.6,9.6,0,0,0,1.583,2,10.184,10.184,0,0,0,2.678,1.867,16.3,16.3,0,0,0,4.034-2.865,11.934,11.934,0,0,1-4.733-2.065.7.7,0,0,1-.354-.49c-.006-.287.344-.468.625-.412a1.706,1.706,0,0,1,.717.455,6.591,6.591,0,0,0,4.134,1.587c.156,0,.313,0,.469-.009a10.922,10.922,0,0,0,2.258-4.666,13.878,13.878,0,0,1-3.117.407,5.033,5.033,0,0,1-3.525-1.024c-.112-.1-.224-.248-.179-.393.07-.222.391-.19.613-.12a8.319,8.319,0,0,0,6.479-.735,16.811,16.811,0,0,0-.224-4.069,7.4,7.4,0,0,1-5.647,1.723c-.36-.044-.817-.25-.753-.6.053-.295.42-.389.715-.438a8.555,8.555,0,0,0,4.433-2.2c.219-.205.446-.562.7-.844a20.618,20.618,0,0,0-1.231-3.232c-.675-1.357-.315-1.85-.315-1.85s-.36.493-1.858.259a20.675,20.675,0,0,0-3.453-.2c-.191.33-.463.654-.592.926a8.56,8.56,0,0,0-.758,4.89c.043.3.063.673-.2.813-.32.17-.654-.205-.8-.534a7.4,7.4,0,0,1-.063-5.9,16.858,16.858,0,0,0-3.947,1.014A8.323,8.323,0,0,0,117.958,2788.352Z" fill="#00914b" opacity="0.4"/>
          <path id="패스_54" data-name="패스 54" d="M220.825,2741.693l-1.794-.1,1.4-.684a21.858,21.858,0,0,0-2.344-3.487l-2.359.247,1.8-.907c-.355-.406-.735-.815-1.145-1.228a20.416,20.416,0,0,0-2.3-1.993l-1.776,1.368,1.026-1.9a17.945,17.945,0,0,0-3.048-1.655l-.431,1.695-.221-1.953a13.256,13.256,0,0,0-4.775-.941,13.235,13.235,0,0,0,1.278,4.7l1.964.083-1.66.549a17.95,17.95,0,0,0,1.868,2.923l1.823-1.159-1.238,1.869a20.483,20.483,0,0,0,2.152,2.149c.44.379.876.729,1.305,1.054l.776-1.861-.077,2.371a21.843,21.843,0,0,0,3.644,2.09l.583-1.441.231,1.783a12.986,12.986,0,0,0,4.695,1.045A12.977,12.977,0,0,0,220.825,2741.693Z" fill="#00914b" opacity="0.4"/>
          <path id="패스_55" data-name="패스 55" d="M-271.525,2759.675l-.987-2.043,1.61,1.121a27.706,27.706,0,0,0,2.411-4.723l-1.719-2.452,2.1,1.431c.229-.64.448-1.31.651-2.015a25.847,25.847,0,0,0,.793-3.755l-2.6-1.121,2.726-.033a22.561,22.561,0,0,0-.042-4.377l-2.133.563,2.018-1.441a16.71,16.71,0,0,0-1.888-5.845,16.712,16.712,0,0,0-4.4,4.289l1.113,2.217-1.624-1.494a22.558,22.558,0,0,0-2.079,3.852l2.4,1.3-2.821-.221a25.708,25.708,0,0,0-1.051,3.691c-.149.72-.268,1.414-.363,2.087l2.528-.284-2.664,1.367a27.6,27.6,0,0,0-.07,5.3l1.946-.241-1.825,1.348a16.364,16.364,0,0,0,1.725,5.819A16.369,16.369,0,0,0-271.525,2759.675Z" fill="#00914b" opacity="0.4"/>
          <path id="패스_56" data-name="패스 56" d="M-243.835,2815.845l.068-1.6.627,1.233a19.509,19.509,0,0,0,3.075-2.131l-.251-2.1.831,1.591c.356-.322.715-.665,1.078-1.035a18.151,18.151,0,0,0,1.745-2.072l-1.242-1.562,1.707.889a16.018,16.018,0,0,0,1.433-2.737l-1.514-.361,1.736-.223a11.778,11.778,0,0,0,.775-4.264,11.776,11.776,0,0,0-4.165,1.2l-.047,1.75-.512-1.472a16.008,16.008,0,0,0-2.578,1.7l1.056,1.609-1.68-1.079a18.077,18.077,0,0,0-1.885,1.944c-.333.4-.639.79-.922,1.177l1.667.667-2.112-.038a19.346,19.346,0,0,0-1.813,3.273l1.29.5-1.585.229a11.557,11.557,0,0,0-.868,4.194A11.564,11.564,0,0,0-243.835,2815.845Z" fill="#00914b" opacity="0.4"/>
          <path id="패스_57" data-name="패스 57" d="M9.394,2810.407l1.75-2.205-.383,2.4a34.169,34.169,0,0,0,6.579.14l1.81-3.244-.461,3.124c.838-.09,1.706-.208,2.6-.361a32.156,32.156,0,0,0,4.624-1.145l-.153-3.508,1.51,3.028a28.084,28.084,0,0,0,4.868-2.413l-1.784-2.079,2.7,1.476a20.744,20.744,0,0,0,5.508-5.269,20.741,20.741,0,0,0-7.168-2.594l-1.875,2.441.791-2.622a28.142,28.142,0,0,0-5.426-.24l-.159,3.38-1.278-3.271a32.3,32.3,0,0,0-4.691.82c-.884.223-1.724.465-2.527.723l1.684,2.671-2.967-2.236a34.174,34.174,0,0,0-5.961,2.786l1.321,2.044-2.492-1.311a20.283,20.283,0,0,0-5.568,5.073A20.3,20.3,0,0,0,9.394,2810.407Z" fill="#00914b" opacity="0.4"/>
          <g id="그룹_16" data-name="그룹 16" opacity="0.4">
            <path id="패스_58" data-name="패스 58" d="M-269.078,2809.123c-.157-.3-.259-.452-.259-.452h0c-.211-.386-.425-.768-.641-1.149v0q-.513-.9-1.043-1.787v0q-.553-.918-1.119-1.814v0h0q-.565-.9-1.144-1.765h0q-.591-.888-1.193-1.751v0h0q-.657-.942-1.324-1.854v0h0q-.663-.907-1.332-1.782h0q-.8-1.051-1.609-2.057h0q-.674-.84-1.345-1.644h0q-1.2-1.445-2.384-2.772a40.033,40.033,0,0,0,8.99,2.624,24.456,24.456,0,0,0-8.99-2.624c-.2-.225-.4-.444-.593-.663h0q-.749-.829-1.476-1.609h0q-.585-.627-1.153-1.217h0c-.28-.293-.559-.58-.832-.86h0q-.453-.462-.891-.9h0q-.434-.433-.85-.842h0q-.377-.369-.737-.718h0c-.208-.2-.414-.4-.613-.586a24.184,24.184,0,0,0,5.607-.613c-2.335-.9-5.607.613-5.607.613q-.621-.591-1.185-1.11a20.478,20.478,0,0,0,5.52-.387c-2.473-.945-5.327.291-5.527.379-2.49-2.3-4.082-3.557-4.082-3.557l4.41,5.316a31.065,31.065,0,0,0,.3,5.251,11.137,11.137,0,0,0,.233-4.6l.583.7a9.225,9.225,0,0,0,.281,5.367,17.549,17.549,0,0,0,.212-4.773l.239.288a14.683,14.683,0,0,0,.46,5.348,17.6,17.6,0,0,0,.211-4.54l.237.285a21.855,21.855,0,0,0,.2,5.2,14.758,14.758,0,0,0,.355-4.53l.358.434a19.3,19.3,0,0,0,.113,5.8,25.738,25.738,0,0,0,.353-5.238l.365.44a26.038,26.038,0,0,0,.379,7.081,18.985,18.985,0,0,0,.327-6.23l.455.548a31.53,31.53,0,0,0,.439,7.216,21.219,21.219,0,0,0,.293-6.334l.6.72a20.612,20.612,0,0,0,.376,7.345,23.069,23.069,0,0,0,.5-6.289l.726.875a19.639,19.639,0,0,0,.087,6.659,14.023,14.023,0,0,0,.847-5.533l.339.409a18.95,18.95,0,0,0,.237,6.472,16.777,16.777,0,0,0,.708-5.333l.572.691a32.337,32.337,0,0,0,.27,7.723,15.776,15.776,0,0,0,.707-6.546l.586.705a34.481,34.481,0,0,0-.039,8.215,19.288,19.288,0,0,0,.849-7.237l.527.635a25.18,25.18,0,0,0,.32,7.948,21.565,21.565,0,0,0,.538-6.914l.529.639a25.063,25.063,0,0,0,.3,7.831,20.8,20.8,0,0,0,.443-6.941l.534.646a29.2,29.2,0,0,0,.441,7.638,20.28,20.28,0,0,0,.285-6.764l.484.584a31.928,31.928,0,0,0,.429,8.5,22.709,22.709,0,0,0,.113-7.85l.609.734a24.392,24.392,0,0,0,.99,8.739,26.268,26.268,0,0,0-.47-8.112l.673.811a27.011,27.011,0,0,0,1.4,9.088,34.756,34.756,0,0,0-1.128-8.756l.365.439a9.585,9.585,0,0,0,1.877,5.682,16.634,16.634,0,0,0-1.074-4.414,28.11,28.11,0,0,0,3.758,4.85A10.284,10.284,0,0,0-269.078,2809.123Z" fill="#00914b"/>
            <path id="패스_59" data-name="패스 59" d="M-262.813,2814.311c-2.083-4.337-7.166-6.793-7.166-6.793A69.038,69.038,0,0,0-262.813,2814.311Z" fill="#00914b"/>
            <path id="패스_60" data-name="패스 60" d="M-270.715,2806.249c3.38,2.773,7.156,5.3,7.156,5.3C-265.86,2807.724-270.715,2806.249-270.715,2806.249Z" fill="#00914b"/>
            <path id="패스_61" data-name="패스 61" d="M-271.823,2804.424a47.88,47.88,0,0,0,7.557,4.878A17.16,17.16,0,0,0-271.823,2804.424Z" fill="#00914b"/>
            <path id="패스_62" data-name="패스 62" d="M-264.784,2807.491c-3.005-3.574-8.07-4.681-8.07-4.681C-268.647,2805.549-264.784,2807.491-264.784,2807.491Z" fill="#00914b"/>
            <path id="패스_63" data-name="패스 63" d="M-266.068,2805.223c-2.8-3.176-7.972-4.185-7.972-4.185A37.978,37.978,0,0,0-266.068,2805.223Z" fill="#00914b"/>
            <path id="패스_64" data-name="패스 64" d="M-267.54,2802.9c-2.436-2.7-7.93-3.895-7.93-3.895A30.677,30.677,0,0,0-267.54,2802.9Z" fill="#00914b"/>
            <path id="패스_65" data-name="패스 65" d="M-268.092,2801.06a14.433,14.433,0,0,0-8.493-3.569A46.421,46.421,0,0,0-268.092,2801.06Z" fill="#00914b"/>
            <path id="패스_66" data-name="패스 66" d="M-270.021,2798.7a18.48,18.48,0,0,0-8.211-3.352A27.984,27.984,0,0,0-270.021,2798.7Z" fill="#00914b"/>
            <path id="패스_67" data-name="패스 67" d="M-272.078,2796.489a13.936,13.936,0,0,0-7.494-2.8A37.5,37.5,0,0,0-272.078,2796.489Z" fill="#00914b"/>
            <path id="패스_68" data-name="패스 68" d="M-272,2794.784a18.547,18.547,0,0,0-8.829-2.6A34.639,34.639,0,0,0-272,2794.784Z" fill="#00914b"/>
            <path id="패스_69" data-name="패스 69" d="M-283.831,2788.788c2.975,1.449,8.383,1.936,8.383,1.936C-278.889,2788.582-283.831,2788.788-283.831,2788.788Z" fill="#00914b"/>
            <path id="패스_70" data-name="패스 70" d="M-285.006,2787.525s6.386,2.036,8.737,1.5A22.125,22.125,0,0,0-285.006,2787.525Z" fill="#00914b"/>
            <path id="패스_71" data-name="패스 71" d="M-286.215,2786.263a27.541,27.541,0,0,0,8.046,1.42C-281.094,2785.833-286.215,2786.263-286.215,2786.263Z" fill="#00914b"/>
            <path id="패스_72" data-name="패스 72" d="M-287.222,2785.239a17.616,17.616,0,0,0,6.978.477A12.281,12.281,0,0,0-287.222,2785.239Z" fill="#00914b"/>
            <path id="패스_73" data-name="패스 73" d="M-288.1,2784.361a51.342,51.342,0,0,0,6.281.189A8.524,8.524,0,0,0-288.1,2784.361Z" fill="#00914b"/>
            <path id="패스_74" data-name="패스 74" d="M-288.748,2783.721s4.569.159,6.048-.54A9.235,9.235,0,0,0-288.748,2783.721Z" fill="#00914b"/>
          </g>
          <g id="그룹_17" data-name="그룹 17" opacity="0.4">
            <path id="패스_75" data-name="패스 75" d="M-104.85,2781.135c-.157-.3-.259-.452-.259-.452h0q-.316-.579-.64-1.149l0,0v0q-.513-.9-1.043-1.787v0q-.554-.918-1.12-1.814v0h0q-.564-.9-1.144-1.765h0q-.591-.89-1.193-1.751v0h0q-.657-.942-1.324-1.854v0h0q-.663-.907-1.332-1.783h0q-.8-1.051-1.609-2.056h0q-.673-.842-1.345-1.645h0q-1.2-1.445-2.384-2.771a40.048,40.048,0,0,0,8.99,2.624,24.448,24.448,0,0,0-8.989-2.624c-.2-.225-.4-.445-.594-.663h0q-.749-.829-1.476-1.61h0q-.585-.627-1.153-1.216h0c-.28-.293-.559-.581-.832-.86h0q-.453-.462-.891-.9h0c-.289-.289-.572-.571-.85-.842h0q-.376-.369-.737-.718h0l-.613-.587a24.139,24.139,0,0,0,5.606-.612c-2.334-.9-5.606.612-5.606.612q-.621-.589-1.185-1.109a20.478,20.478,0,0,0,5.52-.387,8.121,8.121,0,0,0-5.527.379c-2.49-2.3-4.082-3.558-4.082-3.558l4.41,5.317a31.065,31.065,0,0,0,.3,5.251,11.142,11.142,0,0,0,.233-4.6l.583.7a9.227,9.227,0,0,0,.281,5.368,17.557,17.557,0,0,0,.212-4.774l.239.288a14.686,14.686,0,0,0,.46,5.349,17.6,17.6,0,0,0,.211-4.54l.237.285a21.844,21.844,0,0,0,.2,5.2,14.751,14.751,0,0,0,.355-4.529l.359.434a19.278,19.278,0,0,0,.112,5.8,25.723,25.723,0,0,0,.353-5.237l.365.44a26.013,26.013,0,0,0,.38,7.081,19.01,19.01,0,0,0,.326-6.23l.455.548a31.53,31.53,0,0,0,.439,7.216,21.22,21.22,0,0,0,.293-6.334l.6.719a20.607,20.607,0,0,0,.376,7.345,23.065,23.065,0,0,0,.5-6.288l.726.875a19.635,19.635,0,0,0,.087,6.658,14.018,14.018,0,0,0,.847-5.532l.339.408a18.954,18.954,0,0,0,.237,6.473,16.78,16.78,0,0,0,.708-5.333l.572.69a32.35,32.35,0,0,0,.27,7.724,15.777,15.777,0,0,0,.707-6.546l.586.705a34.487,34.487,0,0,0-.039,8.215,19.294,19.294,0,0,0,.849-7.237l.527.635a25.179,25.179,0,0,0,.32,7.948,21.537,21.537,0,0,0,.538-6.914l.529.638a25.059,25.059,0,0,0,.3,7.831,20.788,20.788,0,0,0,.443-6.94l.535.645a29.18,29.18,0,0,0,.44,7.639,20.28,20.28,0,0,0,.285-6.764l.484.584a31.924,31.924,0,0,0,.429,8.5,22.7,22.7,0,0,0,.113-7.849l.609.734a24.385,24.385,0,0,0,.99,8.738,26.261,26.261,0,0,0-.47-8.111l.673.811a27.013,27.013,0,0,0,1.4,9.088,34.743,34.743,0,0,0-1.128-8.756l.365.439a9.586,9.586,0,0,0,1.877,5.682,16.632,16.632,0,0,0-1.074-4.414,28.128,28.128,0,0,0,3.758,4.849A10.281,10.281,0,0,0-104.85,2781.135Z" fill="#00914b"/>
            <path id="패스_76" data-name="패스 76" d="M-98.585,2786.323c-2.083-4.338-7.166-6.793-7.166-6.793A69.037,69.037,0,0,0-98.585,2786.323Z" fill="#00914b"/>
            <path id="패스_77" data-name="패스 77" d="M-106.487,2778.261c3.38,2.773,7.156,5.3,7.156,5.3C-101.632,2779.735-106.487,2778.261-106.487,2778.261Z" fill="#00914b"/>
            <path id="패스_78" data-name="패스 78" d="M-107.6,2776.435a47.88,47.88,0,0,0,7.557,4.878A17.171,17.171,0,0,0-107.6,2776.435Z" fill="#00914b"/>
            <path id="패스_79" data-name="패스 79" d="M-100.556,2779.5c-3-3.574-8.07-4.682-8.07-4.682C-104.419,2777.56-100.556,2779.5-100.556,2779.5Z" fill="#00914b"/>
            <path id="패스_80" data-name="패스 80" d="M-101.84,2777.234c-2.8-3.175-7.972-4.184-7.972-4.184A37.945,37.945,0,0,0-101.84,2777.234Z" fill="#00914b"/>
            <path id="패스_81" data-name="패스 81" d="M-103.312,2774.913c-2.436-2.705-7.93-3.9-7.93-3.9A30.719,30.719,0,0,0-103.312,2774.913Z" fill="#00914b"/>
            <path id="패스_82" data-name="패스 82" d="M-103.864,2773.071a14.436,14.436,0,0,0-8.493-3.568A46.459,46.459,0,0,0-103.864,2773.071Z" fill="#00914b"/>
            <path id="패스_83" data-name="패스 83" d="M-105.792,2770.716a18.473,18.473,0,0,0-8.212-3.352A27.976,27.976,0,0,0-105.792,2770.716Z" fill="#00914b"/>
            <path id="패스_84" data-name="패스 84" d="M-107.85,2768.5a13.936,13.936,0,0,0-7.494-2.8A37.5,37.5,0,0,0-107.85,2768.5Z" fill="#00914b"/>
            <path id="패스_85" data-name="패스 85" d="M-107.771,2766.8a18.547,18.547,0,0,0-8.829-2.6A34.627,34.627,0,0,0-107.771,2766.8Z" fill="#00914b"/>
            <path id="패스_86" data-name="패스 86" d="M-119.6,2760.8c2.975,1.449,8.383,1.935,8.383,1.935C-114.661,2760.594-119.6,2760.8-119.6,2760.8Z" fill="#00914b"/>
            <path id="패스_87" data-name="패스 87" d="M-120.778,2759.537s6.386,2.036,8.737,1.5A22.117,22.117,0,0,0-120.778,2759.537Z" fill="#00914b"/>
            <path id="패스_88" data-name="패스 88" d="M-121.987,2758.274a27.5,27.5,0,0,0,8.046,1.42C-116.866,2757.845-121.987,2758.274-121.987,2758.274Z" fill="#00914b"/>
            <path id="패스_89" data-name="패스 89" d="M-122.994,2757.251a17.6,17.6,0,0,0,6.978.476A12.276,12.276,0,0,0-122.994,2757.251Z" fill="#00914b"/>
            <path id="패스_90" data-name="패스 90" d="M-123.875,2756.373a51.259,51.259,0,0,0,6.281.188A8.521,8.521,0,0,0-123.875,2756.373Z" fill="#00914b"/>
            <path id="패스_91" data-name="패스 91" d="M-124.52,2755.732s4.569.16,6.048-.54A9.243,9.243,0,0,0-124.52,2755.732Z" fill="#00914b"/>
          </g>
          <g id="그룹_18" data-name="그룹 18" opacity="0.4">
            <path id="패스_92" data-name="패스 92" d="M-142.8,2793.843c-1.171-1.334-1.866-2.205-1.892-2.239l-.1.082c.026.034.731.916,1.916,2.265-4.266.612-1,5.181-1,5.181,2.247-2.23,1.9-3.859,1.472-4.651.671.75,1.461,1.61,2.347,2.53-3.66.612-.553,4.873-.553,4.873,1.938-1.978,1.674-3.408,1.217-4.192.606.616,1.248,1.249,1.922,1.887l.011.022v0c-3.543,1.474-.182,5.1-.182,5.1,1.814-2.277,1.263-3.84.733-4.6.769.715,1.572,1.431,2.4,2.128v.01c-3.33,1.3-.047,5.344-.047,5.344,1.964-2.5,1.162-4.184.556-4.93.775.637,1.569,1.255,2.375,1.838l0,.019c-2.785,2.207.8,5,.8,5a3.658,3.658,0,0,0-.411-4.742c.88.621,1.772,1.2,2.666,1.708l.006.021c-2.393,2.766,1.576,5.006,1.576,5.006a4.06,4.06,0,0,0-1.169-4.795c.575.315,1.149.6,1.72.857,1.266,3.36,5.431,2.2,5.431,2.2-2.023-3.89-4.9-2.587-5.391-2.326-.566-.252-1.134-.537-1.7-.849,2.838.883,4.553-2.414,4.553-2.414a3.74,3.74,0,0,0-4.934,2.175l-.025.012c-.921-.527-1.84-1.122-2.745-1.764.738.268,2.636.648,4.309-1.631,0,0-4.009-2.111-4.61,1.386h0l0,.027c-.8-.58-1.589-1.192-2.358-1.825.692.291,2.037.387,3.937-1.6,0,0-4.539-2.672-4.475,1.156-.877-.739-1.724-1.5-2.533-2.254.687.36,2.161.682,3.941-1.615,0,0-4.777-2.576-4.37,1.209-.771-.733-1.5-1.457-2.181-2.154.646.375,2.026.717,3.807-1.442,0,0-4.394-2.6-4.215,1.021-.911-.947-1.72-1.828-2.4-2.591.672.449,2.152.926,4.245-1.279C-138.157,2793.015-142.47,2789.718-142.8,2793.843Z" fill="#00914b"/>
            <path id="패스_93" data-name="패스 93" d="M-131.554,2804.365h0Z" fill="#00914b"/>
          </g>
          <g id="그룹_20" data-name="그룹 20" opacity="0.4">
            <g id="그룹_19" data-name="그룹 19">
              <path id="패스_94" data-name="패스 94" d="M122.455,2739.9c-.364.254-.742.489-1.12.723l-1.13.705c-.738.479-1.5.935-2.188,1.477-.722.506-1.381,1.094-2.059,1.659l-.963.9-.242.225-.23.238-.461.475a32.656,32.656,0,0,0-3.332,4.11,29.154,29.154,0,0,0-2.629,4.6h0a16.257,16.257,0,0,1,4.709-3.337l.108-2.575.771,2.165a40.162,40.162,0,0,1,3.83-1.44l-1.612-3.472,3.143,2.986c1.2-.375,2.418-.748,3.612-1.162l-2.211-4.28,3.86,3.672a21.63,21.63,0,0,0,4.555-2.381c.21-.148.416-.3.619-.461l-4.234-2.5,5.363,1.54a22.551,22.551,0,0,0,4.356-5.7,41.246,41.246,0,0,0,2.734-6.282,18.805,18.805,0,0,0,.876-5.728h0c-2.451,2.562-5.032,5-7.709,7.323A86.728,86.728,0,0,1,122.455,2739.9Z" fill="#00914b"/>
              <path id="패스_95" data-name="패스 95" d="M122.842,2732l-2.471-4.008a22.211,22.211,0,0,0-3.98,2.774l2.294,5.556s-2.125-2.756-3.461-4.466a23.755,23.755,0,0,0-3.695,4.781l4.662,4.246-5.666-2.347a26.662,26.662,0,0,0-1.492,3.929l3.652,2.185-3.994-.905a29.77,29.77,0,0,0-.656,3.76l2.148.487-2.228.362a32.59,32.59,0,0,0,.146,6.668,22.124,22.124,0,0,1,1.132-2.4l.319-.584.337-.574c.22-.387.463-.756.7-1.131a32.562,32.562,0,0,1,3.28-4.2l.455-.487.228-.246.239-.23.966-.922c.681-.572,1.344-1.171,2.071-1.685.7-.555,1.46-1.02,2.205-1.509l1.121-.71c.372-.233.746-.467,1.109-.723l1.1-.739c.364-.25.72-.513,1.081-.769.723-.507,1.421-1.051,2.129-1.582q2.1-1.625,4.126-3.338t4-3.5q1.975-1.773,3.884-3.625a50.819,50.819,0,0,0-10.165-.47l-.591,5.3-1.238-5.07c-.343.059-.685.122-1.025.2a19.546,19.546,0,0,0-3.253,1.034Z" fill="#00914b"/>
            </g>
          </g>
          <path id="패스_96" data-name="패스 96" d="M265.034,2774.609c9.923.436.6-1.577.6-1.577,6.308-3.577-1.88-1.493-1.88-1.493,2.962-3.05-2.2-1.332-1.928.426.208,1.333-1.119,2.085-1.46,2.255-.085.014-.171.023-.256.032-1.058-1.693-2.138-3.373-3.134-4.843-.567-.837-1.476-1-.424.425.87,1.18,2.006,2.766,3.246,4.615-.038.05-.075.1-.115.151h0l-.072.031c-.025.011-.051.02-.078.031-.043.017-.089.033-.134.048a.425.425,0,0,1-.042.014c-.057.018-.114.034-.172.048a.449.449,0,0,1-.055.012,1.511,1.511,0,0,1-.157.031l-.045.007c-.068.01-.138.017-.209.021h-.022c-.063,0-.126,0-.19,0l-.052-.005c-.063-.006-.126-.015-.19-.027a.24.24,0,0,0-.029-.005,1.558,1.558,0,0,1-.215-.065l-.048-.019a1.683,1.683,0,0,1-.168-.079l-.059-.032a2.165,2.165,0,0,1-.208-.14,1.232,1.232,0,0,0-.992-.183c-1.442.248-3.205,2.032-1.279,1.836.084-.009.175-.02.272-.037s.2-.037.317-.062.233-.053.361-.087c0,0-5.845,6.1.374,2.373,0,0-2.84,9.1,1.669.252,0,0-.488,13.323,1.7.866,0,0,3.424,14,1.987-.325,0,0,2.459,6.215,4.3,5.372,1.641-1.186-2.557-6.387-2.557-6.387,11.76,8.307,1.261-1.569,1.261-1.569C276.869,2780.746,265.034,2774.609,265.034,2774.609Z" fill="#00914b" opacity="0.4"/>
          <path id="패스_97" data-name="패스 97" d="M210.421,2795.821l-.92,3.716-.883-3.189a46.629,46.629,0,0,0-8.218,3.537l-.409,5.035-1.193-4.125c-.985.584-1.991,1.219-3.016,1.915a43.847,43.847,0,0,0-5.074,4.022l2.168,4.255-3.577-2.893a38.149,38.149,0,0,0-4.66,5.729l3.379,1.567-4.175-.3a28.2,28.2,0,0,0-3.843,9.625,28.2,28.2,0,0,0,10.331-.834l.942-4.078.5,3.691a38.232,38.232,0,0,0,6.85-2.764l-1.71-4.271,3.425,3.326a43.744,43.744,0,0,0,5.341-3.661q1.45-1.161,2.719-2.318l-3.589-2.355,4.931,1.093a46.467,46.467,0,0,0,5.8-6.81l-2.787-1.783,3.822.216a27.626,27.626,0,0,0,4.029-9.416A27.632,27.632,0,0,0,210.421,2795.821Z" fill="#00914b" opacity="0.4"/>
          <g id="그룹_21" data-name="그룹 21" opacity="0.4">
            <path id="패스_98" data-name="패스 98" d="M51.062,2736.072c1.064-1.481,1.777-2.379,1.8-2.413l-.106-.085c-.027.034-.749.944-1.825,2.444-1.6-4.132-5.422.192-5.422.192,2.754,1.735,4.3,1.011,5,.4-.6.845-1.274,1.835-1.991,2.935-1.46-3.524-5.009.574-5.009.574,2.429,1.484,3.8.889,4.48.25-.476.748-.962,1.539-1.446,2.361l-.018.016-.007,0c-2.295-3.208-5.151,1-5.151,1,2.7,1.289,4.138.377,4.776-.329-.538.935-1.069,1.905-1.576,2.9l-.01,0c-2.07-3.036-5.365,1.19-5.365,1.19,2.963,1.388,4.46.2,5.068-.583-.459.923-.894,1.861-1.291,2.8l-.019.007c-2.854-2.278-4.827,1.962-4.827,1.962a3.76,3.76,0,0,0,4.655-1.509c-.418,1.026-.788,2.052-1.094,3.066l-.019.011c-3.325-1.757-4.649,2.737-4.649,2.737a4.176,4.176,0,0,0,4.532-2.281c-.184.648-.339,1.291-.461,1.922-3.073,2.045-.946,5.948-.946,5.948,3.429-2.926,1.458-5.506,1.083-5.938q.181-.939.456-1.9c-.228,3.047,3.47,4,3.47,4a3.845,3.845,0,0,0-3.32-4.44l-.016-.022c.315-1.044.7-2.1,1.131-3.157-.1.8-.039,2.791,2.63,3.939,0,0,1.188-4.505-2.454-4.3v0H43.1c.394-.934.826-1.866,1.281-2.783-.131.76.084,2.13,2.517,3.572,0,0,1.626-5.165-2.193-4.214.537-1.049,1.1-2.075,1.672-3.059-.2.771-.184,2.323,2.529,3.573,0,0,1.476-5.381-2.222-4.1.555-.941,1.112-1.84,1.653-2.683-.226.733-.25,2.2,2.325,3.48,0,0,1.588-5-2-3.986.736-1.132,1.433-2.145,2.04-3-.294.778-.431,2.37,2.263,3.957C52.965,2740.532,55.27,2735.449,51.062,2736.072Z" fill="#00914b"/>
            <path id="패스_99" data-name="패스 99" d="M43.123,2749.771h0Z" fill="#00914b"/>
          </g>
          <path id="패스_100" data-name="패스 100" d="M-46.859,2849.617c.133.19.262.486.071.619a.414.414,0,0,1-.428-.051,5.028,5.028,0,0,1-2.041-3.051,13.785,13.785,0,0,1-.554-3.095,10.924,10.924,0,0,0-3.766,3.562c.039.151.082.3.133.45a6.6,6.6,0,0,0,2.761,3.461,1.69,1.69,0,0,1,.65.547.5.5,0,0,1-.2.72.7.7,0,0,1-.574-.189,11.925,11.925,0,0,1-3.4-3.889,16.243,16.243,0,0,0-1.513,4.711,10.2,10.2,0,0,0,2.588,1.989,9.647,9.647,0,0,0,2.387.905.389.389,0,0,1,.015.756h-.009a1.723,1.723,0,0,1-.9-.135,18.57,18.57,0,0,1-4.263-1.965c-.346,5,1.731,9,6.123,5.207-2.285,5.332,2.154,6.1,6.814,4.265a18.528,18.528,0,0,1-3.16-3.47,1.709,1.709,0,0,1-.4-.817v-.009a.389.389,0,0,1,.726-.213,9.6,9.6,0,0,0,1.583,2,10.225,10.225,0,0,0,2.678,1.867,16.293,16.293,0,0,0,4.034-2.865,11.915,11.915,0,0,1-4.733-2.066.7.7,0,0,1-.354-.489c-.006-.287.345-.469.625-.412a1.69,1.69,0,0,1,.718.455A6.589,6.589,0,0,0-37.118,2860c.157,0,.313,0,.47-.009a10.938,10.938,0,0,0,2.257-4.666,13.835,13.835,0,0,1-3.117.406,5.033,5.033,0,0,1-3.525-1.023c-.112-.1-.224-.248-.179-.394.07-.221.391-.189.613-.12a8.314,8.314,0,0,0,6.479-.734,16.773,16.773,0,0,0-.224-4.07,7.4,7.4,0,0,1-5.647,1.724c-.36-.045-.817-.25-.753-.6.054-.295.42-.389.715-.438a8.562,8.562,0,0,0,4.433-2.2c.219-.2.447-.563.7-.845a20.53,20.53,0,0,0-1.231-3.231c-.675-1.358-.314-1.85-.314-1.85s-.361.492-1.859.259a20.509,20.509,0,0,0-3.452-.2c-.192.33-.463.654-.593.925a8.571,8.571,0,0,0-.758,4.891c.043.3.063.673-.2.813-.32.169-.653-.206-.8-.535a7.39,7.39,0,0,1-.062-5.9,16.8,16.8,0,0,0-3.948,1.014A8.324,8.324,0,0,0-46.859,2849.617Z" fill="#00914b" opacity="0.4"/>
          <g id="그룹_23" data-name="그룹 23" opacity="0.4">
            <g id="그룹_22" data-name="그룹 22">
              <path id="패스_101" data-name="패스 101" d="M-45.768,2784.2c-.364.254-.742.489-1.12.723l-1.13.705c-.738.479-1.495.934-2.189,1.476-.721.507-1.38,1.095-2.058,1.66l-.963.9-.242.225-.23.238-.462.474a32.8,32.8,0,0,0-3.331,4.111,29.237,29.237,0,0,0-2.63,4.6h0a16.279,16.279,0,0,1,4.708-3.338l.109-2.574.771,2.165a40.126,40.126,0,0,1,3.83-1.44l-1.612-3.472,3.143,2.986c1.2-.375,2.418-.748,3.612-1.162l-2.211-4.28,3.86,3.672a21.667,21.667,0,0,0,4.555-2.381c.21-.148.416-.3.619-.461l-4.234-2.5,5.363,1.54a22.57,22.57,0,0,0,4.356-5.7,41.226,41.226,0,0,0,2.734-6.282,18.773,18.773,0,0,0,.875-5.728h0c-2.45,2.562-5.031,5-7.709,7.322A86.451,86.451,0,0,1-45.768,2784.2Z" fill="#00914b"/>
              <path id="패스_102" data-name="패스 102" d="M-45.381,2776.291l-2.472-4.008a22.283,22.283,0,0,0-3.98,2.774l2.294,5.556s-2.125-2.756-3.46-4.466a23.755,23.755,0,0,0-3.695,4.781l4.662,4.246-5.666-2.347a26.655,26.655,0,0,0-1.492,3.929l3.651,2.185-3.993-.905a29.778,29.778,0,0,0-.656,3.76l2.147.487-2.228.361a32.741,32.741,0,0,0,.146,6.669,22.506,22.506,0,0,1,1.132-2.4l.32-.584.337-.574c.22-.387.462-.756.7-1.131a32.522,32.522,0,0,1,3.279-4.2l.456-.488.228-.245.239-.23.966-.922c.681-.572,1.343-1.171,2.071-1.686.7-.554,1.46-1.019,2.205-1.508l1.121-.71c.372-.233.746-.467,1.109-.723l1.1-.739c.364-.25.72-.513,1.081-.769.723-.507,1.421-1.052,2.129-1.582q2.1-1.625,4.126-3.338t4-3.5q1.976-1.773,3.883-3.625a50.74,50.74,0,0,0-10.165-.47l-.59,5.3-1.238-5.07c-.343.059-.685.122-1.025.2a19.579,19.579,0,0,0-3.254,1.034Z" fill="#00914b"/>
            </g>
          </g>
          <g id="그룹_25" data-name="그룹 25" opacity="0.4">
            <g id="그룹_24" data-name="그룹 24">
              <path id="패스_103" data-name="패스 103" d="M-5.2,2724.965c-.407-.177-.8-.375-1.2-.574L-7.6,2723.8c-.8-.377-1.58-.782-2.4-1.088-.811-.348-1.658-.6-2.494-.881l-1.275-.345-.318-.088-.324-.071-.646-.142a32.458,32.458,0,0,0-5.247-.678,29.094,29.094,0,0,0-5.3.177h0a16.232,16.232,0,0,1,5.312,2.254l2.249-1.258-1.438,1.793a39.626,39.626,0,0,1,3.236,2.5l2.109-3.194-.891,4.242c.952.828,1.906,1.664,2.885,2.464l2.482-4.129-1.1,5.214A21.667,21.667,0,0,0-6.34,2733.2c.236.1.475.194.716.284l-.1-4.915,1.5,5.373a22.569,22.569,0,0,0,7.136.716,41.188,41.188,0,0,0,6.783-.972,18.819,18.819,0,0,0,5.334-2.261h0c-3.467-.741-6.9-1.658-10.28-2.717A86.689,86.689,0,0,1-5.2,2724.965Z" fill="#00914b"/>
              <path id="패스_104" data-name="패스 104" d="M1.73,2721.143l2.114-4.208A22.224,22.224,0,0,0-.606,2715l-3.525,4.87s1.23-3.256,1.984-5.291a23.8,23.8,0,0,0-6.009-.635l-1.166,6.2-.977-6.054a26.62,26.62,0,0,0-4.127.793l.056,4.256-1.325-3.874a29.6,29.6,0,0,0-3.545,1.415l.713,2.084L-20,2717.058a32.551,32.551,0,0,0-5.6,3.626,21.816,21.816,0,0,1,2.64-.3l.665-.035.666-.015c.444-.016.885,0,1.331,0a32.68,32.68,0,0,1,5.293.588l.654.133.328.064.322.083,1.291.337c.845.28,1.7.529,2.522.879.839.3,1.635.707,2.442,1.084l1.193.581c.393.2.789.39,1.2.564l1.206.547c.4.179.814.344,1.222.517.81.349,1.64.657,2.464.981q2.483.93,5.007,1.759t5.073,1.565q2.547.75,5.125,1.4a50.77,50.77,0,0,0-4.937-8.9l-4.823,2.282,3.665-3.716c-.23-.261-.463-.519-.706-.769a19.554,19.554,0,0,0-2.588-2.225Z" fill="#00914b"/>
            </g>
          </g>
          <g id="그룹_27" data-name="그룹 27" opacity="0.4">
            <g id="그룹_26" data-name="그룹 26">
              <path id="패스_105" data-name="패스 105" d="M-241.728,2853.291c-.363.254-.742.489-1.12.723l-1.13.705c-.738.479-1.494.934-2.188,1.476-.722.507-1.38,1.095-2.058,1.659l-.964.905-.242.224-.23.239-.461.474a32.728,32.728,0,0,0-3.331,4.111,29.171,29.171,0,0,0-2.63,4.6h0a16.3,16.3,0,0,1,4.709-3.338l.108-2.574.772,2.165a39.947,39.947,0,0,1,3.829-1.44l-1.611-3.472,3.142,2.985c1.205-.375,2.418-.748,3.612-1.161l-2.211-4.28,3.86,3.672a21.674,21.674,0,0,0,4.556-2.381c.21-.148.415-.3.618-.461l-4.234-2.5,5.364,1.54a22.591,22.591,0,0,0,4.356-5.7,41.231,41.231,0,0,0,2.733-6.282,18.773,18.773,0,0,0,.876-5.728h0c-2.451,2.562-5.031,5-7.709,7.322A86.617,86.617,0,0,1-241.728,2853.291Z" fill="#00914b"/>
              <path id="패스_106" data-name="패스 106" d="M-241.341,2845.384l-2.471-4.008a22.243,22.243,0,0,0-3.98,2.773l2.294,5.557s-2.125-2.756-3.461-4.466a23.777,23.777,0,0,0-3.7,4.78l4.663,4.247-5.667-2.347a26.5,26.5,0,0,0-1.491,3.929l3.651,2.185-3.993-.905a29.6,29.6,0,0,0-.657,3.76l2.148.487-2.228.361a32.6,32.6,0,0,0,.146,6.669,22.124,22.124,0,0,1,1.132-2.4l.319-.584.337-.574c.22-.387.463-.756.7-1.131a32.469,32.469,0,0,1,3.279-4.2l.456-.488.227-.245.239-.23.966-.922c.682-.572,1.344-1.171,2.071-1.686.7-.554,1.461-1.019,2.206-1.509l1.12-.71c.373-.232.747-.466,1.109-.722l1.1-.739c.363-.25.719-.513,1.08-.769.724-.507,1.421-1.052,2.13-1.582q2.1-1.625,4.126-3.338t3.995-3.5q1.977-1.775,3.884-3.625a50.744,50.744,0,0,0-10.165-.471l-.59,5.3-1.239-5.07c-.342.058-.684.122-1.025.2a19.569,19.569,0,0,0-3.253,1.034Z" fill="#00914b"/>
            </g>
          </g>
          <path id="패스_107" data-name="패스 107" d="M-165.772,2831.062c.494,9.921,1.627.453,1.627.453,4.15,5.945,1.311-2.012,1.311-2.012,3.313,2.664,1.12-2.317-.6-1.88-1.308.331-2.181-.919-2.382-1.242-.022-.084-.039-.169-.055-.253,1.586-1.212,3.158-2.443,4.528-3.573.78-.643.859-1.563-.463-.381-1.093.975-2.565,2.254-4.291,3.662-.054-.033-.108-.066-.161-.1v0c-.013-.022-.026-.045-.038-.068l-.038-.074c-.021-.042-.042-.086-.061-.13a.356.356,0,0,1-.017-.041c-.024-.054-.045-.109-.065-.166-.006-.018-.012-.035-.017-.053-.016-.051-.033-.1-.045-.154,0-.014-.008-.029-.011-.044a1.961,1.961,0,0,1-.04-.206l0-.022c-.008-.062-.012-.126-.014-.19,0-.017,0-.034,0-.052a1.757,1.757,0,0,1,.009-.191.3.3,0,0,0,0-.03,1.713,1.713,0,0,1,.044-.22c.005-.017.011-.033.015-.05a1.653,1.653,0,0,1,.063-.174c.008-.021.017-.042.026-.061a1.987,1.987,0,0,1,.12-.221,1.227,1.227,0,0,0,.089-1c-.381-1.413-2.322-3-1.947-1.1.017.084.037.172.063.268s.055.2.09.311.076.226.12.351c0,0-6.619-5.25-2.326.594,0,0-9.33-1.978-.1,1.685,0,0-13.309.758-.7,1.776,0,0-13.619,4.717.51,1.947,0,0-5.959,3.029-4.947,4.781,1.334,1.524,6.12-3.142,6.12-3.142-7.171,12.484,1.681,1.108,1.681,1.108C-170.776,2843.42-165.772,2831.062-165.772,2831.062Z" fill="#00914b" opacity="0.4"/>
          <path id="패스_108" data-name="패스 108" d="M77.29,2837.085c9.923.435.6-1.577.6-1.577,6.307-3.577-1.881-1.493-1.881-1.493,2.962-3.05-2.2-1.332-1.928.425.208,1.333-1.118,2.085-1.459,2.255-.086.015-.172.024-.257.032-1.058-1.693-2.138-3.373-3.134-4.842-.567-.837-1.476-1-.423.425.869,1.179,2.005,2.765,3.245,4.615-.038.05-.075.1-.115.15h0c-.023.011-.047.022-.072.031l-.077.032c-.044.016-.089.033-.135.047a.352.352,0,0,1-.042.014c-.056.019-.114.034-.172.049a.481.481,0,0,1-.054.012c-.052.011-.105.023-.157.031l-.045.007c-.069.01-.139.016-.209.02h-.022c-.063,0-.127,0-.191,0l-.052,0a1.6,1.6,0,0,1-.189-.027c-.01,0-.02,0-.03,0a1.631,1.631,0,0,1-.215-.064l-.048-.02a1.4,1.4,0,0,1-.167-.079c-.021-.01-.04-.02-.059-.031a1.817,1.817,0,0,1-.208-.141,1.23,1.23,0,0,0-.993-.182c-1.442.248-3.205,2.032-1.279,1.836.084-.009.175-.021.272-.037s.2-.038.317-.062.234-.054.362-.087c0,0-5.846,6.1.374,2.372,0,0-2.841,9.1,1.668.253,0,0-.488,13.322,1.7.865,0,0,3.424,14,1.987-.325,0,0,2.459,6.216,4.3,5.372,1.641-1.185-2.558-6.387-2.558-6.387,11.76,8.307,1.261-1.569,1.261-1.569C89.125,2843.222,77.29,2837.085,77.29,2837.085Z" fill="#00914b" opacity="0.4"/>
          <path id="패스_109" data-name="패스 109" d="M30.218,2861.313l-2.376-.586,2.037-.565a29.781,29.781,0,0,0-2.267-5.251l-3.219-.258,2.636-.765c-.374-.63-.78-1.273-1.227-1.927a27.934,27.934,0,0,0-2.575-3.241l-2.718,1.389,1.847-2.288a24.436,24.436,0,0,0-3.666-2.975l-1,2.162.19-2.669a18.033,18.033,0,0,0-6.156-2.45,18.037,18.037,0,0,0,.541,6.6l2.607.6-2.359.322a24.443,24.443,0,0,0,1.772,4.376l2.73-1.1-2.124,2.193a28.076,28.076,0,0,0,2.344,3.411q.745.927,1.484,1.736l1.5-2.3-.695,3.155a29.783,29.783,0,0,0,4.358,3.7l1.137-1.784-.135,2.444a17.668,17.668,0,0,0,6.023,2.569A17.677,17.677,0,0,0,30.218,2861.313Z" fill="#00914b" opacity="0.4"/>
          <path id="패스_110" data-name="패스 110" d="M377.7,2842.911c.133.19.261.486.07.619a.413.413,0,0,1-.428-.052,5.023,5.023,0,0,1-2.041-3.05,13.722,13.722,0,0,1-.553-3.095,10.935,10.935,0,0,0-3.767,3.561c.039.152.083.3.134.451a6.592,6.592,0,0,0,2.76,3.461,1.7,1.7,0,0,1,.651.546.5.5,0,0,1-.2.721.7.7,0,0,1-.574-.189,11.933,11.933,0,0,1-3.4-3.889,16.3,16.3,0,0,0-1.513,4.711,10.21,10.21,0,0,0,2.588,1.989,9.679,9.679,0,0,0,2.388.905.389.389,0,0,1,.015.756h-.009a1.725,1.725,0,0,1-.9-.135,18.579,18.579,0,0,1-4.263-1.965c-.345,5,1.731,9,6.124,5.207-2.285,5.332,2.153,6.1,6.813,4.265a18.55,18.55,0,0,1-3.159-3.47,1.709,1.709,0,0,1-.4-.817v-.006a.389.389,0,0,1,.725-.216,9.631,9.631,0,0,0,1.584,2,10.226,10.226,0,0,0,2.677,1.867,16.263,16.263,0,0,0,4.034-2.865,11.939,11.939,0,0,1-4.733-2.066.7.7,0,0,1-.354-.489c-.006-.287.345-.469.625-.412a1.688,1.688,0,0,1,.718.455,6.591,6.591,0,0,0,4.133,1.587c.157,0,.314,0,.47-.009a10.936,10.936,0,0,0,2.257-4.666,13.827,13.827,0,0,1-3.117.406,5.03,5.03,0,0,1-3.524-1.023c-.112-.1-.225-.248-.179-.394.069-.221.391-.189.612-.12a8.316,8.316,0,0,0,6.48-.734,16.77,16.77,0,0,0-.225-4.07,7.4,7.4,0,0,1-5.647,1.724c-.36-.045-.817-.25-.752-.6.053-.3.419-.389.715-.438a8.559,8.559,0,0,0,4.432-2.2c.22-.2.447-.563.7-.845a20.515,20.515,0,0,0-1.232-3.231c-.674-1.358-.314-1.85-.314-1.85s-.36.492-1.858.259a20.522,20.522,0,0,0-3.453-.2c-.192.33-.463.654-.593.925a8.572,8.572,0,0,0-.758,4.891c.043.3.064.673-.2.813-.321.169-.654-.206-.8-.535a7.39,7.39,0,0,1-.063-5.9,16.8,16.8,0,0,0-3.947,1.014A8.324,8.324,0,0,0,377.7,2842.911Z" fill="#00914b" opacity="0.4"/>
          <path id="패스_111" data-name="패스 111" d="M269.14,2864.966l1.75-2.205-.383,2.4a34.32,34.32,0,0,0,6.578.14l1.811-3.244-.461,3.124c.838-.09,1.705-.208,2.6-.362a32.1,32.1,0,0,0,4.624-1.144l-.154-3.508,1.511,3.027a28.071,28.071,0,0,0,4.867-2.413l-1.783-2.078,2.7,1.476a20.766,20.766,0,0,0,5.508-5.269,20.752,20.752,0,0,0-7.168-2.595l-1.875,2.442.791-2.622a28.148,28.148,0,0,0-5.427-.241l-.158,3.38-1.278-3.27a32.209,32.209,0,0,0-4.692.82q-1.325.335-2.527.723l1.685,2.671-2.967-2.237a34.264,34.264,0,0,0-5.961,2.786l1.321,2.044-2.492-1.31a20.3,20.3,0,0,0-5.569,5.073A20.305,20.305,0,0,0,269.14,2864.966Z" fill="#00914b" opacity="0.4"/>
          <g id="그룹_29" data-name="그룹 29" opacity="0.4">
            <g id="그룹_28" data-name="그룹 28">
              <path id="패스_112" data-name="패스 112" d="M382.2,2794.463c-.364.254-.743.489-1.12.722l-1.13.706c-.739.479-1.495.934-2.189,1.476-.721.507-1.38,1.095-2.058,1.659l-.963.905-.242.224-.23.238-.462.475a32.666,32.666,0,0,0-3.331,4.11,29.288,29.288,0,0,0-2.63,4.6h0a16.28,16.28,0,0,1,4.708-3.338l.109-2.574.771,2.165a39.622,39.622,0,0,1,3.829-1.44l-1.611-3.472,3.142,2.985c1.2-.375,2.418-.748,3.612-1.161l-2.211-4.28,3.861,3.672a21.656,21.656,0,0,0,4.555-2.381c.21-.149.415-.3.618-.461L385,2796.8l5.363,1.54a22.587,22.587,0,0,0,4.356-5.7,41.3,41.3,0,0,0,2.734-6.283,18.792,18.792,0,0,0,.875-5.727h0c-2.45,2.561-5.031,5-7.709,7.322A86.8,86.8,0,0,1,382.2,2794.463Z" fill="#00914b"/>
              <path id="패스_113" data-name="패스 113" d="M382.587,2786.556l-2.471-4.008a22.231,22.231,0,0,0-3.98,2.773l2.294,5.557s-2.125-2.756-3.461-4.466a23.848,23.848,0,0,0-3.7,4.78l4.663,4.246-5.666-2.346a26.419,26.419,0,0,0-1.492,3.928l3.651,2.186-3.993-.905a29.962,29.962,0,0,0-.657,3.759l2.148.488-2.228.361a32.668,32.668,0,0,0,.146,6.669,22.308,22.308,0,0,1,1.132-2.4l.319-.584.337-.574c.22-.387.463-.756.7-1.131a32.549,32.549,0,0,1,3.279-4.2l.456-.487.227-.245.24-.23.965-.922c.682-.573,1.344-1.171,2.072-1.686.7-.555,1.46-1.019,2.205-1.509l1.12-.71c.373-.232.747-.466,1.109-.722l1.1-.74c.364-.25.72-.512,1.08-.768.724-.507,1.421-1.052,2.13-1.582q2.1-1.625,4.126-3.338t3.995-3.5q1.977-1.774,3.884-3.625a50.759,50.759,0,0,0-10.165-.471l-.59,5.3-1.238-5.07c-.343.058-.685.122-1.025.2a19.55,19.55,0,0,0-3.254,1.034Z" fill="#00914b"/>
            </g>
          </g>
          <path id="패스_114" data-name="패스 114" d="M337.036,2832.618c9.923.436.6-1.577.6-1.577,6.308-3.577-1.88-1.493-1.88-1.493,2.962-3.05-2.2-1.332-1.928.426.208,1.333-1.119,2.085-1.46,2.254-.085.015-.171.024-.256.033-1.058-1.694-2.138-3.373-3.134-4.843-.567-.837-1.476-1-.424.425.87,1.179,2.006,2.765,3.246,4.615-.038.05-.075.1-.115.15h0l-.072.032-.078.031c-.043.016-.089.033-.134.048a.321.321,0,0,1-.043.013c-.056.019-.113.035-.171.049a.492.492,0,0,1-.055.012c-.051.012-.1.023-.157.031l-.045.007a2,2,0,0,1-.209.02H330.7c-.063,0-.126,0-.19,0l-.052-.005a1.793,1.793,0,0,1-.19-.028c-.01,0-.019,0-.029,0a1.588,1.588,0,0,1-.215-.064l-.048-.02a1.34,1.34,0,0,1-.168-.079c-.02-.009-.039-.02-.059-.031a2.011,2.011,0,0,1-.208-.141,1.228,1.228,0,0,0-.992-.182c-1.442.248-3.205,2.032-1.279,1.836.084-.009.174-.021.272-.037s.2-.037.317-.062.233-.054.361-.087c0,0-5.845,6.1.374,2.372,0,0-2.84,9.1,1.669.253,0,0-.488,13.323,1.7.866,0,0,3.424,14,1.987-.326,0,0,2.459,6.216,4.3,5.372,1.641-1.185-2.557-6.386-2.557-6.386,11.76,8.306,1.261-1.57,1.261-1.57C348.871,2838.755,337.036,2832.618,337.036,2832.618Z" fill="#00914b" opacity="0.4"/>
          <g id="그룹_30" data-name="그룹 30" opacity="0.4">
            <path id="패스_115" data-name="패스 115" d="M310.808,2790.631c1.064-1.482,1.777-2.379,1.8-2.413l-.106-.085c-.027.034-.75.943-1.826,2.443-1.6-4.132-5.421.192-5.421.192,2.753,1.736,4.3,1.011,5,.4-.6.845-1.275,1.835-1.991,2.934-1.46-3.523-5.01.575-5.01.575,2.43,1.484,3.8.888,4.48.25-.475.748-.961,1.539-1.445,2.361l-.019.016-.006,0c-2.3-3.208-5.151,1-5.151,1,2.7,1.289,4.137.377,4.775-.329-.538.934-1.069,1.9-1.576,2.9l-.009,0c-2.07-3.036-5.365,1.189-5.365,1.189,2.963,1.388,4.46.2,5.068-.583-.459.923-.894,1.862-1.292,2.8l-.018.008c-2.855-2.278-4.828,1.962-4.828,1.962a3.758,3.758,0,0,0,4.655-1.51c-.418,1.026-.788,2.053-1.094,3.067l-.018.01c-3.326-1.757-4.65,2.738-4.65,2.738a4.174,4.174,0,0,0,4.532-2.282c-.183.649-.338,1.291-.46,1.922-3.073,2.045-.947,5.948-.947,5.948,3.43-2.925,1.458-5.5,1.083-5.937.121-.626.275-1.261.456-1.9-.228,3.046,3.471,4,3.471,4a3.844,3.844,0,0,0-3.32-4.44l-.016-.022c.314-1.044.7-2.1,1.131-3.158-.1.8-.039,2.791,2.63,3.94,0,0,1.187-4.5-2.454-4.3v0h-.027c.394-.935.825-1.866,1.281-2.783-.131.759.084,2.13,2.517,3.572,0,0,1.626-5.165-2.193-4.215.537-1.049,1.1-2.074,1.672-3.058-.2.771-.184,2.323,2.528,3.573,0,0,1.477-5.381-2.222-4.1.555-.94,1.113-1.84,1.654-2.682-.226.733-.25,2.195,2.324,3.48,0,0,1.589-5-2-3.986.737-1.132,1.434-2.146,2.041-3-.295.778-.431,2.37,2.262,3.957C312.71,2795.091,315.016,2790.008,310.808,2790.631Z" fill="#00914b"/>
            <path id="패스_116" data-name="패스 116" d="M302.869,2804.33h0Z" fill="#00914b"/>
          </g>
          <g id="그룹_32" data-name="그룹 32" opacity="0.4">
            <g id="그룹_31" data-name="그룹 31">
              <path id="패스_117" data-name="패스 117" d="M296.845,2730.8c-.407-.177-.806-.375-1.2-.574l-1.194-.591c-.8-.377-1.58-.782-2.4-1.088-.81-.348-1.657-.6-2.493-.881l-1.276-.345-.318-.088-.323-.071-.647-.143a32.552,32.552,0,0,0-5.247-.677,29.1,29.1,0,0,0-5.3.177h0a16.265,16.265,0,0,1,5.313,2.255l2.248-1.258-1.438,1.793a39.643,39.643,0,0,1,3.237,2.5l2.108-3.194-.89,4.242c.951.828,1.906,1.664,2.884,2.464l2.482-4.129-1.1,5.214a21.668,21.668,0,0,0,4.418,2.627c.236.1.476.194.717.284l-.1-4.915,1.505,5.373a22.575,22.575,0,0,0,7.137.716,41.176,41.176,0,0,0,6.782-.972,18.806,18.806,0,0,0,5.334-2.261h0c-3.467-.741-6.895-1.658-10.279-2.717A86.55,86.55,0,0,1,296.845,2730.8Z" fill="#00914b"/>
              <path id="패스_118" data-name="패스 118" d="M303.777,2726.976l2.114-4.208a22.276,22.276,0,0,0-4.45-1.93l-3.525,4.87s1.23-3.256,1.984-5.291a23.793,23.793,0,0,0-6.008-.635l-1.166,6.2-.978-6.054a26.665,26.665,0,0,0-4.127.793l.057,4.256-1.325-3.874a29.539,29.539,0,0,0-3.545,1.415l.713,2.084-1.478-1.707a32.628,32.628,0,0,0-5.6,3.626,21.816,21.816,0,0,1,2.64-.3l.665-.035.666-.015c.444-.016.886,0,1.331,0a32.722,32.722,0,0,1,5.293.588l.654.132.328.065.322.083,1.292.337c.844.28,1.7.529,2.521.879.839.3,1.635.707,2.443,1.084l1.192.581c.394.195.789.39,1.2.564l1.206.547c.4.179.815.344,1.222.517.811.349,1.641.657,2.464.981q2.482.93,5.007,1.759t5.073,1.565q2.549.75,5.125,1.4a50.706,50.706,0,0,0-4.937-8.9l-4.823,2.282,3.665-3.716c-.229-.261-.463-.519-.706-.769a19.555,19.555,0,0,0-2.588-2.225Z" fill="#00914b"/>
            </g>
          </g>
          <g id="그룹_33" data-name="그룹 33" opacity="0.4">
            <path id="패스_119" data-name="패스 119" d="M-117.161,2842.135c1.064-1.482,1.778-2.379,1.805-2.413l-.106-.085c-.028.034-.75.943-1.826,2.443-1.6-4.132-5.421.192-5.421.192,2.753,1.736,4.3,1.011,5,.4-.6.845-1.275,1.835-1.991,2.934-1.461-3.523-5.01.575-5.01.575,2.43,1.484,3.8.888,4.48.25-.476.748-.961,1.539-1.446,2.361l-.018.016-.006,0c-2.3-3.209-5.152,1-5.152,1,2.7,1.289,4.138.377,4.776-.33-.538.935-1.069,1.906-1.576,2.9l-.01,0c-2.069-3.036-5.364,1.189-5.364,1.189,2.963,1.388,4.46.2,5.068-.583-.459.923-.895,1.862-1.292,2.8l-.019.008c-2.854-2.278-4.827,1.962-4.827,1.962a3.758,3.758,0,0,0,4.655-1.51c-.418,1.026-.788,2.053-1.094,3.066l-.019.011c-3.325-1.757-4.649,2.737-4.649,2.737a4.175,4.175,0,0,0,4.532-2.281c-.183.649-.338,1.291-.46,1.922-3.074,2.045-.947,5.948-.947,5.948,3.43-2.925,1.458-5.506,1.083-5.937.121-.626.275-1.261.456-1.9-.228,3.047,3.471,4,3.471,4a3.844,3.844,0,0,0-3.32-4.439l-.017-.023c.315-1.043.7-2.1,1.132-3.157-.1.8-.039,2.791,2.629,3.94,0,0,1.188-4.505-2.454-4.3v0h-.026c.394-.935.825-1.866,1.281-2.783-.132.759.084,2.13,2.516,3.572,0,0,1.626-5.165-2.193-4.215.538-1.049,1.1-2.074,1.672-3.059-.2.772-.183,2.324,2.529,3.574,0,0,1.476-5.381-2.222-4.1.555-.94,1.112-1.84,1.653-2.683-.225.734-.25,2.2,2.325,3.481,0,0,1.588-5-2-3.986.737-1.132,1.434-2.146,2.04-3-.294.778-.43,2.37,2.263,3.957C-115.258,2846.595-112.953,2841.512-117.161,2842.135Z" fill="#00914b"/>
            <path id="패스_120" data-name="패스 120" d="M-125.1,2855.834h0Z" fill="#00914b"/>
          </g>
          <path id="패스_121" data-name="패스 121" d="M535.82,2717.9c.159.227.311.579.084.738a.5.5,0,0,1-.509-.063,5.971,5.971,0,0,1-2.426-3.625,16.391,16.391,0,0,1-.657-3.678,13.013,13.013,0,0,0-4.477,4.233c.047.18.1.358.159.535a7.833,7.833,0,0,0,3.281,4.113,2.017,2.017,0,0,1,.773.651.6.6,0,0,1-.242.854.823.823,0,0,1-.681-.224,14.178,14.178,0,0,1-4.04-4.621,19.4,19.4,0,0,0-1.8,5.6,12.09,12.09,0,0,0,3.075,2.364,11.439,11.439,0,0,0,2.838,1.076.462.462,0,0,1,.018.9l-.011,0a2.038,2.038,0,0,1-1.069-.162,21.977,21.977,0,0,1-5.066-2.335c-.411,5.94,2.056,10.692,7.277,6.188-2.716,6.338,2.559,7.255,8.1,5.07a22.06,22.06,0,0,1-3.756-4.124,2.059,2.059,0,0,1-.478-.971v-.011a.463.463,0,0,1,.863-.254,11.389,11.389,0,0,0,1.882,2.38,12.1,12.1,0,0,0,3.182,2.218,19.41,19.41,0,0,0,4.794-3.4,14.192,14.192,0,0,1-5.625-2.455.832.832,0,0,1-.421-.582c-.007-.34.409-.557.743-.49a2.041,2.041,0,0,1,.853.541,7.83,7.83,0,0,0,4.913,1.886c.186,0,.371,0,.558-.011a13,13,0,0,0,2.682-5.546,16.293,16.293,0,0,1-3.705.484,5.97,5.97,0,0,1-4.188-1.217c-.133-.122-.267-.294-.213-.467.083-.263.465-.224.728-.141a9.892,9.892,0,0,0,7.7-.874,19.926,19.926,0,0,0-.266-4.836,8.787,8.787,0,0,1-6.711,2.048c-.428-.052-.972-.3-.9-.719.064-.35.5-.462.85-.52a10.186,10.186,0,0,0,5.268-2.614c.26-.244.531-.668.836-1a24.567,24.567,0,0,0-1.463-3.84c-.8-1.613-.374-2.2-.374-2.2s-.429.586-2.209.309a24.384,24.384,0,0,0-4.1-.236c-.228.393-.55.778-.7,1.1a10.18,10.18,0,0,0-.9,5.812c.051.352.076.8-.239.966-.381.2-.777-.243-.955-.635a8.789,8.789,0,0,1-.075-7.016,19.912,19.912,0,0,0-4.69,1.206A9.886,9.886,0,0,0,535.82,2717.9Z" fill="#00914b" opacity="0.4"/>
          <path id="패스_122" data-name="패스 122" d="M607.787,2791.489l1.75-2.205-.383,2.4a34.17,34.17,0,0,0,6.579.14l1.809-3.244-.46,3.124c.838-.09,1.705-.208,2.6-.361a32.061,32.061,0,0,0,4.624-1.145l-.154-3.508,1.511,3.028a28.092,28.092,0,0,0,4.867-2.413l-1.783-2.079,2.7,1.476a20.764,20.764,0,0,0,5.508-5.269,20.742,20.742,0,0,0-7.168-2.594l-1.875,2.441.791-2.622a28.173,28.173,0,0,0-5.427-.24l-.158,3.38-1.278-3.271a32.186,32.186,0,0,0-4.692.821q-1.324.333-2.527.722l1.685,2.671-2.967-2.236a34.176,34.176,0,0,0-5.961,2.786l1.321,2.044-2.492-1.311a20.292,20.292,0,0,0-5.569,5.074A20.322,20.322,0,0,0,607.787,2791.489Z" fill="#00914b" opacity="0.4"/>
          <g id="그룹_34" data-name="그룹 34" opacity="0.4">
            <path id="패스_123" data-name="패스 123" d="M493.542,2762.217c-.156-.3-.258-.452-.258-.452h0c-.211-.386-.425-.768-.641-1.149v0q-.514-.9-1.044-1.787v0q-.552-.918-1.119-1.814v0h0q-.565-.9-1.144-1.765h0q-.593-.89-1.194-1.751v0h0q-.657-.942-1.324-1.854v0h0q-.663-.907-1.332-1.783h0q-.8-1.051-1.609-2.056h0q-.674-.842-1.345-1.645h0c-.8-.963-1.6-1.888-2.384-2.771a40.017,40.017,0,0,0,8.989,2.624,24.453,24.453,0,0,0-8.989-2.624c-.2-.225-.4-.445-.594-.663h0q-.748-.829-1.475-1.61h0q-.586-.627-1.153-1.216h0q-.422-.439-.832-.86h0c-.3-.308-.6-.608-.891-.9h0q-.434-.433-.851-.842h0q-.375-.369-.736-.718h0l-.613-.587a24.149,24.149,0,0,0,5.606-.612c-2.334-.9-5.606.612-5.606.612q-.621-.589-1.185-1.109a20.484,20.484,0,0,0,5.52-.387,8.12,8.12,0,0,0-5.527.379c-2.49-2.3-4.082-3.557-4.082-3.557l4.409,5.316a31.011,31.011,0,0,0,.3,5.251,11.14,11.14,0,0,0,.232-4.6l.584.705a9.225,9.225,0,0,0,.281,5.367,17.6,17.6,0,0,0,.212-4.774l.239.288a14.661,14.661,0,0,0,.46,5.349,17.6,17.6,0,0,0,.21-4.54l.237.285a21.814,21.814,0,0,0,.2,5.2,14.782,14.782,0,0,0,.355-4.529l.358.434a19.277,19.277,0,0,0,.112,5.8,25.659,25.659,0,0,0,.354-5.237l.364.44a26.06,26.06,0,0,0,.38,7.081,19.039,19.039,0,0,0,.327-6.23l.454.548a31.562,31.562,0,0,0,.44,7.216,21.185,21.185,0,0,0,.292-6.334l.6.72a20.633,20.633,0,0,0,.376,7.344,23.07,23.07,0,0,0,.5-6.288l.726.875a19.6,19.6,0,0,0,.087,6.658,14.037,14.037,0,0,0,.847-5.532l.338.408a18.968,18.968,0,0,0,.238,6.473,16.81,16.81,0,0,0,.708-5.333l.572.69a32.285,32.285,0,0,0,.27,7.724,15.776,15.776,0,0,0,.707-6.546l.586.705a34.518,34.518,0,0,0-.04,8.215,19.294,19.294,0,0,0,.85-7.237l.527.635a25.18,25.18,0,0,0,.32,7.948,21.565,21.565,0,0,0,.538-6.914l.529.638a25.058,25.058,0,0,0,.3,7.831,20.786,20.786,0,0,0,.442-6.94l.535.646a29.2,29.2,0,0,0,.441,7.638,20.277,20.277,0,0,0,.284-6.764l.485.584a31.95,31.95,0,0,0,.428,8.5,22.7,22.7,0,0,0,.114-7.849l.609.734a24.371,24.371,0,0,0,.989,8.738,26.232,26.232,0,0,0-.469-8.111l.672.811a27.024,27.024,0,0,0,1.4,9.088,34.739,34.739,0,0,0-1.129-8.756l.365.439a9.582,9.582,0,0,0,1.878,5.682,16.634,16.634,0,0,0-1.074-4.414,28.128,28.128,0,0,0,3.758,4.849A10.276,10.276,0,0,0,493.542,2762.217Z" fill="#00914b"/>
            <path id="패스_124" data-name="패스 124" d="M499.807,2767.405c-2.083-4.338-7.165-6.793-7.165-6.793A69.094,69.094,0,0,0,499.807,2767.405Z" fill="#00914b"/>
            <path id="패스_125" data-name="패스 125" d="M491.906,2759.343c3.38,2.773,7.156,5.3,7.156,5.3C496.76,2760.817,491.906,2759.343,491.906,2759.343Z" fill="#00914b"/>
            <path id="패스_126" data-name="패스 126" d="M490.8,2757.518a47.961,47.961,0,0,0,7.558,4.877A17.164,17.164,0,0,0,490.8,2757.518Z" fill="#00914b"/>
            <path id="패스_127" data-name="패스 127" d="M497.836,2760.585c-3-3.574-8.069-4.682-8.069-4.682C493.974,2758.643,497.836,2760.585,497.836,2760.585Z" fill="#00914b"/>
            <path id="패스_128" data-name="패스 128" d="M496.552,2758.316c-2.8-3.175-7.971-4.184-7.971-4.184A37.952,37.952,0,0,0,496.552,2758.316Z" fill="#00914b"/>
            <path id="패스_129" data-name="패스 129" d="M495.081,2756c-2.436-2.705-7.931-3.9-7.931-3.9A30.734,30.734,0,0,0,495.081,2756Z" fill="#00914b"/>
            <path id="패스_130" data-name="패스 130" d="M494.529,2754.153a14.438,14.438,0,0,0-8.493-3.568A46.428,46.428,0,0,0,494.529,2754.153Z" fill="#00914b"/>
            <path id="패스_131" data-name="패스 131" d="M492.6,2751.8a18.469,18.469,0,0,0-8.212-3.352A27.976,27.976,0,0,0,492.6,2751.8Z" fill="#00914b"/>
            <path id="패스_132" data-name="패스 132" d="M490.542,2749.583a13.936,13.936,0,0,0-7.494-2.8A37.5,37.5,0,0,0,490.542,2749.583Z" fill="#00914b"/>
            <path id="패스_133" data-name="패스 133" d="M490.622,2747.878a18.553,18.553,0,0,0-8.83-2.6A34.64,34.64,0,0,0,490.622,2747.878Z" fill="#00914b"/>
            <path id="패스_134" data-name="패스 134" d="M478.79,2741.882c2.974,1.449,8.382,1.935,8.382,1.935C483.731,2741.676,478.79,2741.882,478.79,2741.882Z" fill="#00914b"/>
            <path id="패스_135" data-name="패스 135" d="M477.615,2740.619s6.386,2.036,8.737,1.5A22.125,22.125,0,0,0,477.615,2740.619Z" fill="#00914b"/>
            <path id="패스_136" data-name="패스 136" d="M476.4,2739.356a27.5,27.5,0,0,0,8.047,1.42C481.527,2738.927,476.4,2739.356,476.4,2739.356Z" fill="#00914b"/>
            <path id="패스_137" data-name="패스 137" d="M475.4,2738.333a17.616,17.616,0,0,0,6.978.477A12.271,12.271,0,0,0,475.4,2738.333Z" fill="#00914b"/>
            <path id="패스_138" data-name="패스 138" d="M474.518,2737.455a51.26,51.26,0,0,0,6.281.188A8.521,8.521,0,0,0,474.518,2737.455Z" fill="#00914b"/>
            <path id="패스_139" data-name="패스 139" d="M473.873,2736.814s4.569.16,6.048-.54A9.243,9.243,0,0,0,473.873,2736.814Z" fill="#00914b"/>
          </g>
          <g id="그룹_35" data-name="그룹 35" opacity="0.4">
            <path id="패스_140" data-name="패스 140" d="M455.592,2774.925c-1.171-1.334-1.865-2.205-1.891-2.239l-.1.082c.026.034.73.917,1.915,2.265-4.265.612-1,5.181-1,5.181,2.248-2.23,1.9-3.859,1.473-4.651.67.75,1.46,1.61,2.346,2.53-3.659.612-.552,4.873-.552,4.873,1.938-1.978,1.673-3.407,1.217-4.192.6.616,1.248,1.249,1.921,1.887l.011.022v0c-3.543,1.474-.182,5.1-.182,5.1,1.814-2.277,1.263-3.84.734-4.6.769.715,1.572,1.431,2.4,2.128v.01c-3.33,1.3-.046,5.344-.046,5.344,1.963-2.5,1.162-4.184.556-4.93.775.637,1.569,1.255,2.375,1.838l0,.02c-2.784,2.206.8,5,.8,5a3.658,3.658,0,0,0-.41-4.742c.88.621,1.772,1.2,2.666,1.708l.006.021c-2.393,2.766,1.576,5.006,1.576,5.006a4.061,4.061,0,0,0-1.169-4.795c.574.315,1.148.6,1.72.857,1.266,3.36,5.43,2.2,5.43,2.2-2.022-3.89-4.9-2.587-5.39-2.326-.566-.252-1.134-.537-1.7-.849,2.839.883,4.553-2.414,4.553-2.414a3.739,3.739,0,0,0-4.934,2.175l-.025.012c-.92-.527-1.839-1.122-2.744-1.764.738.268,2.636.648,4.309-1.631,0,0-4.01-2.111-4.61,1.386h0l-.005.027c-.8-.58-1.588-1.192-2.357-1.825.691.291,2.037.387,3.937-1.6,0,0-4.54-2.672-4.475,1.156-.877-.739-1.725-1.5-2.533-2.254.687.361,2.161.682,3.94-1.615,0,0-4.776-2.576-4.369,1.209-.771-.732-1.5-1.457-2.182-2.154.646.375,2.026.717,3.808-1.442,0,0-4.4-2.6-4.216,1.021-.91-.947-1.719-1.828-2.4-2.591.672.449,2.151.926,4.245-1.279C460.236,2774.1,455.922,2770.8,455.592,2774.925Z" fill="#00914b"/>
            <path id="패스_141" data-name="패스 141" d="M466.838,2785.447h0Z" fill="#00914b"/>
          </g>
          <g id="그룹_36" data-name="그룹 36" opacity="0.4">
            <path id="패스_142" data-name="패스 142" d="M686.552,2733.77c1.064-1.481,1.777-2.378,1.8-2.413l-.106-.085c-.027.035-.749.944-1.826,2.444-1.6-4.132-5.421.192-5.421.192,2.753,1.735,4.3,1.011,5,.4-.6.844-1.274,1.835-1.991,2.934-1.46-3.523-5.01.574-5.01.574,2.43,1.485,3.8.889,4.48.25-.475.748-.961,1.539-1.445,2.362l-.018.015-.007,0c-2.3-3.208-5.151,1-5.151,1,2.7,1.289,4.138.377,4.775-.329-.538.935-1.069,1.905-1.575,2.9l-.01,0c-2.07-3.037-5.365,1.189-5.365,1.189,2.963,1.388,4.46.2,5.068-.583-.459.923-.894,1.861-1.292,2.8l-.018.008c-2.855-2.279-4.828,1.962-4.828,1.962a3.761,3.761,0,0,0,4.656-1.51c-.418,1.026-.788,2.052-1.095,3.066l-.018.011c-3.325-1.757-4.65,2.737-4.65,2.737a4.178,4.178,0,0,0,4.533-2.281c-.184.648-.339,1.291-.461,1.922-3.073,2.045-.947,5.948-.947,5.948,3.43-2.926,1.458-5.506,1.083-5.937.121-.626.275-1.261.456-1.9-.228,3.047,3.471,4,3.471,4a3.844,3.844,0,0,0-3.32-4.439l-.016-.023c.315-1.044.7-2.1,1.131-3.157-.1.8-.039,2.791,2.63,3.939,0,0,1.187-4.5-2.454-4.3v0h-.027c.394-.935.826-1.867,1.281-2.784-.131.76.084,2.13,2.517,3.573,0,0,1.626-5.165-2.193-4.215.537-1.049,1.1-2.074,1.672-3.059-.2.772-.184,2.323,2.529,3.573,0,0,1.476-5.38-2.223-4.1.556-.941,1.113-1.84,1.654-2.683-.226.734-.25,2.2,2.324,3.481,0,0,1.589-5-2-3.987.737-1.132,1.434-2.145,2.041-3-.3.779-.431,2.37,2.263,3.957C688.455,2738.23,690.76,2733.147,686.552,2733.77Z" fill="#00914b"/>
            <path id="패스_143" data-name="패스 143" d="M678.613,2747.47h0Z" fill="#00914b"/>
          </g>
          <path id="패스_144" data-name="패스 144" d="M551.534,2830.7c.133.19.261.486.07.619a.415.415,0,0,1-.428-.051,5.025,5.025,0,0,1-2.041-3.051,13.785,13.785,0,0,1-.553-3.095,10.936,10.936,0,0,0-3.767,3.562c.039.151.083.3.134.45a6.589,6.589,0,0,0,2.76,3.461,1.7,1.7,0,0,1,.651.547.5.5,0,0,1-.2.72.7.7,0,0,1-.573-.189,11.928,11.928,0,0,1-3.4-3.889,16.3,16.3,0,0,0-1.513,4.711,10.2,10.2,0,0,0,2.588,1.989,9.669,9.669,0,0,0,2.388.905.389.389,0,0,1,.015.756h-.009a1.729,1.729,0,0,1-.9-.135,18.589,18.589,0,0,1-4.263-1.965c-.345,5,1.731,9,6.124,5.207-2.285,5.332,2.153,6.1,6.813,4.266a18.6,18.6,0,0,1-3.159-3.471,1.71,1.71,0,0,1-.4-.817v0a.389.389,0,0,1,.725-.217,9.636,9.636,0,0,0,1.584,2,10.225,10.225,0,0,0,2.678,1.867,16.269,16.269,0,0,0,4.033-2.865,11.922,11.922,0,0,1-4.733-2.066.7.7,0,0,1-.354-.489c-.006-.287.345-.469.625-.412a1.69,1.69,0,0,1,.718.455,6.594,6.594,0,0,0,4.133,1.587c.157,0,.314,0,.47-.009a10.925,10.925,0,0,0,2.257-4.666,13.82,13.82,0,0,1-3.117.406,5.026,5.026,0,0,1-3.524-1.023c-.112-.1-.225-.248-.179-.394.07-.221.391-.189.612-.12a8.317,8.317,0,0,0,6.48-.734,16.77,16.77,0,0,0-.225-4.07,7.394,7.394,0,0,1-5.647,1.724c-.359-.045-.817-.25-.752-.6.053-.295.419-.389.715-.438a8.559,8.559,0,0,0,4.432-2.2c.22-.205.447-.563.7-.845a20.618,20.618,0,0,0-1.231-3.231c-.675-1.358-.315-1.85-.315-1.85s-.36.492-1.858.259a20.6,20.6,0,0,0-3.453-.2c-.192.33-.463.654-.593.925a8.572,8.572,0,0,0-.758,4.891c.043.3.064.673-.2.813-.321.17-.654-.2-.8-.535a7.39,7.39,0,0,1-.063-5.9,16.787,16.787,0,0,0-3.947,1.014A8.324,8.324,0,0,0,551.534,2830.7Z" fill="#00914b" opacity="0.4"/>
          <g id="그룹_38" data-name="그룹 38" opacity="0.4">
            <g id="그룹_37" data-name="그룹 37">
              <path id="패스_145" data-name="패스 145" d="M552.625,2765.28c-.364.254-.743.489-1.121.723l-1.129.705c-.739.479-1.495.935-2.189,1.477-.722.506-1.38,1.094-2.058,1.659l-.963.9-.243.225-.23.238-.461.474a32.633,32.633,0,0,0-3.331,4.111,29.167,29.167,0,0,0-2.63,4.6h0a16.252,16.252,0,0,1,4.708-3.337l.108-2.575.772,2.165a40.214,40.214,0,0,1,3.829-1.44l-1.611-3.472,3.142,2.986c1.205-.375,2.418-.748,3.612-1.162l-2.211-4.28,3.86,3.672a21.638,21.638,0,0,0,4.556-2.381c.21-.148.415-.3.618-.461l-4.234-2.5,5.364,1.54a22.574,22.574,0,0,0,4.356-5.7,41.343,41.343,0,0,0,2.734-6.282,18.8,18.8,0,0,0,.875-5.728h0c-2.451,2.562-5.031,5-7.709,7.323A86.721,86.721,0,0,1,552.625,2765.28Z" fill="#00914b"/>
              <path id="패스_146" data-name="패스 146" d="M553.011,2757.373l-2.471-4.008a22.248,22.248,0,0,0-3.98,2.774l2.294,5.556s-2.125-2.756-3.461-4.466a23.755,23.755,0,0,0-3.7,4.781l4.663,4.246-5.667-2.347a26.545,26.545,0,0,0-1.491,3.929l3.651,2.185-3.993-.905a29.785,29.785,0,0,0-.657,3.76l2.148.487-2.228.361a32.594,32.594,0,0,0,.146,6.669,22.115,22.115,0,0,1,1.132-2.4l.319-.584.337-.574c.22-.387.463-.756.7-1.131a32.54,32.54,0,0,1,3.279-4.2l.456-.488.227-.245.239-.23.966-.922c.682-.572,1.344-1.171,2.072-1.686.7-.554,1.459-1.019,2.205-1.508l1.12-.71c.373-.233.747-.467,1.109-.723l1.1-.739c.363-.25.719-.513,1.08-.769.724-.507,1.421-1.051,2.13-1.582q2.1-1.625,4.126-3.338t3.995-3.5q1.977-1.773,3.884-3.625a50.813,50.813,0,0,0-10.165-.47l-.59,5.3-1.239-5.07c-.342.059-.684.122-1.025.2a19.566,19.566,0,0,0-3.253,1.034Z" fill="#00914b"/>
            </g>
          </g>
          <g id="그룹_40" data-name="그룹 40" opacity="0.4">
            <g id="그룹_39" data-name="그룹 39">
              <path id="패스_147" data-name="패스 147" d="M619.774,2732.072c-.407-.177-.8-.375-1.2-.574l-1.193-.591c-.8-.377-1.58-.781-2.4-1.088-.811-.347-1.658-.6-2.494-.881l-1.275-.344-.318-.088-.323-.071-.647-.143a32.6,32.6,0,0,0-5.247-.678,29.2,29.2,0,0,0-5.295.177h0a16.248,16.248,0,0,1,5.313,2.255l2.248-1.259-1.438,1.793a40.138,40.138,0,0,1,3.237,2.5l2.108-3.193-.891,4.242c.952.828,1.906,1.664,2.885,2.464l2.482-4.129-1.1,5.214a21.678,21.678,0,0,0,4.418,2.627q.354.148.717.284l-.1-4.915,1.505,5.373a22.6,22.6,0,0,0,7.136.716,41.4,41.4,0,0,0,6.783-.972,18.815,18.815,0,0,0,5.334-2.262h0c-3.467-.741-6.9-1.658-10.28-2.717A86.466,86.466,0,0,1,619.774,2732.072Z" fill="#00914b"/>
              <path id="패스_148" data-name="패스 148" d="M626.707,2728.25l2.114-4.208a22.265,22.265,0,0,0-4.45-1.931l-3.525,4.87s1.23-3.255,1.984-5.291a23.857,23.857,0,0,0-6.009-.634l-1.166,6.2-.977-6.055a26.678,26.678,0,0,0-4.127.793l.057,4.256-1.326-3.874a29.769,29.769,0,0,0-3.545,1.415l.713,2.084-1.477-1.707a32.644,32.644,0,0,0-5.6,3.626,22.264,22.264,0,0,1,2.64-.3l.665-.035.666-.015c.444-.015.885,0,1.331,0a32.734,32.734,0,0,1,5.293.588l.654.133.328.064.321.083,1.292.337c.845.281,1.7.53,2.522.879.839.3,1.635.707,2.442,1.084l1.193.581c.393.2.789.391,1.2.565l1.206.547c.4.178.814.343,1.222.516.81.35,1.64.657,2.464.982q2.483.93,5.007,1.758t5.073,1.566q2.547.75,5.125,1.4a50.76,50.76,0,0,0-4.937-8.9l-4.823,2.281,3.665-3.716c-.23-.261-.463-.518-.706-.768a19.485,19.485,0,0,0-2.588-2.226Z" fill="#00914b"/>
            </g>
          </g>
          <path id="패스_149" data-name="패스 149" d="M675.683,2818.167c9.923.435.6-1.577.6-1.577,6.308-3.577-1.88-1.493-1.88-1.493,2.962-3.05-2.2-1.332-1.928.425.208,1.333-1.118,2.085-1.46,2.255-.085.015-.171.024-.256.033-1.058-1.694-2.138-3.374-3.134-4.843-.567-.837-1.476-1-.424.425.87,1.179,2.006,2.765,3.246,4.615-.038.05-.075.1-.115.15h0c-.024.011-.048.022-.072.031l-.078.032c-.043.016-.089.033-.134.047a.363.363,0,0,1-.043.014c-.056.019-.113.034-.171.049a.5.5,0,0,1-.055.012c-.051.011-.1.023-.157.031l-.045.007c-.068.01-.138.016-.209.02h-.022c-.063,0-.126,0-.19,0l-.052,0a1.859,1.859,0,0,1-.19-.028c-.01,0-.019,0-.029,0a1.553,1.553,0,0,1-.215-.064l-.048-.02a1.486,1.486,0,0,1-.168-.079l-.059-.031a1.972,1.972,0,0,1-.208-.141,1.229,1.229,0,0,0-.992-.182c-1.442.248-3.205,2.032-1.279,1.836.084-.009.174-.021.272-.037s.2-.038.317-.062.233-.054.361-.087c0,0-5.845,6.1.374,2.372,0,0-2.84,9.1,1.669.253,0,0-.489,13.322,1.7.865,0,0,3.424,14,1.987-.325,0,0,2.459,6.216,4.3,5.372,1.641-1.185-2.558-6.387-2.558-6.387,11.761,8.307,1.262-1.569,1.262-1.569C687.518,2824.3,675.683,2818.167,675.683,2818.167Z" fill="#00914b" opacity="0.4"/>
          <path id="패스_150" data-name="패스 150" d="M628.61,2842.4l-2.375-.585,2.037-.566a29.788,29.788,0,0,0-2.267-5.251l-3.219-.258,2.635-.765q-.56-.945-1.226-1.927a27.935,27.935,0,0,0-2.575-3.241l-2.719,1.389,1.848-2.288a24.523,24.523,0,0,0-3.666-2.975l-1,2.162.19-2.669a18.036,18.036,0,0,0-6.156-2.45,18.036,18.036,0,0,0,.541,6.6l2.607.6-2.358.322a24.51,24.51,0,0,0,1.771,4.376l2.731-1.1-2.125,2.193a28.094,28.094,0,0,0,2.344,3.411q.746.927,1.485,1.736l1.5-2.3-.7,3.155a29.886,29.886,0,0,0,4.358,3.7l1.138-1.784-.135,2.444a17.672,17.672,0,0,0,6.023,2.569A17.7,17.7,0,0,0,628.61,2842.4Z" fill="#00914b" opacity="0.4"/>
          <path id="패스_151" data-name="패스 151" d="M455.454,2733.033c9.923.436.6-1.577.6-1.577,6.308-3.577-1.88-1.493-1.88-1.493,2.962-3.05-2.2-1.332-1.928.426.208,1.333-1.119,2.085-1.46,2.254-.085.015-.171.024-.256.033-1.058-1.694-2.138-3.373-3.135-4.843-.566-.837-1.475-1-.423.425.87,1.179,2.006,2.765,3.246,4.615-.038.05-.075.1-.115.15h0l-.072.032-.078.031c-.043.016-.089.033-.134.048a.321.321,0,0,1-.043.013c-.056.019-.113.035-.171.049l-.055.012c-.051.012-.1.023-.157.031l-.045.007c-.068.01-.138.017-.209.021h-.022c-.063,0-.126,0-.19,0l-.052,0a1.859,1.859,0,0,1-.19-.028c-.01,0-.019,0-.029,0a1.587,1.587,0,0,1-.215-.064c-.016-.006-.032-.014-.048-.019a1.423,1.423,0,0,1-.168-.08c-.02-.009-.039-.02-.059-.031a2.165,2.165,0,0,1-.208-.14,1.228,1.228,0,0,0-.992-.183c-1.442.248-3.205,2.032-1.279,1.836.084-.009.174-.021.272-.037s.2-.037.317-.062.233-.053.361-.087c0,0-5.845,6.1.374,2.372,0,0-2.84,9.1,1.669.253,0,0-.489,13.323,1.7.866,0,0,3.424,14,1.987-.326,0,0,2.459,6.216,4.3,5.372,1.641-1.185-2.558-6.386-2.558-6.386,11.761,8.306,1.262-1.57,1.262-1.57C467.289,2739.17,455.454,2733.033,455.454,2733.033Z" fill="#00914b" opacity="0.4"/>
          <path id="패스_152" data-name="패스 152" d="M408.381,2757.262l-2.375-.586,2.037-.566a29.886,29.886,0,0,0-2.267-5.251l-3.219-.258,2.635-.765q-.559-.945-1.226-1.927a27.935,27.935,0,0,0-2.575-3.241l-2.719,1.39,1.848-2.289a24.536,24.536,0,0,0-3.666-2.975l-1,2.162.191-2.669a18.042,18.042,0,0,0-6.157-2.45,18.037,18.037,0,0,0,.541,6.6l2.607.6-2.358.322a24.506,24.506,0,0,0,1.771,4.376l2.731-1.095-2.125,2.192a28.115,28.115,0,0,0,2.344,3.411q.746.927,1.485,1.736l1.5-2.3-.7,3.155a29.81,29.81,0,0,0,4.358,3.7l1.138-1.783-.135,2.443a17.643,17.643,0,0,0,6.023,2.569A17.69,17.69,0,0,0,408.381,2757.262Z" fill="#00914b" opacity="0.4"/>
          <g id="그룹_41" data-name="그룹 41" opacity="0.4">
            <path id="패스_153" data-name="패스 153" d="M481.232,2823.217c1.064-1.482,1.777-2.379,1.8-2.413l-.106-.085c-.027.034-.749.943-1.826,2.443-1.6-4.132-5.421.192-5.421.192,2.754,1.736,4.3,1.011,5,.4-.6.845-1.274,1.835-1.991,2.934-1.46-3.523-5.009.575-5.009.575,2.429,1.484,3.8.888,4.48.25-.476.748-.962,1.539-1.446,2.361l-.018.016-.007,0c-2.3-3.208-5.151,1-5.151,1,2.7,1.289,4.138.377,4.775-.33-.538.935-1.068,1.906-1.575,2.9l-.01,0c-2.07-3.036-5.365,1.189-5.365,1.189,2.963,1.388,4.46.2,5.068-.583-.459.923-.894,1.862-1.291,2.8l-.019.008c-2.854-2.278-4.828,1.962-4.828,1.962a3.76,3.76,0,0,0,4.656-1.51c-.418,1.026-.788,2.053-1.1,3.066l-.018.011c-3.325-1.757-4.65,2.737-4.65,2.737a4.174,4.174,0,0,0,4.533-2.281c-.184.649-.339,1.291-.461,1.922-3.073,2.045-.947,5.948-.947,5.948,3.43-2.925,1.458-5.506,1.083-5.937q.183-.939.457-1.9c-.228,3.047,3.47,4,3.47,4a3.844,3.844,0,0,0-3.32-4.439l-.016-.022c.315-1.044.7-2.1,1.131-3.158-.1.8-.039,2.791,2.63,3.94,0,0,1.188-4.505-2.454-4.3v0h-.027c.394-.935.826-1.866,1.281-2.783-.131.759.084,2.13,2.517,3.572,0,0,1.626-5.165-2.193-4.215.537-1.049,1.1-2.074,1.672-3.059-.2.772-.184,2.324,2.529,3.574,0,0,1.476-5.381-2.222-4.1.555-.94,1.112-1.84,1.653-2.683-.226.734-.25,2.2,2.325,3.481,0,0,1.588-5-2-3.986.736-1.132,1.433-2.146,2.04-3-.294.778-.431,2.37,2.263,3.957C483.135,2827.677,485.44,2822.594,481.232,2823.217Z" fill="#00914b"/>
            <path id="패스_154" data-name="패스 154" d="M473.293,2836.916h0Z" fill="#00914b"/>
          </g>
        </g>
      </g>
    </g>
  </g>
</svg>
