<svg xmlns="http://www.w3.org/2000/svg" width="35.195" height="33.767" viewBox="0 0 35.195 33.767">
  <g id="그룹_15" data-name="그룹 15" transform="translate(-299.37 -486.672)">
    <g id="그룹_13" data-name="그룹 13">
      <g id="그룹_7" data-name="그룹 7">
        <path id="패스_44" data-name="패스 44" d="M319.265,500.632" fill="#39b54a" fill-rule="evenodd"/>
      </g>
      <g id="그룹_9" data-name="그룹 9">
        <g id="그룹_8" data-name="그룹 8">
          <path id="패스_45" data-name="패스 45" d="M321.143,502.862a12.541,12.541,0,0,1,2.054,4.486c.036.232.06.48.085.742l.033.331a13.319,13.319,0,0,1-1.042,5.486c-.048.115-.1.269-.213.577-.152.427-.287.791-.4,1.1-.936-1.989-2.2-2.736-4.077-3.846l-.414-.245a4.921,4.921,0,0,0-.483-.269c-.042-.02-.1-.048-.24-.12-.558-.288-.661-1.635-.352-2.5a2.562,2.562,0,0,1,.453-.844c.118-.12.265-.254.42-.4a10.132,10.132,0,0,0,1.468-1.584,8.322,8.322,0,0,0,.842-1.647c.1-.233.242-.577.323-.712.123-.112.251-.162.757-.269a2.748,2.748,0,0,0,.791-.3m.123-1.866c-.213,0-.409.163-.652.4a1.086,1.086,0,0,1-.574.294,2.7,2.7,0,0,0-1.547.716c-.407.408-.749,1.767-1.28,2.5a14.074,14.074,0,0,1-1.742,1.809,3.97,3.97,0,0,0-.793,1.385c-.481,1.337-.388,3.582,1.075,4.336a5.842,5.842,0,0,1,.644.345c2.486,1.478,3.519,1.951,4.376,4.689.155.493.357.934.974.943h0c.613,0,1.713-3.463,1.908-3.929a14.743,14.743,0,0,0,1.157-6.164c-.044-.4-.073-.8-.135-1.2a13.629,13.629,0,0,0-2.9-5.831.748.748,0,0,0-.514-.291Z" fill="#39b54a"/>
        </g>
      </g>
      <g id="그룹_10" data-name="그룹 10">
        <path id="패스_46" data-name="패스 46" d="M310.59,501.084a1.017,1.017,0,0,0-.5.127c.178.279.444.565.122.893a.46.46,0,0,1-.33.163c-.209,0-.4-.177-.6-.311a1.27,1.27,0,0,0,.6,1.617,1.336,1.336,0,0,0,1.628-2.053,1.214,1.214,0,0,0-.916-.436Z" fill="#39b54a"/>
      </g>
      <g id="그룹_11" data-name="그룹 11">
        <path id="패스_47" data-name="패스 47" d="M311.916,520.439h0a12.258,12.258,0,0,1-9.733-4.6l-.06-.07-.027-.031a2.944,2.944,0,0,1-1.733.415.75.75,0,0,1-.692-.81c0-.017,0-.032,0-.046a.966.966,0,0,1,.134-.538,3.711,3.711,0,0,0,.179-2.76c-.058-.319-.128-.647-.194-.964a16.922,16.922,0,0,1-.394-2.457,12.113,12.113,0,0,1,3.087-8.933,11.659,11.659,0,0,1,7.1-4.032,15.7,15.7,0,0,1,2.524-.213,11.306,11.306,0,0,1,7.584,2.763,4.314,4.314,0,0,1,.671.748,1.706,1.706,0,0,1,.38,1.46,1.734,1.734,0,0,1-1.065,1.1,6.216,6.216,0,0,1-.706.26,1.543,1.543,0,0,0-1.118,1.024,7.055,7.055,0,0,1-2.222,3.175,4.9,4.9,0,0,0-1.29,5.336,7.256,7.256,0,0,0,.617,1.291,1.47,1.47,0,0,1-.171,1.936,2.331,2.331,0,0,0-.462,2.621,2.246,2.246,0,0,0,.892,1.085,2.189,2.189,0,0,1,.681.63.75.75,0,0,1-.486,1.169c-.233.04-.464.087-.707.136a13.286,13.286,0,0,1-1.674.263C312.653,520.426,312.279,520.439,311.916,520.439ZM302.21,514.1a1.083,1.083,0,0,1,.913.523,2.009,2.009,0,0,0,.134.164l.072.085a10.684,10.684,0,0,0,8.587,4.062h0c.327,0,.665-.012,1-.036.235-.017.472-.05.713-.09a4,4,0,0,1,.037-5.322c.024-.027.041-.048.053-.064a.916.916,0,0,0-.046-.082,8.744,8.744,0,0,1-.747-1.558,6.427,6.427,0,0,1,1.722-6.995,5.513,5.513,0,0,0,1.773-2.5,3.041,3.041,0,0,1,2.1-1.988,4.89,4.89,0,0,0,.534-.2,1.1,1.1,0,0,0,.208-.117,1.123,1.123,0,0,0-.115-.186,2.933,2.933,0,0,0-.439-.5,9.716,9.716,0,0,0-6.606-2.4,14.219,14.219,0,0,0-2.283.194,10.193,10.193,0,0,0-6.2,3.532,10.657,10.657,0,0,0-2.727,7.857,15.81,15.81,0,0,0,.365,2.242c.069.327.14.664.2,1a6.715,6.715,0,0,1,.114,2.569A1.216,1.216,0,0,1,302.21,514.1Z" fill="#39b54a"/>
      </g>
      <g id="그룹_12" data-name="그룹 12">
        <path id="패스_48" data-name="패스 48" d="M310.511,505.878a3.473,3.473,0,1,1,3.473-3.473A3.477,3.477,0,0,1,310.511,505.878Zm0-5.446a1.973,1.973,0,1,0,1.973,1.973A1.975,1.975,0,0,0,310.511,500.432Z" fill="#39b54a"/>
      </g>
    </g>
    <g id="그룹_14" data-name="그룹 14">
      <line id="선_1" data-name="선 1" y2="13.208" transform="translate(326.898 487.672)" fill="none" stroke="#39b54a" stroke-linecap="round" stroke-linejoin="round" stroke-width="2"/>
      <line id="선_2" data-name="선 2" x2="13.208" transform="translate(320.356 494.214)" fill="none" stroke="#39b54a" stroke-linecap="round" stroke-linejoin="round" stroke-width="2"/>
    </g>
  </g>
</svg>
