<svg xmlns="http://www.w3.org/2000/svg" width="27.485" height="27.262" viewBox="0 0 27.485 27.262">
  <g id="그룹_54" data-name="그룹 54" transform="translate(-81.595 -4127.933)">
    <g id="그룹_51" data-name="그룹 51">
      <path id="패스_194" data-name="패스 194" d="M89.748,4134.378a2.526,2.526,0,0,1,1.56.4,1.458,1.458,0,0,1,.51,1.227v.109a1.742,1.742,0,0,1-.054.438,1.212,1.212,0,0,1-.178.388,1.236,1.236,0,0,1-.319.31,1.537,1.537,0,0,1-.489.206,2.149,2.149,0,0,1,.548.154,1.311,1.311,0,0,1,.424.3,1.267,1.267,0,0,1,.273.447,1.773,1.773,0,0,1,.1.616v.146a1.646,1.646,0,0,1-.512,1.29,2.3,2.3,0,0,1-1.577.46H87.969a.858.858,0,0,1-.606-.164.812.812,0,0,1-.169-.593v-4.971a.817.817,0,0,1,.169-.593.868.868,0,0,1,.606-.163Zm-1.4,2.636H89.3a4.421,4.421,0,0,0,.661-.042,1.047,1.047,0,0,0,.411-.141.494.494,0,0,0,.205-.265,1.361,1.361,0,0,0,.055-.42v-.082a.567.567,0,0,0-.324-.579,2.912,2.912,0,0,0-1.063-.141h-.894Zm0,2.881h1.059c.255,0,.479-.008.67-.027a1.288,1.288,0,0,0,.474-.123.609.609,0,0,0,.278-.278,1.077,1.077,0,0,0,.092-.483v-.119a1.037,1.037,0,0,0-.073-.4.593.593,0,0,0-.256-.282,1.441,1.441,0,0,0-.492-.165,4.526,4.526,0,0,0-.776-.055h-.976Z" fill="#b3b3b3"/>
      <path id="패스_195" data-name="패스 195" d="M93.2,4134.094a.692.692,0,0,1,.4.12.421.421,0,0,1,.173.373v5.838a.424.424,0,0,1-.173.375.748.748,0,0,1-.8,0,.424.424,0,0,1-.173-.375v-5.838a.421.421,0,0,1,.173-.373A.688.688,0,0,1,93.2,4134.094Z" fill="#b3b3b3"/>
      <path id="패스_196" data-name="패스 196" d="M96.681,4135.909a2.369,2.369,0,0,1,1.732.608,2.4,2.4,0,0,1,.621,1.793v.227a2.4,2.4,0,0,1-.621,1.792,2.778,2.778,0,0,1-3.466,0,2.4,2.4,0,0,1-.62-1.792v-.227a2.145,2.145,0,0,1,2.354-2.4Zm0,1a1.128,1.128,0,0,0-.908.338,1.641,1.641,0,0,0-.288,1.076v.191a1.642,1.642,0,0,0,.288,1.077,1.388,1.388,0,0,0,1.815,0,1.648,1.648,0,0,0,.287-1.077v-.191a1.647,1.647,0,0,0-.287-1.076A1.128,1.128,0,0,0,96.681,4136.913Z" fill="#b3b3b3"/>
      <path id="패스_197" data-name="패스 197" d="M101.333,4135.909a2.294,2.294,0,0,1,.52.055,1.984,1.984,0,0,1,.4.137,1.3,1.3,0,0,1,.278.178.888.888,0,0,1,.164.178h.009v-.028a.393.393,0,0,1,.169-.35.678.678,0,0,1,.388-.115.663.663,0,0,1,.379.115.393.393,0,0,1,.168.35v4.3a1.992,1.992,0,0,1-.575,1.564,2.664,2.664,0,0,1-1.814.516,3,3,0,0,1-.785-.1,2.838,2.838,0,0,1-.639-.251.4.4,0,0,1-.21-.306.59.59,0,0,1,.073-.377.575.575,0,0,1,.265-.257.445.445,0,0,1,.365.037,2.48,2.48,0,0,0,.442.182,1.672,1.672,0,0,0,.507.082,1.441,1.441,0,0,0,.925-.255,1.02,1.02,0,0,0,.315-.839v-.566h-.018a1.1,1.1,0,0,1-.575.511,2.277,2.277,0,0,1-.83.147,1.755,1.755,0,0,1-1.446-.6,2.727,2.727,0,0,1-.488-1.752v-.182a2.511,2.511,0,0,1,.553-1.765A1.9,1.9,0,0,1,101.333,4135.909Zm.191.986a.934.934,0,0,0-.808.36,1.776,1.776,0,0,0-.26,1.045v.127a1.856,1.856,0,0,0,.243,1.058.879.879,0,0,0,.78.347,1.285,1.285,0,0,0,.505-.1,1.054,1.054,0,0,0,.374-.265,1.2,1.2,0,0,0,.233-.393,1.368,1.368,0,0,0,.082-.478v-.711a.966.966,0,0,0-.069-.352.884.884,0,0,0-.209-.319,1.1,1.1,0,0,0-.356-.233A1.306,1.306,0,0,0,101.524,4136.9Z" fill="#b3b3b3"/>
    </g>
    <g id="그룹_53" data-name="그룹 53">
      <g id="그룹_52" data-name="그룹 52">
        <path id="패스_198" data-name="패스 198" d="M109.07,4133.455a5.423,5.423,0,0,0-5.534-5.519c-2.728-.006-5.457,0-8.185,0q-4.059,0-8.118,0a5.4,5.4,0,0,0-5.605,5.447q-.066,8.184,0,16.37a5.4,5.4,0,0,0,5.5,5.427q8.217.03,16.437,0a5.441,5.441,0,0,0,5.508-5.556Q109.088,4141.539,109.07,4133.455Zm-1.98,8.769a3.693,3.693,0,0,1-3.928,3.962c-1.565.009-3.131.02-4.695-.008a.951.951,0,0,0-.963.543c-.465.815-.967,1.609-1.471,2.4-.447.7-.929.7-1.378-.006-.516-.81-1.028-1.626-1.508-2.458a.856.856,0,0,0-.861-.478c-1.588.021-3.175.015-4.763.006a3.709,3.709,0,0,1-3.931-3.9q-.017-4.195,0-8.385a3.688,3.688,0,0,1,3.875-3.888c2.638-.026,5.277-.005,7.915-.006,2.549,0,5.1-.006,7.647,0a3.715,3.715,0,0,1,4.061,4.033Q107.1,4138.132,107.09,4142.224Z" fill="#b3b3b3"/>
      </g>
    </g>
  </g>
</svg>
