<svg xmlns="http://www.w3.org/2000/svg" width="19.867" height="20.391" viewBox="0 0 19.867 20.391">
  <g id="그룹_6" data-name="그룹 6" transform="translate(-323.891 -23.801)">
    <path id="패스_40" data-name="패스 40" d="M326.692,38.62c0-2.022,0-3.983,0-5.944a7.33,7.33,0,0,1,.971-3.736,7.116,7.116,0,0,1,13.181,2.489,8.767,8.767,0,0,1,.091,1.365c.009,1.921,0,3.842,0,5.828.453,0,.891-.015,1.328,0a.7.7,0,0,1,.708.6.609.609,0,0,1-.386.718,1.577,1.577,0,0,1-.591.087c-2.714.014-5.427.028-8.141.028-2.741,0-5.481-.016-8.222-.025a2.624,2.624,0,0,1-.281-.007.707.707,0,0,1-.712-.72.746.746,0,0,1,.761-.683C325.815,38.609,326.229,38.62,326.692,38.62Zm12.833-.021c0-2.129.055-4.212-.012-6.291a5.721,5.721,0,0,0-6.246-5.475,5.653,5.653,0,0,0-5.132,5.35c-.061,2.054-.031,4.111-.041,6.166a2.358,2.358,0,0,0,.027.25Z" fill="#333" fill-rule="evenodd"/>
    <path id="패스_41" data-name="패스 41" d="M343.758,30.242c0,.464-.219.741-.565.8a.7.7,0,0,1-.809-.5c-.164-.482-.285-.981-.475-1.451a8.412,8.412,0,0,0-3.087-3.83,2.881,2.881,0,0,1-.258-.192.721.721,0,0,1-.143-.975.66.66,0,0,1,.964-.141,16.718,16.718,0,0,1,1.957,1.665,9.867,9.867,0,0,1,2.32,4.23C343.7,30,343.738,30.157,343.758,30.242Z" fill="#333" fill-rule="evenodd"/>
    <path id="패스_42" data-name="패스 42" d="M329.46,24.52a3.3,3.3,0,0,1-.53.64,8.8,8.8,0,0,0-3.627,5.192c-.139.547-.479.788-.909.682s-.6-.457-.457-1a10.1,10.1,0,0,1,4.284-6.066.62.62,0,0,1,.783-.046A3.409,3.409,0,0,1,329.46,24.52Z" fill="#333" fill-rule="evenodd"/>
    <path id="패스_43" data-name="패스 43" d="M333.866,44.192a2.861,2.861,0,0,1-2.829-2.645c-.013-.519.213-.816.646-.852.417-.034.653.195.739.709a1.411,1.411,0,0,0,1.062,1.315,1.3,1.3,0,0,0,1.444-.452,2.275,2.275,0,0,0,.322-.845c.119-.52.387-.773.839-.724.4.044.614.385.575.9A2.834,2.834,0,0,1,333.866,44.192Z" fill="#333" fill-rule="evenodd"/>
  </g>
</svg>
