<svg xmlns="http://www.w3.org/2000/svg" width="36.107" height="24.993" viewBox="0 0 36.107 24.993">
  <g id="그룹_55" data-name="그룹 55" transform="translate(-161.939 -4129.068)">
    <path id="패스_199" data-name="패스 199" d="M198.046,4139.349c-.1-.815-.1-1.638-.137-2.457a16.4,16.4,0,0,0-.426-3.913,4.6,4.6,0,0,0-3.52-3.408,14.992,14.992,0,0,0-3.186-.347c-3.146-.054-6.292-.159-9.439-.143H178.1c-2.3-.051-4.6.059-6.893.084-1.179.013-2.364.013-3.54.129a7.066,7.066,0,0,0-2.519.62,5.276,5.276,0,0,0-3.019,4.973,34.922,34.922,0,0,1-.191,3.657v.94a27.737,27.737,0,0,1,0,4.295v.94c.16,1.148.146,2.307.191,3.461a5.459,5.459,0,0,0,1.853,4.281,6.163,6.163,0,0,0,3.773,1.373c3.233.164,6.471.221,9.708.214h4.806c2.209.048,4.415-.051,6.621-.088a30.641,30.641,0,0,0,4.264-.237,5.179,5.179,0,0,0,4.515-4.294,15,15,0,0,0,.175-1.66c.1-1.193.027-2.4.2-3.586v-.941a13.255,13.255,0,0,1,0-2.953Zm-21.463,7.72v-11.008c3,1.842,5.932,3.645,8.955,5.5Z" fill="#b3b3b3"/>
  </g>
</svg>
