<svg xmlns="http://www.w3.org/2000/svg" width="27.515" height="27.515" viewBox="0 0 27.515 27.515">
  <g id="그룹_56" data-name="그룹 56" transform="translate(-250.89 -4127.214)">
    <path id="패스_200" data-name="패스 200" d="M272.324,4154.4a7.224,7.224,0,0,0,5.854-6.289,2.092,2.092,0,0,1,.227-1.085V4135.04a6.829,6.829,0,0,1-.277-1.508,7.383,7.383,0,0,0-7.251-6.2c-.142-.007-.333.1-.421-.117h-11.74a.326.326,0,0,1-.183.069,11.934,11.934,0,0,1-1.325.207c-3.62.72-5.663,3.035-6.188,7.009-.019.139.091.336-.13.419v12.106a.286.286,0,0,1,.063.139,8.543,8.543,0,0,1,.268,1.485,7.225,7.225,0,0,0,6.288,5.855,2.1,2.1,0,0,1,1.085.226h11.862a.469.469,0,0,1,.218-.073C271.211,4154.5,271.778,4154.516,272.324,4154.4Zm-7.648-2.137c-1.955.008-3.908-.022-5.862-.1a5.13,5.13,0,0,1-5.349-5.356q-.229-5.832,0-11.662a5.123,5.123,0,0,1,5.353-5.35q5.832-.229,11.663,0a5.124,5.124,0,0,1,5.35,5.354q.228,5.83,0,11.663a5.129,5.129,0,0,1-5.353,5.351Q267.576,4152.277,264.676,4152.261Z" fill="#b3b3b3"/>
    <path id="패스_201" data-name="패스 201" d="M264.651,4133.919a7.052,7.052,0,1,0,7.048,7.057A7.014,7.014,0,0,0,264.651,4133.919Zm.029,11.635a4.582,4.582,0,1,1,4.549-4.6A4.583,4.583,0,0,1,264.68,4145.554Z" fill="#b3b3b3"/>
    <path id="패스_202" data-name="패스 202" d="M271.965,4135.285a1.653,1.653,0,1,0-1.631-1.631A1.66,1.66,0,0,0,271.965,4135.285Z" fill="#b3b3b3"/>
  </g>
</svg>
