<svg xmlns="http://www.w3.org/2000/svg" width="132.295" height="47.576" viewBox="0 0 132.295 47.576">
  <g id="그룹_50" data-name="그룹 50" transform="translate(-113.046 -3929.895)">
    <g id="그룹_46" data-name="그룹 46">
      <path id="패스_155" data-name="패스 155" d="M170.713,3938.9a.87.87,0,0,1-.77-.361,1.61,1.61,0,0,1,0-1.72.871.871,0,0,1,.77-.362h6.742a2.154,2.154,0,0,1,1.505.407,2.031,2.031,0,0,1,.418,1.471v4.208a2.029,2.029,0,0,1-.418,1.471,2.154,2.154,0,0,1-1.505.408h-4.367a.459.459,0,0,0-.52.519v2.241a.459.459,0,0,0,.52.52q2.127,0,3.915-.1t3.439-.328a.914.914,0,0,1,.825.25,1.262,1.262,0,0,1,.351.791,1.811,1.811,0,0,1-.135.917.808.808,0,0,1-.679.462q-.7.092-1.561.171t-1.958.147q-1.1.069-2.488.1t-3.156.036a2.151,2.151,0,0,1-1.505-.408,2.022,2.022,0,0,1-.419-1.47v-4.322a2.023,2.023,0,0,1,.419-1.471,2.156,2.156,0,0,1,1.505-.407h4.366a.459.459,0,0,0,.521-.519v-2.127a.461.461,0,0,0-.521-.522Zm15.159,14.73a1.034,1.034,0,0,1-.441.927,1.807,1.807,0,0,1-1.03.294,1.761,1.761,0,0,1-1.006-.294,1.035,1.035,0,0,1-.442-.927v-17.332a1.037,1.037,0,0,1,.442-.927,1.776,1.776,0,0,1,1.006-.294,1.822,1.822,0,0,1,1.03.294,1.036,1.036,0,0,1,.441.927Z" fill="#888"/>
      <path id="패스_156" data-name="패스 156" d="M189.017,3952.991a.871.871,0,0,1-.77-.361,1.481,1.481,0,0,1-.249-.862,1.521,1.521,0,0,1,.249-.881.871.871,0,0,1,.77-.363h17.1a.871.871,0,0,1,.769.363,1.521,1.521,0,0,1,.249.881,1.481,1.481,0,0,1-.249.862.871.871,0,0,1-.769.361Zm15.136-16.471a.855.855,0,0,1,.758.35,1.637,1.637,0,0,1,0,1.7.849.849,0,0,1-.758.352h-1.834v5.769h1.924a.85.85,0,0,1,.758.35,1.632,1.632,0,0,1,0,1.7.847.847,0,0,1-.758.351H190.9a.848.848,0,0,1-.759-.351,1.632,1.632,0,0,1,0-1.7.851.851,0,0,1,.759-.35h1.922v-5.769h-1.832a.847.847,0,0,1-.758-.352,1.631,1.631,0,0,1,0-1.7.852.852,0,0,1,.758-.35Zm-8.53,8.168h3.892v-5.769h-3.892Z" fill="#888"/>
      <path id="패스_157" data-name="패스 157" d="M207.5,3937.99a1.4,1.4,0,0,1,.249-.813.868.868,0,0,1,.769-.363h7.964a.868.868,0,0,1,.769.363,1.455,1.455,0,0,1,0,1.628.87.87,0,0,1-.769.363h-.429v7.873l.61-.067a.9.9,0,0,1,.815.237,1.241,1.241,0,0,1,.339.757,1.594,1.594,0,0,1-.158.883.781.781,0,0,1-.656.453q-1.019.112-1.981.18t-1.979.1q-1.019.033-2.149.034h-2.511a.872.872,0,0,1-.77-.361,1.457,1.457,0,0,1,0-1.629.87.87,0,0,1,.77-.363h.814v-8.1h-.679a.87.87,0,0,1-.769-.363A1.4,1.4,0,0,1,207.5,3937.99Zm4.254,9.277h.882a8.215,8.215,0,0,0,.859-.044v-8.055h-1.741Zm9.411-2.941v8.44a.957.957,0,0,1-.407.859,1.652,1.652,0,0,1-1.81,0,.959.959,0,0,1-.407-.859V3936.43a.963.963,0,0,1,.407-.861,1.647,1.647,0,0,1,1.81,0,.961.961,0,0,1,.407.861v5.452h1.63V3936.2a.955.955,0,0,1,.407-.86,1.6,1.6,0,0,1,.9-.272,1.632,1.632,0,0,1,.927.272.955.955,0,0,1,.407.86v17.512a.957.957,0,0,1-.407.859,1.629,1.629,0,0,1-.927.271,1.6,1.6,0,0,1-.9-.271.957.957,0,0,1-.407-.859v-9.39Z" fill="#888"/>
      <path id="패스_158" data-name="패스 158" d="M230.782,3944.28a.46.46,0,0,0,.52.522q1.923,0,3.654-.092t3.315-.317a.923.923,0,0,1,.826.25,1.253,1.253,0,0,1,.35.769,1.731,1.731,0,0,1-.135.893.809.809,0,0,1-.679.464q-.657.092-1.493.17t-1.9.136q-1.063.057-2.387.09t-2.975.034a2.15,2.15,0,0,1-1.5-.407,2.025,2.025,0,0,1-.419-1.471v-2.941a2.026,2.026,0,0,1,.419-1.471,2.15,2.15,0,0,1,1.5-.407h3.982a.46.46,0,0,0,.52-.52v-.974a.46.46,0,0,0-.52-.52H228.9a.813.813,0,0,1-.747-.361,1.671,1.671,0,0,1,0-1.675.811.811,0,0,1,.747-.361h6.38a2.145,2.145,0,0,1,1.5.407,2.02,2.02,0,0,1,.419,1.47v2.92a2.018,2.018,0,0,1-.419,1.469,2.144,2.144,0,0,1-1.5.408H231.3a.459.459,0,0,0-.52.52Zm8.19,5.477a1.755,1.755,0,0,0,.532,1.311,5.57,5.57,0,0,0,1.55.995q1.019.477,1.878.849t1.719.713a.785.785,0,0,1,.5.656,1.683,1.683,0,0,1-.113.9,1.325,1.325,0,0,1-.645.668,1.15,1.15,0,0,1-.962.012c-.452-.18-.908-.37-1.368-.566s-.955-.422-1.482-.679c-.559-.257-1.023-.489-1.392-.7a7.082,7.082,0,0,1-.894-.588,2.994,2.994,0,0,1-.509-.5,1.554,1.554,0,0,1-.238-.43h-.022a1.514,1.514,0,0,1-.238.487,2.488,2.488,0,0,1-.52.508,8.1,8.1,0,0,1-.905.589c-.369.211-.834.444-1.391.7q-.794.384-1.482.678t-1.369.567a1.154,1.154,0,0,1-.962-.012,1.325,1.325,0,0,1-.644-.666,1.632,1.632,0,0,1-.124-.951.817.817,0,0,1,.508-.679q.859-.341,1.72-.713t1.878-.849a5.578,5.578,0,0,0,1.549-.995,1.755,1.755,0,0,0,.532-1.311v-.612a1.036,1.036,0,0,1,.441-.927,1.867,1.867,0,0,1,2.014,0,1.034,1.034,0,0,1,.441.927Zm2.534-7.422h-2.217a.893.893,0,0,1-.792-.362,1.688,1.688,0,0,1,0-1.765.893.893,0,0,1,.792-.361h2.217v-3.554a1.036,1.036,0,0,1,.441-.927,1.782,1.782,0,0,1,1.008-.294,1.739,1.739,0,0,1,.983.294,1.035,1.035,0,0,1,.442.927v11.561a1.034,1.034,0,0,1-.442.929,1.731,1.731,0,0,1-.983.294,1.775,1.775,0,0,1-1.008-.294,1.035,1.035,0,0,1-.441-.929Z" fill="#888"/>
    </g>
    <g id="그룹_47" data-name="그룹 47">
      <path id="패스_159" data-name="패스 159" d="M172.291,3959.8a1.158,1.158,0,0,1,.668.193.7.7,0,0,1,.282.624v8.226h4.306a.573.573,0,0,1,.505.237,1.059,1.059,0,0,1,0,1.129.569.569,0,0,1-.505.238H172.6a1.422,1.422,0,0,1-.988-.267,1.34,1.34,0,0,1-.274-.966v-8.6a.7.7,0,0,1,.282-.624A1.156,1.156,0,0,1,172.291,3959.8Z" fill="#888"/>
      <path id="패스_160" data-name="패스 160" d="M179.686,3959.8a1.158,1.158,0,0,1,.668.193.706.706,0,0,1,.282.624v9.1a.7.7,0,0,1-.282.623,1.254,1.254,0,0,1-1.337,0,.7.7,0,0,1-.282-.623v-9.1a.7.7,0,0,1,.282-.624A1.159,1.159,0,0,1,179.686,3959.8Z" fill="#888"/>
      <path id="패스_161" data-name="패스 161" d="M186.189,3959.892a5.27,5.27,0,0,1,1.655.23,3.074,3.074,0,0,1,1.135.639,2.505,2.505,0,0,1,.662.971,3.407,3.407,0,0,1,.215,1.218v.207a3.442,3.442,0,0,1-.223,1.24,2.74,2.74,0,0,1-.683,1.025,3.362,3.362,0,0,1-1.142.7,4.562,4.562,0,0,1-1.619.26H184.05v3.342a.7.7,0,0,1-.281.623,1.254,1.254,0,0,1-1.337,0,.7.7,0,0,1-.283-.623v-8.6a1.333,1.333,0,0,1,.276-.966,1.4,1.4,0,0,1,.987-.267Zm-2.139,4.883h1.887a2.619,2.619,0,0,0,1.469-.355,1.435,1.435,0,0,0,.534-1.291v-.164a1.721,1.721,0,0,0-.132-.727,1.137,1.137,0,0,0-.379-.453,1.537,1.537,0,0,0-.588-.238,3.879,3.879,0,0,0-.741-.067h-2.05Z" fill="#888"/>
      <path id="패스_162" data-name="패스 162" d="M197.562,3959.892a5.265,5.265,0,0,1,1.655.23,3.1,3.1,0,0,1,1.137.639,2.522,2.522,0,0,1,.66.971,3.385,3.385,0,0,1,.215,1.218v.207a3.442,3.442,0,0,1-.223,1.24,2.728,2.728,0,0,1-.683,1.025,3.367,3.367,0,0,1-1.143.7,4.552,4.552,0,0,1-1.618.26h-2.138v3.342a.7.7,0,0,1-.282.623,1.254,1.254,0,0,1-1.337,0,.7.7,0,0,1-.282-.623v-8.6a1.334,1.334,0,0,1,.274-.966,1.407,1.407,0,0,1,.988-.267Zm-2.138,4.883h1.886a2.619,2.619,0,0,0,1.469-.355,1.436,1.436,0,0,0,.535-1.291v-.164a1.689,1.689,0,0,0-.134-.727,1.121,1.121,0,0,0-.379-.453,1.515,1.515,0,0,0-.586-.238,3.9,3.9,0,0,0-.742-.067h-2.049Z" fill="#888"/>
      <path id="패스_163" data-name="패스 163" d="M205.179,3959.8a1.234,1.234,0,0,1,.668.177,1.445,1.445,0,0,1,.49.7l3.34,8.61a.83.83,0,0,1-.534,1.175,1.326,1.326,0,0,1-.735.028.769.769,0,0,1-.528-.563l-.86-2.376h-3.743l-.875,2.434a.736.736,0,0,1-.5.513,1.234,1.234,0,0,1-.691-.036.9.9,0,0,1-.52-.4.777.777,0,0,1,0-.7l3.341-8.685a1.344,1.344,0,0,1,.484-.7A1.235,1.235,0,0,1,205.179,3959.8Zm-.03,2.376c-.08.3-.156.561-.23.795s-.171.516-.29.853l-.787,2.153h2.614l-.772-2.153c-.129-.346-.231-.644-.305-.891S205.228,3962.435,205.149,3962.178Z" fill="#888"/>
      <path id="패스_164" data-name="패스 164" d="M214.681,3959.892a3.68,3.68,0,0,1,2.569.824,2.85,2.85,0,0,1,.9,2.219v.268a2.847,2.847,0,0,1-.482,1.7,2.958,2.958,0,0,1-1.315,1.019l1.871,3.309a.8.8,0,0,1,.083.7.887.887,0,0,1-.469.49,1.252,1.252,0,0,1-.7.119.7.7,0,0,1-.549-.432l-2.034-3.889a.934.934,0,0,1-.164.014h-1.871v3.491a.7.7,0,0,1-.282.623,1.252,1.252,0,0,1-1.336,0,.7.7,0,0,1-.282-.623v-8.6a1.334,1.334,0,0,1,.274-.966,1.4,1.4,0,0,1,.987-.267Zm-2.153,4.751h1.737a2.489,2.489,0,0,0,1.545-.372,1.328,1.328,0,0,0,.46-1.1v-.194a1.4,1.4,0,0,0-.438-1.12,2.121,2.121,0,0,0-1.4-.379h-1.9Z" fill="#888"/>
      <path id="패스_165" data-name="패스 165" d="M223.59,3959.892a3.679,3.679,0,0,1,2.568.824,2.851,2.851,0,0,1,.906,2.219v.268a2.847,2.847,0,0,1-.483,1.7,2.957,2.957,0,0,1-1.313,1.019l1.87,3.309a.8.8,0,0,1,.082.7.892.892,0,0,1-.468.49,1.255,1.255,0,0,1-.7.119.7.7,0,0,1-.55-.432l-2.034-3.889a.906.906,0,0,1-.163.014h-1.871v3.491a.7.7,0,0,1-.282.623,1.254,1.254,0,0,1-1.337,0,.7.7,0,0,1-.282-.623v-8.6a1.334,1.334,0,0,1,.275-.966,1.4,1.4,0,0,1,.987-.267Zm-2.153,4.751h1.737a2.486,2.486,0,0,0,1.544-.372,1.328,1.328,0,0,0,.46-1.1v-.194a1.4,1.4,0,0,0-.438-1.12,2.121,2.121,0,0,0-1.4-.379h-1.9Z" fill="#888"/>
      <path id="패스_166" data-name="패스 166" d="M232.588,3959.728a5.832,5.832,0,0,1,1.929.3,3.512,3.512,0,0,1,1.426.921,4.122,4.122,0,0,1,.883,1.6,7.81,7.81,0,0,1,.3,2.322v.609a7.841,7.841,0,0,1-.3,2.325,4.1,4.1,0,0,1-.883,1.594,3.459,3.459,0,0,1-1.426.921,6.4,6.4,0,0,1-3.86,0,3.473,3.473,0,0,1-1.426-.921,4.11,4.11,0,0,1-.883-1.594,7.843,7.843,0,0,1-.3-2.325v-.609a7.812,7.812,0,0,1,.3-2.322,4.134,4.134,0,0,1,.883-1.6,3.525,3.525,0,0,1,1.426-.921A5.841,5.841,0,0,1,232.588,3959.728Zm0,1.738a3.338,3.338,0,0,0-1.144.177,1.892,1.892,0,0,0-.824.586,2.69,2.69,0,0,0-.5,1.092,7.417,7.417,0,0,0-.164,1.694v.31a7.4,7.4,0,0,0,.164,1.693,2.66,2.66,0,0,0,.5,1.091,1.871,1.871,0,0,0,.824.587,3.762,3.762,0,0,0,2.287,0,1.871,1.871,0,0,0,.824-.587,2.686,2.686,0,0,0,.5-1.091,7.411,7.411,0,0,0,.163-1.693v-.31a7.424,7.424,0,0,0-.163-1.694,2.717,2.717,0,0,0-.5-1.092,1.892,1.892,0,0,0-.824-.586A3.336,3.336,0,0,0,232.588,3961.466Z" fill="#888"/>
      <path id="패스_167" data-name="패스 167" d="M244.673,3959.892a.576.576,0,0,1,.5.236.979.979,0,0,1,.163.565.966.966,0,0,1-.163.564.57.57,0,0,1-.5.238H242.12v8.227a.7.7,0,0,1-.283.623,1.252,1.252,0,0,1-1.336,0,.7.7,0,0,1-.282-.623V3961.5H237.65a.568.568,0,0,1-.5-.238.96.96,0,0,1-.164-.564.972.972,0,0,1,.164-.565.573.573,0,0,1,.5-.236Z" fill="#888"/>
    </g>
    <g id="그룹_48" data-name="그룹 48">
      <path id="패스_168" data-name="패스 168" d="M120.93,3967.385c.274-.117.544-.239.809-.364l.147-.068c.26-.125.515-.252.766-.383l.128-.068c.259-.138.514-.279.762-.425l.036-.021q.366-.216.717-.443l.1-.063c.229-.152.453-.306.674-.463l.125-.092c.218-.158.431-.319.639-.485l.1-.081c.214-.174.428-.353.633-.536a15.265,15.265,0,0,0,5.1-9.66c.684-5.148,2.769-9.151,6.2-11.9a14.8,14.8,0,0,1,3.969-2.284c.136-.051.259-.1.371-.132l.034-.013.221-.072c.174-.053.3-.086.358-.1a.712.712,0,0,0,.112-.025c.131-.037.262-.074.394-.107l.191-.047c.066-.015.132-.032.2-.045.086-.021.172-.037.258-.055l.126-.025c.1-.019.2-.035.3-.053.025,0,.05-.008.075-.012.113-.017.226-.033.34-.047a.179.179,0,0,1,.033,0,12.138,12.138,0,0,1,1.5-.1c.041,0,.081,0,.121,0,.137,0,.274,0,.411.01.065,0,.131.006.2.011.167.009.333.021.5.037l.151.018c.162.018.322.039.482.064l.073.01c.183.029.364.065.545.1.038.007.076.015.114.025s.068.013.1.022h0a6.585,6.585,0,0,1,2.525-.944.945.945,0,0,1,.409.039.358.358,0,0,0,.039.014,13.921,13.921,0,0,0-9.523-.658l-.008,0a15.141,15.141,0,0,0-5.66,2.9c-2.643,2.094-5.992,6.071-6.929,13.122-.03.23-.066.456-.1.68-.014.074-.03.148-.045.222-.028.146-.056.291-.088.434-.019.086-.042.17-.063.256-.031.127-.06.254-.094.379-.024.089-.052.175-.079.264-.033.117-.067.233-.1.347-.03.089-.062.178-.091.265-.039.11-.076.218-.116.326-.032.088-.068.175-.1.263s-.081.2-.125.306c-.036.086-.076.171-.114.256s-.089.2-.135.294-.083.165-.125.249-.1.188-.145.279-.09.162-.135.243-.1.178-.154.265l-.144.236c-.054.084-.108.17-.163.254s-.1.151-.154.227-.113.162-.171.242-.108.147-.162.22-.119.155-.179.231-.113.141-.169.211-.124.149-.187.223-.117.136-.176.2l-.195.213c-.06.065-.121.13-.183.193s-.133.138-.2.205-.125.123-.188.185-.138.132-.208.194l-.193.178c-.071.063-.143.125-.215.187s-.13.113-.2.167-.147.121-.221.179-.132.109-.2.159-.152.117-.227.173-.134.1-.2.152l-.237.166-.2.139c-.082.056-.166.112-.249.164l-.194.128-.279.173c-.056.034-.112.07-.169.1-.148.089-.3.175-.447.259-.054.03-.108.06-.163.089-.1.054-.194.109-.292.16-.066.035-.133.068-.2.1l-.259.134-.21.1-.249.119c-.071.034-.143.065-.214.1s-.164.076-.246.111-.142.062-.213.092-.164.072-.246.106l-.022.008a41.186,41.186,0,0,1,.319-7.359c.181.014.383.023.6.023,1.985,0,5.391-.735,7.138-5.369a.9.9,0,1,0-1.677-.631c-1.5,3.974-4.406,4.3-5.786,4.214.029-.156.057-.31.088-.466a29.662,29.662,0,0,1,3.909-10.262,3.563,3.563,0,0,0,2,.712c.065,0,.13.005.2.005,1.733,0,3.621-1.122,5.615-3.341a.9.9,0,1,0-1.332-1.2c-2.083,2.316-3.521,2.772-4.352,2.746a1.784,1.784,0,0,1-1.105-.407,22.551,22.551,0,0,1,6.583-5.948,15.438,15.438,0,0,1,2.147-1.037,3.468,3.468,0,0,0,3.041,1.72,4.943,4.943,0,0,0,1.445-.23.9.9,0,1,0-.518-1.714,1.983,1.983,0,0,1-2.21-.4,17.163,17.163,0,0,1,5.244-.884.9.9,0,0,0,.056-1.791,18.486,18.486,0,0,0-5.507.868,1.794,1.794,0,0,1,1.491-1.2.9.9,0,0,0-.355-1.757,3.546,3.546,0,0,0-3.024,3.6,17.872,17.872,0,0,0-2.731,1.291,24.311,24.311,0,0,0-6.9,6.2c-.215-1.124-.078-3.08,2.426-5.138a.9.9,0,0,0-1.138-1.385c-4.6,3.783-2.88,7.668-2.54,8.325a31.462,31.462,0,0,0-4.192,10.88l-.005.03c-.878-.854-1.8-2.567-.616-5.685a.9.9,0,1,0-1.674-.635c-1.9,5,.65,7.435,1.957,8.3a42.726,42.726,0,0,0-.4,7.554,21.989,21.989,0,0,1,35.109-26.264,11.656,11.656,0,0,1,5.458,5.525c.116.232.222.468.323.7a23.79,23.79,0,1,0-5.346,24.96,14.86,14.86,0,0,0,1.516-1.612.912.912,0,0,1-.389.091.94.94,0,0,1-.326-.061.9.9,0,0,1-.558-.688c-.017-.1-.042-.28-.076-.529a12.2,12.2,0,0,1-1.395,1.494l-.034.034a21.918,21.918,0,0,1-32.387-1.169c-.035-.042-.114-.149-.114-.149Z" fill="#888"/>
      <path id="패스_169" data-name="패스 169" d="M142.2,3944.2a4.363,4.363,0,1,0,4.363,4.363A4.367,4.367,0,0,0,142.2,3944.2Zm0,6.934a2.571,2.571,0,1,1,2.571-2.571A2.574,2.574,0,0,1,142.2,3951.131Z" fill="#888"/>
      <path id="패스_170" data-name="패스 170" d="M141.622,3946.906c.244.387.613.782.167,1.237-.477.487-.874.074-1.293-.205a1.761,1.761,0,0,0,.828,2.24,1.816,1.816,0,0,0,2.275-.476,1.84,1.84,0,0,0-.02-2.369A1.59,1.59,0,0,0,141.622,3946.906Z" fill="#888"/>
    </g>
    <g id="그룹_49" data-name="그룹 49">
      <path id="패스_171" data-name="패스 171" d="M157.218,3945.509c.07.142.136.285.2.427C157.354,3945.794,157.288,3945.651,157.218,3945.509Z" fill="#888"/>
      <path id="패스_172" data-name="패스 172" d="M156.2,3943.818a9.6,9.6,0,0,0-1.617-1.735A9.878,9.878,0,0,1,156.2,3943.818Z" fill="#888"/>
      <path id="패스_173" data-name="패스 173" d="M156.586,3944.379c-.025-.039-.052-.078-.078-.116a11.743,11.743,0,0,1,.7,1.231A11.4,11.4,0,0,0,156.586,3944.379Z" fill="#888"/>
      <path id="패스_174" data-name="패스 174" d="M156.25,3943.886c.081.113.159.226.235.34C156.409,3944.112,156.331,3944,156.25,3943.886Z" fill="#888"/>
      <path id="패스_175" data-name="패스 175" d="M153.705,3941.428c.016.01.03.022.046.032Z" fill="#888"/>
      <path id="패스_176" data-name="패스 176" d="M155.007,3962.113c-.027-.157-.048-.34-.071-.534a4.22,4.22,0,0,0-.945-2.668c.334.315.609.984,1.021,3.44A.864.864,0,0,0,155.007,3962.113Z" fill="#888"/>
      <path id="패스_177" data-name="패스 177" d="M142.2,3944.2a4.363,4.363,0,1,0,4.363,4.363A4.367,4.367,0,0,0,142.2,3944.2Zm0,6.934a2.571,2.571,0,1,1,2.571-2.571A2.574,2.574,0,0,1,142.2,3951.131Z" fill="#888"/>
      <path id="패스_178" data-name="패스 178" d="M152.016,3938.627a13.836,13.836,0,0,0-5.663-1.2A13.836,13.836,0,0,1,152.016,3938.627Z" fill="#888"/>
      <path id="패스_179" data-name="패스 179" d="M146.353,3939.214a12.138,12.138,0,0,0-1.5.1,12.412,12.412,0,0,1,1.623-.092C146.434,3939.218,146.394,3939.214,146.353,3939.214Z" fill="#888"/>
      <path id="패스_180" data-name="패스 180" d="M137.868,3942.334a14.8,14.8,0,0,1,3.969-2.284A14.8,14.8,0,0,0,137.868,3942.334Z" fill="#888"/>
      <path id="패스_181" data-name="패스 181" d="M150.94,3957.76a4.528,4.528,0,0,0,.946.255c.245.048.5.1.763.174-.259-.075-.518-.126-.763-.174A4.528,4.528,0,0,1,150.94,3957.76Z" fill="#888"/>
      <path id="패스_182" data-name="패스 182" d="M149.043,3939.519l-.01.006.01-.006Z" fill="#888"/>
      <path id="패스_183" data-name="패스 183" d="M153.795,3958.753c.045.033.091.065.135.1l0,0C153.884,3958.817,153.839,3958.786,153.795,3958.753Z" fill="#888"/>
      <path id="패스_184" data-name="패스 184" d="M148.945,3939.5c.033.006.066.015.1.023h0C149.013,3939.508,148.979,3939.5,148.945,3939.5Z" fill="#888"/>
      <path id="패스_185" data-name="패스 185" d="M149.679,3959.1a3.643,3.643,0,0,1-1.244-1.316,3.643,3.643,0,0,0,1.244,1.316,4.718,4.718,0,0,0,1.858.672c.04.008.079.015.117.024-.038-.009-.077-.016-.117-.024A4.712,4.712,0,0,1,149.679,3959.1Z" fill="#888"/>
      <path id="패스_186" data-name="패스 186" d="M153.93,3958.857c.021.017.041.036.061.054l-.06-.054Z" fill="#888"/>
      <path id="패스_187" data-name="패스 187" d="M156.2,3943.818c.016.024.032.046.049.068C156.233,3943.864,156.217,3943.842,156.2,3943.818Z" fill="#888"/>
      <path id="패스_188" data-name="패스 188" d="M157.211,3945.494l.007.015Z" fill="#888"/>
      <path id="패스_189" data-name="패스 189" d="M154.584,3942.083a9.274,9.274,0,0,0-.833-.623c.234.16.463.326.685.5Z" fill="#888"/>
      <path id="패스_190" data-name="패스 190" d="M156.485,3944.226c.008.013.016.024.023.037C156.5,3944.25,156.493,3944.239,156.485,3944.226Z" fill="#888"/>
      <path id="패스_191" data-name="패스 191" d="M153.59,3941.352l.115.076Z" fill="#888"/>
      <path id="패스_192" data-name="패스 192" d="M152.669,3960.143l.03.024v0C152.689,3960.155,152.679,3960.15,152.669,3960.143Z" fill="#888"/>
      <path id="패스_193" data-name="패스 193" d="M159.133,3945.406c-.1-.235-.207-.471-.323-.7a11.656,11.656,0,0,0-5.458-5.525,12.578,12.578,0,0,0-1.336-.551.358.358,0,0,1-.039-.014.945.945,0,0,0-.409-.039,6.585,6.585,0,0,0-2.525.944l-.01.006c-.084.053-.167.108-.247.163l-.049.036c-.061.044-.123.088-.182.133l-.074.06c-.052.041-.1.083-.154.127l-.066.056c-.069.061-.136.124-.2.187a3.587,3.587,0,0,0-1.181,3.26c0,.178.008.367.008.574a45.419,45.419,0,0,0,.511,7.425,15.566,15.566,0,0,1,.166,1.909c.031.621.063,1.288.152,1.949a7.487,7.487,0,0,0,.458,1.843,4.514,4.514,0,0,0,.26.538,3.643,3.643,0,0,0,1.244,1.316,4.712,4.712,0,0,0,1.858.672c.04.008.079.015.117.024l.062.013.068.013.109.025.066.014c.034.008.067.015.1.024l.064.018c.031.008.062.018.091.026s.042.015.063.021l.081.029c.021.008.04.018.061.026l.074.034.057.03a1,1,0,0,1,.454.727c.069.331.112.666.153,1l.727,5.242c.027.2.051.379.07.529.034.249.059.426.076.529a.9.9,0,0,0,.558.688.94.94,0,0,0,.326.061.912.912,0,0,0,.389-.091.862.862,0,0,0,.161-.1c3.238-2.521,4.952-10.428,5.133-14.774.011-.254.016-.5.016-.724A23.628,23.628,0,0,0,159.133,3945.406Zm-6.464,14.737c.01.007.02.012.029.019v0Zm2.965,5.606-.015.023-.011.019a.057.057,0,0,1-.035.014.058.058,0,0,1-.051-.03v0l-.006-.046c-.192-1.4-.356-2.5-.5-3.375-.412-2.456-.687-3.125-1.021-3.44-.02-.018-.04-.037-.061-.054-.044-.039-.09-.071-.135-.1s-.075-.063-.113-.089c-.054-.038-.109-.07-.163-.1-.03-.019-.06-.04-.091-.057-.064-.036-.128-.066-.193-.1l-.064-.033c-.082-.035-.164-.068-.245-.1l-.016-.006q-.131-.045-.261-.084c-.259-.075-.518-.126-.763-.174a4.528,4.528,0,0,1-.946-.255,1.523,1.523,0,0,1-.254-.142c-.014-.011-.028-.018-.043-.028-1.115-.691-1.2-2.487-1.289-4.224a16.746,16.746,0,0,0-.19-2.129,43.745,43.745,0,0,1-.485-7.117c0-.219,0-.422-.008-.611-.022-1.049-.027-1.332.61-1.911.011-.01.022-.02.032-.031.073-.072.152-.144.237-.215.026-.021.056-.042.085-.065.058-.046.118-.091.18-.136l.112-.072c.058-.037.117-.077.178-.112.041-.025.084-.048.126-.07.06-.033.12-.067.181-.1.045-.023.091-.044.136-.065l.185-.082c.046-.019.094-.038.141-.055.062-.024.124-.047.187-.068l.144-.045a1.487,1.487,0,0,1,.949.117l.059.022a10.01,10.01,0,0,1,1.377.728l.115.076.046.032a9.274,9.274,0,0,1,.833.623,9.6,9.6,0,0,1,1.617,1.735c.016.024.032.046.049.068.081.113.159.226.235.34.008.013.016.024.023.037.026.038.053.077.078.116a11.4,11.4,0,0,1,.625,1.115l.007.015c.07.142.136.285.2.427a21.866,21.866,0,0,1,1.4,7.221C158.821,3956.675,157.59,3962.64,155.634,3965.749Z" fill="#888"/>
    </g>
  </g>
</svg>
