<svg xmlns="http://www.w3.org/2000/svg" width="72" height="55" viewBox="0 0 72 55">
  <g id="그룹_74" data-name="그룹 74" transform="translate(-72.318 -4272.841)">
    <rect id="사각형_5" data-name="사각형 5" width="72" height="55" transform="translate(72.318 4272.841)" fill="#fff"/>
    <g id="그룹_69" data-name="그룹 69">
      <path id="패스_212" data-name="패스 212" d="M93.989,4309.154a4.065,4.065,0,0,1-2.543-2.171,4.4,4.4,0,0,1-2.686,2.52l-.623-.973a3.684,3.684,0,0,0,2.65-3.453v-.217h-2.3v-.995H94.3v.995H92.034v.205a3.348,3.348,0,0,0,2.555,3.129Zm2.819,2.723c0,1.283-1.379,2.051-3.611,2.051s-3.609-.768-3.609-2.051,1.379-2.051,3.609-2.051S96.808,4310.581,96.808,4311.877Zm-1.224,0c0-.708-.875-1.079-2.387-1.079s-2.386.371-2.386,1.079.876,1.079,2.386,1.079S95.584,4312.573,95.584,4311.877Zm2.639-6.141v1.02H96.688v2.818H95.452V4303.1h1.236v2.638Z" fill="#777"/>
      <path id="패스_213" data-name="패스 213" d="M102.966,4303.985h1.223v7.389H99.044v-7.389h1.235v2.758h2.687Zm0,3.742h-2.687v2.651h2.687Zm5.781.564h-1.691v5.649H105.82V4303.1h1.236v4.162h1.691Z" fill="#777"/>
      <path id="패스_214" data-name="패스 214" d="M118.911,4309.406h-4.317v4.522h-1.247v-4.522h-4.235v-1.019h7.04a16.419,16.419,0,0,0,.313-3.634h-6.177v-1h7.388v.948a19.023,19.023,0,0,1-.276,3.682h1.511Z" fill="#777"/>
      <path id="패스_215" data-name="패스 215" d="M121.411,4310.138a25.019,25.019,0,0,0,4.858-.493l.131,1.033a25.933,25.933,0,0,1-5.289.515h-.923v-7.04h1.223Zm7.088-7.04v10.83h-1.235V4303.1Z" fill="#777"/>
    </g>
    <g id="그룹_73" data-name="그룹 73">
      <g id="그룹_70" data-name="그룹 70">
        <path id="패스_216" data-name="패스 216" d="M115.424,4286.815a1.821,1.821,0,0,0-1.911-1.394q-6.032,0-12.064.006a.45.45,0,0,1-.5-.334c-.38-.951-.784-1.892-1.174-2.839a.658.658,0,0,0-.617-.493q-1.373-.01-2.745,0a.581.581,0,0,0-.6.5.606.606,0,0,0,.652.715c.678.012,1.355.007,2.034,0a.305.305,0,0,1,.342.2c.444,1.094.941,2.17,1.333,3.283.7,1.984,1.341,3.99,2,5.986a1.892,1.892,0,0,0,2.1,1.518q3.675,0,7.351,0h.986a2.373,2.373,0,0,0,.338-.014.6.6,0,0,0,.5-.383,1.036,1.036,0,0,0,.1-.212c.065-.188.193-.578.355-1.068.49-1.485,1.278-3.9,1.465-4.469A1.7,1.7,0,0,0,115.424,4286.815Zm-1.273.826c-.161.483-.854,2.6-1.325,4.039-.142.437-.265.812-.347,1.059h-8.214c-.6,0-.733-.092-.916-.639q-.849-2.547-1.7-5.092c-.121-.362-.119-.365.272-.365h11.522C114.151,4286.642,114.376,4286.965,114.151,4287.641Z" fill="#777"/>
      </g>
      <g id="그룹_71" data-name="그룹 71">
        <path id="패스_217" data-name="패스 217" d="M104.952,4295.186a1.215,1.215,0,1,0,1.224,1.217A1.207,1.207,0,0,0,104.952,4295.186Z" fill="#777"/>
      </g>
      <g id="그룹_72" data-name="그룹 72">
        <path id="패스_218" data-name="패스 218" d="M111.692,4295.186a1.215,1.215,0,1,0,1.2,1.245A1.208,1.208,0,0,0,111.692,4295.186Z" fill="#777"/>
      </g>
    </g>
  </g>
</svg>
