<svg xmlns="http://www.w3.org/2000/svg" width="72" height="55" viewBox="0 0 72 55">
  <g id="그룹_89" data-name="그룹 89" transform="translate(-220.604 -4272.841)">
    <rect id="사각형_6" data-name="사각형 6" width="72" height="55" transform="translate(220.605 4272.841)" fill="#fff"/>
    <g id="그룹_88" data-name="그룹 88">
      <g id="그룹_86" data-name="그룹 86">
        <g id="그룹_76" data-name="그룹 76">
          <g id="그룹_75" data-name="그룹 75">
            <path id="패스_219" data-name="패스 219" d="M261.158,4284.917" fill="#777" fill-rule="evenodd"/>
          </g>
        </g>
        <g id="그룹_79" data-name="그룹 79">
          <g id="그룹_78" data-name="그룹 78">
            <g id="그룹_77" data-name="그룹 77">
              <path id="패스_220" data-name="패스 220" d="M262.354,4286.337a7.961,7.961,0,0,1,1.306,2.853c.024.147.039.305.055.473.007.069.014.142.021.211a8.477,8.477,0,0,1-.663,3.49c-.031.072-.065.17-.136.367-.1.272-.182.5-.257.7a5.345,5.345,0,0,0-2.6-2.45c-.085-.048-.172-.1-.264-.156a2.941,2.941,0,0,0-.306-.168l-.154-.078c-.354-.183-.42-1.041-.223-1.586a1.614,1.614,0,0,1,.288-.539c.075-.076.169-.162.266-.252a6.327,6.327,0,0,0,.935-1.009,5.235,5.235,0,0,0,.537-1.048,4.827,4.827,0,0,1,.2-.453c.078-.071.159-.1.482-.171a1.7,1.7,0,0,0,.5-.186m.078-1.189c-.136,0-.26.1-.414.255a.7.7,0,0,1-.367.187,1.719,1.719,0,0,0-.984.456c-.259.258-.477,1.123-.813,1.592a8.911,8.911,0,0,1-1.11,1.15,2.564,2.564,0,0,0-.5.881c-.306.852-.247,2.281.684,2.761a3.421,3.421,0,0,1,.41.219c1.582.941,2.239,1.241,2.785,2.984.1.313.227.594.619.6h0c.39,0,1.09-2.2,1.214-2.5a9.357,9.357,0,0,0,.736-3.922c-.028-.255-.045-.511-.085-.766a8.652,8.652,0,0,0-1.845-3.71.479.479,0,0,0-.327-.186Z" fill="#777"/>
            </g>
          </g>
        </g>
        <g id="그룹_81" data-name="그룹 81">
          <g id="그룹_80" data-name="그룹 80">
            <path id="패스_221" data-name="패스 221" d="M255.639,4285.2a.654.654,0,0,0-.317.081c.113.178.282.36.077.568a.289.289,0,0,1-.21.1c-.133,0-.256-.113-.383-.2a.808.808,0,0,0,.38,1.029.85.85,0,0,0,1.036-1.305.769.769,0,0,0-.583-.279Z" fill="#777"/>
          </g>
        </g>
        <g id="그룹_83" data-name="그룹 83">
          <g id="그룹_82" data-name="그룹 82">
            <path id="패스_222" data-name="패스 222" d="M256.483,4297.52h0a7.8,7.8,0,0,1-6.194-2.923l-.038-.045-.017-.02a1.876,1.876,0,0,1-1.1.266.481.481,0,0,1-.44-.518v-.028a.613.613,0,0,1,.085-.342,2.367,2.367,0,0,0,.114-1.758c-.036-.2-.081-.411-.124-.613a10.7,10.7,0,0,1-.25-1.563,7.707,7.707,0,0,1,1.964-5.684,7.426,7.426,0,0,1,4.516-2.566,10.038,10.038,0,0,1,1.605-.135,7.2,7.2,0,0,1,4.827,1.759,2.825,2.825,0,0,1,.426.475,1.082,1.082,0,0,1,.242.928,1.1,1.1,0,0,1-.678.7,3.931,3.931,0,0,1-.449.166.981.981,0,0,0-.712.65,4.471,4.471,0,0,1-1.413,2.02,3.117,3.117,0,0,0-.821,3.4,4.534,4.534,0,0,0,.393.822.936.936,0,0,1-.108,1.231,1.478,1.478,0,0,0-.3,1.667,1.421,1.421,0,0,0,.567.692,1.4,1.4,0,0,1,.434.4.477.477,0,0,1-.31.743c-.148.027-.3.057-.45.087a8.827,8.827,0,0,1-1.065.168C256.951,4297.513,256.714,4297.52,256.483,4297.52Zm-6.177-4.03a.688.688,0,0,1,.581.333,1.038,1.038,0,0,0,.086.1l.046.054a6.8,6.8,0,0,0,5.464,2.584h0c.207,0,.422-.007.637-.022.151-.011.3-.032.454-.057a2.544,2.544,0,0,1,.024-3.387.472.472,0,0,0,.034-.041c-.007-.012-.016-.03-.029-.052a5.513,5.513,0,0,1-.476-.991,4.09,4.09,0,0,1,1.1-4.452,3.518,3.518,0,0,0,1.128-1.591,1.934,1.934,0,0,1,1.335-1.266,2.88,2.88,0,0,0,.339-.125.915.915,0,0,0,.132-.072.645.645,0,0,0-.073-.12,1.917,1.917,0,0,0-.278-.316,6.193,6.193,0,0,0-4.2-1.527,9.052,9.052,0,0,0-1.452.123,6.482,6.482,0,0,0-3.946,2.246,6.788,6.788,0,0,0-1.735,5,10.007,10.007,0,0,0,.232,1.426c.044.207.09.422.129.637a4.254,4.254,0,0,1,.072,1.634A.788.788,0,0,1,250.306,4293.49Z" fill="#777"/>
          </g>
        </g>
        <g id="그룹_85" data-name="그룹 85">
          <g id="그룹_84" data-name="그룹 84">
            <path id="패스_223" data-name="패스 223" d="M255.589,4288.255a2.21,2.21,0,1,1,2.21-2.209A2.212,2.212,0,0,1,255.589,4288.255Zm0-3.465a1.255,1.255,0,1,0,1.255,1.256A1.257,1.257,0,0,0,255.589,4284.79Z" fill="#777"/>
          </g>
        </g>
      </g>
      <g id="그룹_87" data-name="그룹 87">
        <path id="패스_224" data-name="패스 224" d="M249.846,4304.177h1.6l1.619,4.462c.2.587.384,1.187.588,1.787h.06c.2-.6.372-1.2.576-1.787l1.594-4.462h1.608V4313h-1.295v-4.366c0-.792.107-1.931.18-2.735h-.048l-.708,2.039-1.535,4.21h-.864l-1.547-4.21-.7-2.039h-.048c.061.8.168,1.943.168,2.735V4313h-1.247Z" fill="#777"/>
        <path id="패스_225" data-name="패스 225" d="M260.657,4309.658l-2.651-5.481h1.488l1.019,2.34c.276.659.528,1.27.827,1.942h.048c.288-.672.576-1.283.84-1.942l1.031-2.34h1.451l-2.662,5.481V4313h-1.391Z" fill="#777"/>
      </g>
    </g>
  </g>
</svg>
