<svg xmlns="http://www.w3.org/2000/svg" width="72" height="55" viewBox="0 0 72 55">
  <g id="그룹_94" data-name="그룹 94" transform="translate(-293.057 -4272.841)">
    <rect id="사각형_7" data-name="사각형 7" width="72" height="55" transform="translate(293.057 4272.841)" fill="#fff"/>
    <g id="그룹_93" data-name="그룹 93">
      <g id="그룹_90" data-name="그룹 90">
        <path id="패스_226" data-name="패스 226" d="M323.81,4311.638v1.019H314v-1.019h4.27v-1.848h-3.082v-3.49h6.236v-1.451h-6.261v-1h7.484v3.431H316.4v1.511h6.489v1H319.5v1.848Z" fill="#777"/>
        <path id="패스_227" data-name="패스 227" d="M334.237,4311.4v1.02h-9.8v-1.02Zm-2.494-6.224h-6.26v-1h7.5v1.164a26.778,26.778,0,0,1-.409,5.265l-1.247-.132a24.4,24.4,0,0,0,.42-5.133Z" fill="#777"/>
        <path id="패스_228" data-name="패스 228" d="M337.962,4309.238a2.715,2.715,0,1,1,2.866-2.71A2.726,2.726,0,0,1,337.962,4309.238Zm0-1.067a1.643,1.643,0,1,0-1.667-1.643A1.594,1.594,0,0,0,337.962,4308.171Zm6.152,4.545v1.008h-7.387v-3.55h1.247v2.542Zm-.311-1.75h-1.236V4303.1H343.8Z" fill="#777"/>
      </g>
      <g id="그룹_92" data-name="그룹 92">
        <g id="그룹_91" data-name="그룹 91">
          <path id="패스_229" data-name="패스 229" d="M329.3,4281.774a2.668,2.668,0,0,1,.568.061,3.328,3.328,0,0,1,2.652,3.321c0,.6,0,1.2,0,1.791v.361h.749a1.232,1.232,0,0,1,1.387,1.376c0,2.783,0,3.388,0,6.171,0,.946-.426,1.373-1.362,1.373q-1.99,0-3.983,0t-3.981,0a1.2,1.2,0,0,1-1.381-1.367c-.008-2.782-.008-3.387,0-6.171,0-.99.415-1.38,1.415-1.383h.714c0-.827-.005-1.6,0-2.38a3.329,3.329,0,0,1,3.219-3.154m.661,5.534H331.4c0-.862.048-1.682-.011-2.494a2.069,2.069,0,0,0-2.079-1.843h-.026a2.118,2.118,0,0,0-2.091,1.873c-.05.754-.018,1.513-.009,2.27a.259.259,0,0,0,.174.186c.868.007,1.736.008,2.609.008m-.658,5.789a1.588,1.588,0,1,0-1.588-1.588,1.587,1.587,0,0,0,1.588,1.588m0-12.323h0a4.315,4.315,0,0,0-4.219,4.147c0,.462,0,.925,0,1.4a2.132,2.132,0,0,0-2.128,2.369c-.008,2.787-.008,3.392,0,6.177a2.184,2.184,0,0,0,2.381,2.364l3.981,0,3.985,0a2.175,2.175,0,0,0,2.36-2.373c0-2.783,0-3.388,0-6.171a2.194,2.194,0,0,0-2.136-2.366c0-.389,0-.78,0-1.17a4.327,4.327,0,0,0-3.439-4.291,3.734,3.734,0,0,0-.781-.084Zm-1.136,5.531c-.007-.48-.009-.94.022-1.394a1.117,1.117,0,0,1,1.105-.94h0a1.079,1.079,0,0,1,1.1.917c.033.455.029.925.021,1.42h-.446c-.6,0-1.2,0-1.8,0Zm1.139,5.792a.588.588,0,1,1,.587-.588.588.588,0,0,1-.587.588Z" fill="#777"/>
        </g>
      </g>
    </g>
  </g>
</svg>
