<svg xmlns="http://www.w3.org/2000/svg" width="72" height="55" viewBox="0 0 72 55">
  <g id="그룹_62" data-name="그룹 62" transform="translate(-147.246 -4272.841)">
    <rect id="사각형_3" data-name="사각형 3" width="72" height="55" transform="translate(147.246 4272.841)" fill="#fff"/>
    <g id="그룹_61" data-name="그룹 61">
      <g id="그룹_59" data-name="그룹 59">
        <g id="그룹_58" data-name="그룹 58">
          <path id="패스_203" data-name="패스 203" d="M184.384,4292.938h-2.251c-.011.179-.029.347-.03.514,0,.9.006,1.789,0,2.685a1.175,1.175,0,0,1-1.334,1.323q-1.509.014-3.019,0a1.188,1.188,0,0,1-1.339-1.367c0-1.486-.011-2.973.007-4.457.005-.365-.114-.483-.467-.457-.611.044-1.2.009-1.483-.678s.116-1.142.564-1.588q3.416-3.4,6.816-6.81a1.77,1.77,0,0,1,2.8,0q3.49,3.491,6.982,6.98a1.259,1.259,0,0,1,.477,1.186c-.131.633-.548.913-1.363.916-.658,0-.658,0-.659.639q0,2.109,0,4.219c0,1-.417,1.417-1.434,1.42-.974,0-1.949.007-2.923,0a1.176,1.176,0,0,1-1.335-1.321c-.01-.879,0-1.757,0-2.637Zm-6.842,3.322h3.432v-.515c0-.927-.007-1.854,0-2.781a1.065,1.065,0,0,1,1.113-1.171q1.173-.05,2.348,0a1.06,1.06,0,0,1,1.069,1.119c.015.543.005,1.087.006,1.63v1.725h3.432v-.55q0-2.445,0-4.89c0-.6.166-.758.773-.763.373,0,.746,0,1.206,0a3.47,3.47,0,0,0-.237-.3q-3.454-3.459-6.915-6.915c-.407-.407-.653-.4-1.056,0q-3.461,3.453-6.914,6.915a2.12,2.12,0,0,0-.208.3c.423,0,.771,0,1.119,0,.67,0,.824.153.826.808,0,.847,0,1.693,0,2.54Z" fill="#39b54a" fill-rule="evenodd"/>
        </g>
      </g>
      <g id="그룹_60" data-name="그룹 60">
        <path id="패스_204" data-name="패스 204" d="M188.054,4309v.971h-9.8V4309h4.281v-.684c-1.894-.095-2.938-.624-2.938-1.535,0-1.019,1.271-1.547,3.562-1.547s3.55.528,3.55,1.547c0,.911-1.044,1.44-2.927,1.535V4309Zm-.539-4.114h-8.768v-.948h3.79v-.971h1.247v.971h3.731Zm-8.084,5.793h7.436v3.118h-7.436Zm1.223,2.194h5v-1.259h-5Zm2.507-5.4c1.463,0,2.242-.229,2.242-.7s-.779-.7-2.242-.7-2.243.216-2.243.7S181.686,4307.476,183.161,4307.476Z" fill="#39b54a"/>
      </g>
    </g>
  </g>
</svg>
