<svg xmlns="http://www.w3.org/2000/svg" width="72" height="55" viewBox="0 0 72 55">
  <g id="그룹_68" data-name="그룹 68" transform="translate(0.503 -4272.841)">
    <rect id="사각형_4" data-name="사각형 4" width="72" height="55" transform="translate(-0.503 4272.841)" fill="#fff"/>
    <g id="그룹_67" data-name="그룹 67">
      <g id="그룹_63" data-name="그룹 63">
        <path id="패스_205" data-name="패스 205" d="M20.94,4304.177c0,3.238-.947,6.069-4.882,8.048l-.671-.96a7.5,7.5,0,0,0,3.67-3.406l-3.431.335-.168-1.066,3.97-.252a9.116,9.116,0,0,0,.288-1.691H16.01v-1.008Zm4.437,4.222H23.734v5.517H22.5v-10.83h1.235v4.282h1.643Z" fill="#777"/>
        <path id="패스_206" data-name="패스 206" d="M27.338,4310.413a18.424,18.424,0,0,0,3.31-.251l.108,1.007a20.631,20.631,0,0,1-3.885.252h-.72v-7.076h4.017v1h-2.83v1.93h2.374v.972H27.338Zm4.306-7.088h1.163v10.087H31.644v-5.265H30.252v-1.019h1.392Zm3.394-.239v10.83H33.85v-10.83Z" fill="#777"/>
        <path id="패스_207" data-name="패스 207" d="M46.018,4311.493v1.02H36.231v-1.02h3.646v-3.814h1.248v3.814Zm-2.3-6.381H37.251V4304.1h7.711v1.068a24.777,24.777,0,0,1-.42,5.085l-1.246-.132a23.356,23.356,0,0,0,.419-4.953Z" fill="#777"/>
        <path id="패스_208" data-name="패스 208" d="M48.53,4310.354a30.913,30.913,0,0,0,4.929-.373l.132,1.008a29.789,29.789,0,0,1-5.385.385h-.923v-4.295H51.06v-2.014h-3.8v-1.007h5.05v4.017H48.53Zm7.076-7.281v10.879H54.359v-10.879Z" fill="#777"/>
      </g>
      <g id="그룹_64" data-name="그룹 64">
        <path id="패스_209" data-name="패스 209" d="M44.147,4284.829H26.39a.651.651,0,0,1,0-1.3H44.147a.651.651,0,0,1,0,1.3Z" fill="#777"/>
      </g>
      <g id="그룹_65" data-name="그룹 65">
        <path id="패스_210" data-name="패스 210" d="M44.147,4290.729H26.39a.65.65,0,1,1,0-1.3H44.147a.65.65,0,1,1,0,1.3Z" fill="#777"/>
      </g>
      <g id="그룹_66" data-name="그룹 66">
        <path id="패스_211" data-name="패스 211" d="M44.147,4296.629H26.39a.65.65,0,0,1,0-1.3H44.147a.65.65,0,0,1,0,1.3Z" fill="#777"/>
      </g>
    </g>
  </g>
</svg>
