<?xml version="1.0" encoding="utf-8"?>
<!-- Generator: Adobe Illustrator 16.0.0, SVG Export Plug-In . SVG Version: 6.00 Build 0)  -->
<!DOCTYPE svg PUBLIC "-//W3C//DTD SVG 1.1//EN" "http://www.w3.org/Graphics/SVG/1.1/DTD/svg11.dtd">
<svg version="1.1" id="레이어_1" xmlns="http://www.w3.org/2000/svg" xmlns:xlink="http://www.w3.org/1999/xlink" x="0px"
	 y="0px" width="206.373px" height="74.211px" viewBox="0 0 206.373 74.211" enable-background="new 0 0 206.373 74.211"
	 xml:space="preserve">
<g>
	<g>
		<path fill="#39B54A" stroke="#39B54A" stroke-width="0.3105" stroke-miterlimit="10" d="M89.957,14.038
			c-0.542,0-0.941-0.188-1.2-0.564c-0.259-0.376-0.389-0.824-0.389-1.341c0-0.518,0.13-0.965,0.389-1.342
			c0.259-0.375,0.658-0.564,1.2-0.564h10.518c1.129,0,1.911,0.211,2.347,0.636c0.436,0.423,0.653,1.188,0.653,2.293v6.565
			c0,1.106-0.218,1.87-0.653,2.294s-1.218,0.635-2.347,0.635h-6.812c-0.542,0-0.813,0.271-0.813,0.813v3.494
			c0,0.542,0.271,0.812,0.813,0.812c2.211,0,4.246-0.053,6.104-0.158c1.859-0.107,3.646-0.277,5.366-0.512
			c0.542-0.071,0.971,0.059,1.288,0.388c0.318,0.329,0.5,0.741,0.548,1.235c0.047,0.541-0.023,1.018-0.212,1.429
			c-0.188,0.412-0.542,0.653-1.06,0.725c-0.729,0.095-1.541,0.182-2.436,0.265c-0.894,0.082-1.911,0.158-3.052,0.229
			c-1.142,0.071-2.437,0.124-3.882,0.158c-1.448,0.036-3.09,0.054-4.924,0.054c-1.129,0-1.913-0.212-2.348-0.635
			c-0.436-0.425-0.652-1.188-0.652-2.295v-6.74c0-1.106,0.217-1.871,0.652-2.295c0.435-0.422,1.219-0.636,2.348-0.636h6.811
			c0.541,0,0.813-0.27,0.813-0.811v-3.317c0-0.542-0.271-0.813-0.813-0.813H89.957z M113.604,37.015c0,0.658-0.229,1.14-0.688,1.447
			c-0.459,0.307-0.995,0.459-1.607,0.459c-0.588,0-1.111-0.152-1.569-0.459c-0.46-0.307-0.688-0.789-0.688-1.447V9.979
			c0-0.659,0.229-1.142,0.688-1.447c0.458-0.305,0.981-0.459,1.569-0.459c0.612,0,1.148,0.154,1.607,0.459
			c0.458,0.306,0.688,0.788,0.688,1.447V37.015z"/>
		<path fill="#39B54A" stroke="#39B54A" stroke-width="0.3105" stroke-miterlimit="10" d="M118.509,36.026
			c-0.542,0-0.941-0.188-1.199-0.564c-0.261-0.376-0.389-0.824-0.389-1.341c0-0.542,0.128-1.001,0.389-1.377
			c0.258-0.376,0.657-0.565,1.199-0.565h26.682c0.541,0,0.941,0.189,1.201,0.565c0.258,0.376,0.388,0.835,0.388,1.377
			c0,0.517-0.13,0.965-0.388,1.341c-0.26,0.376-0.66,0.564-1.201,0.564H118.509z M142.121,10.333c0.539,0,0.934,0.182,1.182,0.547
			c0.247,0.365,0.37,0.805,0.37,1.323s-0.123,0.959-0.37,1.324c-0.248,0.364-0.643,0.546-1.182,0.546h-2.86v9.001h3.001
			c0.541,0,0.935,0.183,1.183,0.546c0.246,0.366,0.37,0.807,0.37,1.324s-0.124,0.959-0.37,1.323
			c-0.248,0.365-0.642,0.547-1.183,0.547h-20.823c-0.541,0-0.935-0.182-1.183-0.547c-0.247-0.364-0.371-0.806-0.371-1.323
			s0.124-0.958,0.371-1.324c0.248-0.363,0.642-0.546,1.183-0.546h3v-9.001h-2.859c-0.541,0-0.936-0.182-1.183-0.546
			c-0.247-0.365-0.37-0.806-0.37-1.324s0.123-0.958,0.37-1.323s0.642-0.547,1.183-0.547H142.121z M128.813,23.074h6.071v-9.001
			h-6.071V23.074z"/>
		<path fill="#39B54A" stroke="#39B54A" stroke-width="0.3105" stroke-miterlimit="10" d="M147.344,12.627
			c0-0.472,0.13-0.894,0.389-1.271c0.258-0.377,0.658-0.565,1.199-0.565h12.425c0.54,0,0.94,0.188,1.199,0.565
			s0.388,0.799,0.388,1.271c0,0.471-0.129,0.894-0.388,1.271c-0.259,0.376-0.659,0.564-1.199,0.564h-0.671v12.283l0.951-0.107
			c0.543-0.069,0.966,0.053,1.271,0.37c0.305,0.318,0.481,0.712,0.529,1.183c0.047,0.494-0.035,0.953-0.246,1.377
			c-0.212,0.424-0.554,0.658-1.024,0.706c-1.06,0.118-2.088,0.212-3.088,0.282c-1.001,0.071-2.029,0.123-3.087,0.159
			c-1.06,0.036-2.178,0.054-3.354,0.054s-2.481,0-3.917,0c-0.541,0-0.941-0.189-1.2-0.566c-0.26-0.376-0.388-0.799-0.388-1.27
			c0-0.47,0.128-0.895,0.388-1.271c0.259-0.375,0.659-0.563,1.2-0.563h1.271V14.462h-1.06c-0.541,0-0.941-0.188-1.199-0.564
			C147.474,13.521,147.344,13.098,147.344,12.627z M153.979,27.098c0.471,0,0.93,0,1.377,0s0.893-0.024,1.342-0.071V14.462h-2.719
			V27.098z M168.66,22.509v13.164c0,0.612-0.211,1.06-0.634,1.342c-0.424,0.283-0.894,0.423-1.412,0.423s-0.988-0.14-1.412-0.423
			c-0.423-0.282-0.636-0.729-0.636-1.342V10.191c0-0.611,0.213-1.06,0.636-1.341c0.424-0.283,0.894-0.424,1.412-0.424
			s0.988,0.141,1.412,0.424c0.423,0.281,0.634,0.729,0.634,1.341v8.507h2.543V9.839c0-0.612,0.211-1.06,0.634-1.341
			c0.425-0.283,0.896-0.425,1.413-0.425c0.54,0,1.023,0.142,1.447,0.425c0.423,0.281,0.635,0.729,0.635,1.341v27.317
			c0,0.612-0.212,1.057-0.635,1.34c-0.424,0.283-0.907,0.424-1.447,0.424c-0.518,0-0.988-0.141-1.413-0.424
			c-0.423-0.283-0.634-0.729-0.634-1.34V22.509H168.66z"/>
		<path fill="#39B54A" stroke="#39B54A" stroke-width="0.3105" stroke-miterlimit="10" d="M183.66,22.438
			c0,0.542,0.271,0.812,0.813,0.812c2,0,3.9-0.048,5.7-0.142c1.799-0.094,3.522-0.259,5.169-0.494
			c0.543-0.07,0.972,0.059,1.289,0.388c0.318,0.331,0.5,0.73,0.547,1.201c0.048,0.518-0.024,0.982-0.211,1.395
			c-0.188,0.411-0.543,0.652-1.059,0.723c-0.684,0.095-1.46,0.183-2.33,0.266s-1.858,0.152-2.965,0.211
			c-1.105,0.059-2.347,0.106-3.723,0.142c-1.377,0.035-2.924,0.052-4.643,0.052c-1.129,0-1.911-0.211-2.347-0.634
			c-0.436-0.424-0.653-1.188-0.653-2.294v-4.59c0-1.104,0.218-1.87,0.653-2.294c0.436-0.423,1.218-0.634,2.347-0.634h6.212
			c0.542,0,0.813-0.271,0.813-0.813v-1.518c0-0.541-0.271-0.813-0.813-0.813h-7.729c-0.542,0-0.93-0.187-1.165-0.563
			s-0.353-0.813-0.353-1.307s0.117-0.93,0.353-1.306c0.235-0.377,0.623-0.564,1.165-0.564h9.952c1.131,0,1.912,0.212,2.348,0.635
			c0.436,0.424,0.652,1.188,0.652,2.294v4.553c0,1.106-0.217,1.871-0.652,2.295c-0.436,0.423-1.217,0.635-2.348,0.635h-6.211
			c-0.541,0-0.813,0.271-0.813,0.813V22.438z M196.438,30.979c0,0.824,0.276,1.507,0.829,2.047c0.552,0.542,1.358,1.059,2.417,1.553
			s2.035,0.936,2.931,1.323c0.894,0.39,1.787,0.76,2.683,1.112c0.445,0.188,0.705,0.529,0.775,1.023
			c0.071,0.494,0.012,0.965-0.176,1.412c-0.213,0.471-0.548,0.818-1.006,1.041c-0.46,0.223-0.959,0.229-1.5,0.018
			c-0.707-0.283-1.419-0.576-2.137-0.881c-0.717-0.307-1.487-0.66-2.311-1.061c-0.871-0.4-1.595-0.764-2.171-1.093
			c-0.577-0.331-1.042-0.636-1.395-0.919c-0.353-0.281-0.617-0.541-0.794-0.774c-0.176-0.235-0.3-0.46-0.371-0.671h-0.034
			c-0.071,0.259-0.195,0.512-0.371,0.758c-0.177,0.248-0.446,0.512-0.813,0.795c-0.364,0.281-0.835,0.588-1.411,0.916
			c-0.576,0.331-1.301,0.694-2.17,1.096c-0.824,0.398-1.594,0.752-2.313,1.057c-0.717,0.307-1.428,0.602-2.135,0.883
			c-0.541,0.213-1.042,0.207-1.501-0.018c-0.457-0.223-0.794-0.57-1.005-1.041c-0.213-0.471-0.277-0.965-0.195-1.482
			c0.083-0.517,0.348-0.871,0.795-1.058c0.894-0.353,1.787-0.723,2.683-1.112c0.894-0.388,1.87-0.829,2.929-1.323
			c1.06-0.494,1.865-1.011,2.418-1.553c0.553-0.54,0.83-1.223,0.83-2.047v-0.954c0-0.657,0.229-1.141,0.688-1.445
			c0.46-0.307,0.982-0.459,1.571-0.459c0.588,0,1.111,0.152,1.57,0.459c0.459,0.305,0.688,0.788,0.688,1.445V30.979z
			 M200.391,19.403h-3.459c-0.564,0-0.977-0.188-1.235-0.565c-0.259-0.375-0.389-0.835-0.389-1.377c0-0.54,0.13-0.999,0.389-1.376
			s0.671-0.563,1.235-0.563h3.459V9.979c0-0.659,0.229-1.142,0.688-1.447c0.459-0.305,0.982-0.459,1.57-0.459
			c0.565,0,1.077,0.154,1.535,0.459c0.46,0.306,0.688,0.788,0.688,1.447v18.034c0,0.66-0.229,1.143-0.688,1.448
			c-0.458,0.306-0.97,0.459-1.535,0.459c-0.588,0-1.111-0.153-1.57-0.459c-0.458-0.306-0.688-0.788-0.688-1.448V19.403z"/>
	</g>
	<g>
		<path fill="#39B54A" stroke="#39B54A" stroke-width="0.3105" stroke-miterlimit="10" d="M92.418,46.651
			c0.401,0,0.749,0.102,1.042,0.301c0.293,0.201,0.439,0.527,0.439,0.973v12.832h6.718c0.354,0,0.617,0.125,0.787,0.371
			c0.169,0.248,0.255,0.541,0.255,0.881s-0.086,0.633-0.255,0.881c-0.17,0.246-0.433,0.369-0.787,0.369h-7.713
			c-0.741,0-1.255-0.139-1.54-0.416c-0.287-0.279-0.43-0.781-0.43-1.506V47.924c0-0.445,0.147-0.771,0.44-0.973
			C91.669,46.752,92.016,46.651,92.418,46.651z"/>
		<path fill="#39B54A" stroke="#39B54A" stroke-width="0.3105" stroke-miterlimit="10" d="M103.952,46.651
			c0.403,0,0.75,0.102,1.043,0.301c0.293,0.201,0.44,0.527,0.44,0.973v14.199c0,0.447-0.147,0.771-0.44,0.973
			s-0.64,0.301-1.043,0.301c-0.4,0-0.749-0.1-1.042-0.301s-0.439-0.525-0.439-0.973V47.924c0-0.445,0.146-0.771,0.439-0.973
			C103.203,46.752,103.551,46.651,103.952,46.651z"/>
		<path fill="#39B54A" stroke="#39B54A" stroke-width="0.3105" stroke-miterlimit="10" d="M114.098,46.79
			c1.004,0,1.864,0.121,2.582,0.359c0.719,0.24,1.309,0.572,1.772,0.996c0.464,0.426,0.807,0.932,1.03,1.518
			c0.225,0.588,0.336,1.219,0.336,1.9v0.322c0,0.682-0.115,1.326-0.347,1.936c-0.232,0.609-0.587,1.143-1.066,1.598
			c-0.478,0.455-1.073,0.818-1.782,1.088c-0.711,0.271-1.552,0.406-2.525,0.406h-3.335v5.211c0,0.447-0.147,0.771-0.44,0.973
			s-0.641,0.301-1.043,0.301c-0.401,0-0.748-0.1-1.042-0.301s-0.44-0.525-0.44-0.973v-13.41c0-0.727,0.143-1.229,0.43-1.506
			c0.285-0.277,0.799-0.418,1.54-0.418H114.098z M110.763,54.411h2.941c0.974,0,1.737-0.186,2.292-0.555
			c0.557-0.373,0.834-1.043,0.834-2.018v-0.254c0-0.463-0.069-0.84-0.207-1.135c-0.14-0.293-0.337-0.529-0.592-0.707
			c-0.255-0.176-0.56-0.301-0.914-0.371c-0.355-0.068-0.741-0.104-1.158-0.104h-3.196V54.411z"/>
		<path fill="#39B54A" stroke="#39B54A" stroke-width="0.3105" stroke-miterlimit="10" d="M131.84,46.79
			c1.004,0,1.863,0.121,2.582,0.359c0.719,0.24,1.309,0.572,1.772,0.996c0.463,0.426,0.806,0.932,1.03,1.518
			c0.224,0.588,0.336,1.219,0.336,1.9v0.322c0,0.682-0.116,1.326-0.348,1.936s-0.588,1.143-1.065,1.598
			c-0.479,0.455-1.074,0.818-1.784,1.088c-0.71,0.271-1.551,0.406-2.523,0.406h-3.336v5.211c0,0.447-0.147,0.771-0.439,0.973
			c-0.294,0.201-0.643,0.301-1.043,0.301c-0.401,0-0.748-0.1-1.043-0.301c-0.293-0.201-0.439-0.525-0.439-0.973v-13.41
			c0-0.727,0.143-1.229,0.429-1.506s0.8-0.418,1.541-0.418H131.84z M128.504,54.411h2.942c0.973,0,1.737-0.186,2.292-0.555
			c0.557-0.373,0.834-1.043,0.834-2.018v-0.254c0-0.463-0.069-0.84-0.209-1.135c-0.139-0.293-0.335-0.529-0.59-0.707
			c-0.255-0.176-0.56-0.301-0.914-0.371c-0.356-0.068-0.742-0.104-1.158-0.104h-3.197V54.411z"/>
		<path fill="#39B54A" stroke="#39B54A" stroke-width="0.3105" stroke-miterlimit="10" d="M143.721,46.651
			c0.4,0,0.749,0.094,1.043,0.279c0.293,0.184,0.548,0.549,0.765,1.088l5.211,13.434c0.17,0.447,0.17,0.834,0,1.158
			s-0.447,0.549-0.834,0.672s-0.768,0.139-1.146,0.047c-0.379-0.094-0.653-0.387-0.823-0.881l-1.343-3.705h-5.837l-1.365,3.797
			c-0.171,0.449-0.429,0.715-0.777,0.799c-0.346,0.086-0.705,0.066-1.076-0.057s-0.642-0.332-0.811-0.625
			c-0.171-0.293-0.171-0.656,0-1.09l5.211-13.549c0.201-0.539,0.452-0.904,0.754-1.088
			C142.992,46.745,143.336,46.651,143.721,46.651z M143.676,50.358c-0.125,0.463-0.244,0.875-0.359,1.238
			c-0.117,0.363-0.268,0.807-0.453,1.332l-1.227,3.359h4.076l-1.204-3.359c-0.201-0.541-0.358-1.004-0.476-1.391
			C143.918,51.153,143.799,50.758,143.676,50.358z"/>
		<path fill="#39B54A" stroke="#39B54A" stroke-width="0.3105" stroke-miterlimit="10" d="M158.545,46.79
			c1.729,0,3.064,0.43,4.007,1.287c0.941,0.855,1.413,2.01,1.413,3.461v0.418c0,1.066-0.252,1.949-0.754,2.652
			c-0.502,0.701-1.184,1.23-2.05,1.586l2.919,5.166c0.215,0.385,0.258,0.748,0.127,1.088c-0.132,0.34-0.373,0.596-0.73,0.766
			c-0.354,0.17-0.717,0.23-1.087,0.184c-0.372-0.047-0.657-0.27-0.857-0.672l-3.173-6.068c-0.077,0.016-0.162,0.023-0.255,0.023
			s-0.177,0-0.255,0h-2.664v5.443c0,0.447-0.147,0.771-0.439,0.973c-0.294,0.201-0.641,0.301-1.043,0.301
			c-0.401,0-0.749-0.1-1.041-0.301c-0.295-0.201-0.441-0.525-0.441-0.973v-13.41c0-0.727,0.143-1.229,0.429-1.506
			c0.285-0.277,0.8-0.418,1.54-0.418H158.545z M155.186,54.202h2.711c1.126,0,1.93-0.191,2.408-0.578s0.719-0.957,0.719-1.715
			v-0.301c0-0.773-0.229-1.355-0.684-1.748c-0.455-0.395-1.186-0.592-2.189-0.592h-2.965V54.202z"/>
		<path fill="#39B54A" stroke="#39B54A" stroke-width="0.3105" stroke-miterlimit="10" d="M172.441,46.79
			c1.729,0,3.064,0.43,4.007,1.287c0.942,0.855,1.413,2.01,1.413,3.461v0.418c0,1.066-0.251,1.949-0.753,2.652
			c-0.501,0.701-1.186,1.23-2.05,1.586l2.918,5.166c0.216,0.385,0.26,0.748,0.128,1.088s-0.375,0.596-0.729,0.766
			c-0.355,0.17-0.718,0.23-1.089,0.184c-0.37-0.047-0.656-0.27-0.856-0.672l-3.174-6.068c-0.077,0.016-0.162,0.023-0.256,0.023
			c-0.091,0-0.177,0-0.254,0h-2.663v5.443c0,0.447-0.147,0.771-0.439,0.973c-0.294,0.201-0.642,0.301-1.043,0.301
			s-0.749-0.1-1.043-0.301c-0.293-0.201-0.44-0.525-0.44-0.973v-13.41c0-0.727,0.145-1.229,0.43-1.506s0.799-0.418,1.54-0.418
			H172.441z M169.083,54.202h2.71c1.127,0,1.93-0.191,2.408-0.578s0.718-0.957,0.718-1.715v-0.301c0-0.773-0.228-1.355-0.683-1.748
			c-0.456-0.395-1.186-0.592-2.188-0.592h-2.966V54.202z"/>
		<path fill="#39B54A" stroke="#39B54A" stroke-width="0.3105" stroke-miterlimit="10" d="M186.478,46.536
			c1.127,0,2.131,0.154,3.011,0.463c0.88,0.311,1.621,0.789,2.224,1.436c0.602,0.648,1.062,1.479,1.378,2.49
			s0.475,2.221,0.475,3.625v0.949c0,1.406-0.158,2.613-0.475,3.625c-0.316,1.014-0.776,1.842-1.378,2.49
			c-0.603,0.648-1.344,1.127-2.224,1.436s-1.884,0.463-3.011,0.463c-1.128,0-2.131-0.154-3.012-0.463
			c-0.88-0.309-1.621-0.787-2.224-1.436s-1.061-1.477-1.378-2.49c-0.316-1.012-0.475-2.219-0.475-3.625v-0.949
			c0-1.404,0.158-2.613,0.475-3.625c0.317-1.012,0.775-1.842,1.378-2.49c0.603-0.646,1.344-1.125,2.224-1.436
			C184.347,46.69,185.35,46.536,186.478,46.536z M186.478,49.247c-0.681,0-1.274,0.09-1.784,0.277
			c-0.51,0.186-0.938,0.49-1.284,0.916c-0.349,0.424-0.607,0.99-0.777,1.701s-0.255,1.59-0.255,2.639v0.488
			c0,1.049,0.085,1.93,0.255,2.641s0.429,1.277,0.777,1.701c0.346,0.426,0.774,0.73,1.284,0.916s1.104,0.277,1.784,0.277
			c0.68,0,1.272-0.092,1.782-0.277c0.511-0.186,0.938-0.49,1.287-0.916c0.347-0.424,0.605-0.99,0.774-1.701
			c0.17-0.711,0.255-1.592,0.255-2.641V54.78c0-1.049-0.085-1.928-0.255-2.639c-0.169-0.711-0.428-1.277-0.774-1.701
			c-0.349-0.426-0.776-0.73-1.287-0.916C187.75,49.336,187.157,49.247,186.478,49.247z"/>
		<path fill="#39B54A" stroke="#39B54A" stroke-width="0.3105" stroke-miterlimit="10" d="M205.331,46.79
			c0.354,0,0.617,0.125,0.786,0.371c0.171,0.248,0.256,0.541,0.256,0.881s-0.085,0.633-0.256,0.881
			c-0.169,0.246-0.432,0.369-0.786,0.369h-3.984v12.832c0,0.447-0.147,0.771-0.44,0.973s-0.642,0.301-1.042,0.301
			c-0.401,0-0.749-0.1-1.043-0.301c-0.293-0.201-0.439-0.525-0.439-0.973V49.292h-4.007c-0.355,0-0.617-0.123-0.787-0.369
			c-0.17-0.248-0.255-0.541-0.255-0.881s0.085-0.633,0.255-0.881c0.17-0.246,0.432-0.371,0.787-0.371H205.331z"/>
	</g>
	<g>
		<path fill="#39B54A" d="M12.296,58.479c0.429-0.182,0.849-0.371,1.263-0.566c0.076-0.033,0.152-0.07,0.229-0.105
			c0.405-0.193,0.805-0.395,1.196-0.6c0.066-0.035,0.133-0.07,0.199-0.105c0.402-0.215,0.801-0.434,1.189-0.662
			c0.02-0.012,0.037-0.021,0.057-0.035c0.381-0.223,0.753-0.453,1.117-0.689c0.051-0.033,0.104-0.066,0.154-0.1
			c0.359-0.234,0.709-0.477,1.053-0.723c0.065-0.045,0.131-0.094,0.196-0.141c0.34-0.246,0.672-0.498,0.996-0.758
			c0.052-0.041,0.104-0.086,0.155-0.127c0.338-0.273,0.67-0.551,0.99-0.834c4.486-3.99,7.166-9.061,7.964-15.07
			c1.067-8.032,4.318-14.278,9.666-18.562c2.405-1.93,4.719-3.007,6.19-3.563c0.21-0.08,0.404-0.147,0.578-0.207
			c0.017-0.006,0.036-0.013,0.053-0.02c0.127-0.042,0.241-0.078,0.346-0.11c0.271-0.085,0.465-0.137,0.56-0.159
			c0.058-0.01,0.115-0.023,0.173-0.039c0.204-0.062,0.408-0.115,0.615-0.169c0.098-0.025,0.198-0.049,0.299-0.072
			c0.102-0.024,0.204-0.05,0.307-0.072c0.135-0.03,0.27-0.057,0.404-0.084c0.064-0.012,0.129-0.026,0.194-0.038
			c0.159-0.03,0.316-0.057,0.475-0.083c0.039-0.007,0.077-0.013,0.115-0.02c0.178-0.027,0.354-0.052,0.531-0.075
			c0.018-0.001,0.034-0.003,0.052-0.005c0.775-0.099,1.559-0.15,2.344-0.15c0.063,0,0.125,0.004,0.189,0.005
			c0.213,0.003,0.426,0.008,0.64,0.017c0.103,0.005,0.204,0.009,0.306,0.016c0.26,0.015,0.52,0.034,0.778,0.061
			c0.079,0.009,0.157,0.018,0.236,0.026c0.251,0.028,0.502,0.061,0.751,0.1c0.038,0.006,0.076,0.012,0.114,0.017
			c0.285,0.045,0.568,0.1,0.851,0.158c0.06,0.013,0.119,0.024,0.178,0.038c0.052,0.012,0.105,0.021,0.157,0.033
			c-0.001,0-0.003,0.003-0.004,0.004c1.198-0.753,2.611-1.291,3.939-1.471c0.214-0.031,0.431-0.009,0.636,0.061
			c0.02,0.007,0.04,0.016,0.061,0.021c-2.795-1.245-5.766-1.879-8.832-1.879c-2.035,0-4.061,0.285-6.021,0.851
			c-0.004,0.001-0.008,0.002-0.012,0.003c-0.175,0.037-4.33,0.965-8.831,4.531c-4.124,3.266-9.347,9.469-10.808,20.47
			c-0.048,0.36-0.104,0.711-0.164,1.059c-0.021,0.117-0.047,0.23-0.071,0.348c-0.043,0.227-0.086,0.455-0.136,0.676
			c-0.03,0.137-0.066,0.268-0.1,0.4c-0.047,0.197-0.094,0.395-0.146,0.59c-0.038,0.139-0.082,0.275-0.122,0.412
			c-0.054,0.182-0.105,0.365-0.162,0.541c-0.046,0.141-0.095,0.277-0.143,0.416c-0.059,0.17-0.116,0.34-0.179,0.508
			c-0.051,0.137-0.107,0.271-0.161,0.408c-0.063,0.16-0.127,0.322-0.194,0.479c-0.058,0.135-0.12,0.268-0.179,0.4
			c-0.069,0.154-0.14,0.307-0.211,0.457c-0.063,0.131-0.13,0.26-0.195,0.389c-0.074,0.146-0.149,0.291-0.227,0.436
			c-0.068,0.129-0.14,0.252-0.21,0.379c-0.079,0.139-0.159,0.279-0.24,0.414c-0.074,0.123-0.149,0.246-0.226,0.367
			c-0.084,0.133-0.168,0.266-0.255,0.396c-0.078,0.119-0.158,0.236-0.238,0.354c-0.088,0.127-0.178,0.254-0.268,0.381
			c-0.083,0.113-0.167,0.229-0.252,0.34c-0.092,0.123-0.185,0.242-0.279,0.363c-0.087,0.111-0.176,0.219-0.265,0.328
			c-0.096,0.117-0.194,0.232-0.292,0.346c-0.09,0.107-0.182,0.211-0.274,0.316c-0.1,0.111-0.201,0.223-0.302,0.33
			c-0.096,0.104-0.189,0.205-0.286,0.303c-0.103,0.107-0.209,0.215-0.313,0.318c-0.097,0.098-0.193,0.193-0.294,0.289
			c-0.106,0.104-0.216,0.203-0.324,0.305c-0.099,0.092-0.198,0.186-0.3,0.275c-0.11,0.098-0.223,0.195-0.336,0.291
			c-0.1,0.088-0.202,0.176-0.305,0.262c-0.114,0.096-0.229,0.188-0.345,0.281c-0.104,0.082-0.207,0.166-0.312,0.248
			c-0.117,0.092-0.236,0.178-0.355,0.268c-0.104,0.078-0.207,0.158-0.314,0.234c-0.121,0.09-0.244,0.174-0.369,0.262
			c-0.104,0.072-0.205,0.146-0.31,0.217c-0.129,0.088-0.259,0.174-0.389,0.258c-0.102,0.066-0.2,0.133-0.302,0.199
			c-0.145,0.09-0.291,0.18-0.436,0.268c-0.087,0.055-0.174,0.109-0.262,0.162c-0.232,0.141-0.465,0.275-0.699,0.406
			c-0.084,0.047-0.17,0.094-0.254,0.139c-0.152,0.084-0.305,0.168-0.457,0.248c-0.104,0.055-0.206,0.107-0.31,0.158
			c-0.135,0.07-0.27,0.141-0.405,0.209c-0.108,0.053-0.217,0.105-0.326,0.158c-0.131,0.063-0.26,0.125-0.39,0.188
			c-0.11,0.051-0.222,0.102-0.332,0.152c-0.128,0.059-0.257,0.117-0.384,0.174c-0.111,0.049-0.223,0.096-0.334,0.143
			c-0.128,0.055-0.256,0.109-0.383,0.164c-0.012,0.004-0.023,0.008-0.036,0.014c-0.122-2.496-0.152-6.641,0.498-11.48
			c0.282,0.021,0.599,0.035,0.942,0.035c3.096,0,8.41-1.146,11.135-8.374c0.271-0.722-0.093-1.527-0.814-1.8
			c-0.725-0.272-1.528,0.092-1.801,0.814c-2.337,6.199-6.875,6.712-9.026,6.574c0.043-0.242,0.088-0.484,0.136-0.729
			c1.198-6.14,3.24-11.484,6.1-16.008c0.666,0.504,1.695,1.043,3.111,1.112c0.101,0.006,0.203,0.009,0.307,0.009
			c2.703,0,5.647-1.752,8.758-5.212c0.515-0.574,0.469-1.457-0.105-1.974c-0.574-0.516-1.458-0.468-1.973,0.105
			c-3.248,3.614-5.493,4.326-6.789,4.284c-0.853-0.027-1.421-0.383-1.724-0.635c2.788-3.749,6.214-6.85,10.27-9.279
			c0.919-0.551,2.073-1.105,3.351-1.618c0.767,1.285,2.299,2.683,4.743,2.683c0.681,0,1.431-0.107,2.253-0.357
			c0.74-0.222,1.158-1.002,0.934-1.741c-0.223-0.738-1.005-1.156-1.742-0.933c-1.851,0.561-2.891-0.017-3.446-0.623
			c2.8-0.872,5.813-1.453,8.181-1.379c0.768,0.027,1.416-0.582,1.44-1.354s-0.581-1.416-1.353-1.44
			c-2.563-0.078-5.67,0.485-8.591,1.354c0.243-0.747,0.853-1.574,2.325-1.872c0.757-0.154,1.246-0.89,1.094-1.647
			c-0.153-0.756-0.891-1.245-1.647-1.092c-3.771,0.763-4.72,3.702-4.718,5.611c-1.637,0.627-3.11,1.324-4.26,2.012
			c-4.195,2.514-7.801,5.768-10.768,9.674c-0.336-1.753-0.123-4.806,3.783-8.017c0.596-0.49,0.682-1.372,0.191-1.967
			c-0.49-0.596-1.371-0.683-1.966-0.192c-7.179,5.901-4.493,11.961-3.961,12.986c-3.077,4.853-5.286,10.551-6.541,16.975
			c-0.003,0.014-0.006,0.029-0.008,0.045c-1.369-1.334-2.806-4.004-0.96-8.869c0.274-0.722-0.09-1.528-0.811-1.803
			c-0.721-0.273-1.527,0.089-1.803,0.811c-2.961,7.806,1.014,11.599,3.053,12.955C8.04,48.508,8.003,52.698,8.107,55.45
			c-3.48-5.48-5.313-11.77-5.313-18.344c0-18.919,15.393-34.312,34.311-34.312c10.257,0,19.476,4.525,25.769,11.683
			c3.692,1.771,6.552,4.661,8.515,8.619c0.18,0.363,0.347,0.731,0.506,1.099C66.638,10.08,53.029,0,37.105,0
			C16.645,0,0,16.646,0,37.105c0,8.051,2.536,15.711,7.335,22.151c7.082,9.504,17.934,14.955,29.771,14.955
			c10.024,0,19.414-3.936,26.447-11.082c0.535-0.492,1.52-1.445,2.365-2.516c-0.19,0.092-0.397,0.143-0.607,0.143
			c-0.171,0-0.343-0.031-0.508-0.096c-0.458-0.178-0.789-0.586-0.871-1.07c-0.026-0.162-0.064-0.438-0.117-0.826
			c-0.552,0.717-1.314,1.539-2.178,2.332c-0.018,0.016-0.035,0.033-0.053,0.051c-6.506,6.623-15.199,10.27-24.479,10.27
			c-10.191,0-19.51-4.398-26.043-12.094c-0.055-0.066-0.177-0.232-0.177-0.232L12.296,58.479z"/>
	</g>
	<g>
		<path fill="none" d="M68.906,24.354c0.108,0.222,0.213,0.443,0.313,0.668C69.118,24.798,69.013,24.576,68.906,24.354z"/>
		<path fill="none" d="M67.318,21.718c-0.729-1-1.569-1.923-2.521-2.706C65.77,19.829,66.607,20.742,67.318,21.718z"/>
		<path fill="none" d="M67.919,22.593c-0.039-0.061-0.081-0.122-0.122-0.183c0.409,0.623,0.772,1.267,1.097,1.922
			C68.601,23.735,68.279,23.151,67.919,22.593z"/>
		<path fill="none" d="M67.394,21.824c0.127,0.175,0.249,0.353,0.367,0.531C67.643,22.176,67.521,21.998,67.394,21.824z"/>
		<path fill="none" d="M63.424,17.988c0.025,0.018,0.047,0.033,0.072,0.05C63.472,18.021,63.45,18.006,63.424,17.988z"/>
		<path fill="none" d="M65.457,50.254c-0.041-0.242-0.076-0.527-0.113-0.832c-0.174-1.439-0.393-3.213-1.473-4.162
			c0.521,0.492,0.949,1.537,1.593,5.363C65.474,50.504,65.476,50.379,65.457,50.254z"/>
		<path fill="#39B54A" d="M60.789,13.62c-2.795-1.245-5.766-1.879-8.832-1.879C55.023,11.741,57.994,12.375,60.789,13.62z"/>
		<path fill="#39B54A" d="M51.957,14.535c-0.785,0-1.568,0.052-2.344,0.15c0.841-0.104,1.688-0.152,2.533-0.146
			C52.082,14.539,52.019,14.535,51.957,14.535z"/>
		<path fill="#39B54A" d="M38.721,19.401c2.405-1.929,4.719-3.007,6.19-3.563C43.44,16.395,41.126,17.472,38.721,19.401z"/>
		<path fill="#39B54A" d="M59.111,43.465c0.424,0.189,0.922,0.287,1.476,0.398c0.384,0.076,0.786,0.154,1.192,0.271
			c-0.406-0.117-0.809-0.195-1.191-0.271C60.033,43.752,59.535,43.655,59.111,43.465z"/>
		<path fill="#39B54A" d="M56.152,15.009c-0.005,0.003-0.01,0.006-0.016,0.01C56.142,15.015,56.147,15.012,56.152,15.009
			C56.152,15.009,56.152,15.009,56.152,15.009z"/>
		<path fill="#39B54A" d="M63.565,45.014c0.07,0.053,0.142,0.104,0.21,0.162c-0.001-0.002-0.003-0.002-0.004-0.004
			C63.703,45.114,63.634,45.065,63.565,45.014z"/>
		<path fill="#39B54A" d="M56,14.972c0.051,0.011,0.102,0.024,0.152,0.037c0.002-0.001,0.004-0.004,0.005-0.004
			C56.105,14.992,56.051,14.983,56,14.972z"/>
		<path fill="#E54E4E" d="M57.144,45.555c-0.856-0.539-1.482-1.244-1.94-2.053C55.662,44.311,56.288,45.016,57.144,45.555
			c0.967,0.664,1.992,0.869,2.898,1.049c0.063,0.012,0.124,0.025,0.184,0.037c-0.06-0.012-0.121-0.025-0.183-0.037
			C59.136,46.424,58.111,46.219,57.144,45.555z"/>
		<path fill="#E54E4E" d="M63.775,45.176c0.033,0.027,0.064,0.057,0.096,0.084C63.839,45.231,63.808,45.204,63.775,45.176
			C63.776,45.176,63.776,45.176,63.775,45.176z"/>
		<path fill="#E54E4E" d="M67.318,21.718c0.025,0.034,0.051,0.07,0.076,0.106C67.369,21.788,67.344,21.752,67.318,21.718z"/>
		<path fill="#E54E4E" d="M68.894,24.332c0.003,0.007,0.007,0.016,0.012,0.022C68.901,24.348,68.897,24.339,68.894,24.332z"/>
		<path fill="#E54E4E" d="M64.796,19.012c-0.408-0.344-0.842-0.669-1.3-0.974c0.364,0.248,0.723,0.511,1.067,0.781
			C64.642,18.881,64.718,18.947,64.796,19.012z"/>
		<path fill="#E54E4E" d="M67.761,22.355c0.012,0.018,0.025,0.036,0.036,0.055C67.787,22.392,67.773,22.373,67.761,22.355z"/>
		<path fill="#E54E4E" d="M63.245,17.873c0.062,0.039,0.121,0.076,0.18,0.115C63.365,17.949,63.306,17.911,63.245,17.873z"/>
		<path fill="#E54E4E" d="M61.81,47.184c0.016,0.012,0.03,0.023,0.046,0.035c0,0-0.001-0.004-0.003-0.006
			C61.84,47.204,61.824,47.196,61.81,47.184z"/>
		<path fill="#E54E4E" d="M71.894,24.194c-0.159-0.367-0.326-0.735-0.506-1.099c-1.963-3.958-4.822-6.848-8.515-8.619
			c-0.669-0.32-1.362-0.609-2.085-0.856c-0.021-0.006-0.041-0.015-0.061-0.021c-0.205-0.069-0.422-0.092-0.636-0.061
			c-1.328,0.18-2.741,0.718-3.939,1.471c-0.006,0.003-0.011,0.006-0.017,0.01c-0.131,0.082-0.259,0.167-0.385,0.255
			c-0.026,0.017-0.051,0.036-0.076,0.054c-0.097,0.07-0.192,0.14-0.286,0.212c-0.038,0.03-0.076,0.06-0.112,0.089
			c-0.083,0.065-0.163,0.132-0.241,0.198c-0.034,0.03-0.068,0.059-0.104,0.089c-0.106,0.096-0.212,0.191-0.313,0.292
			c-1.91,1.75-1.879,3.296-1.842,5.086c0.006,0.276,0.012,0.572,0.012,0.894c0,3.162,0.091,7.334,0.8,11.584
			c0.153,0.848,0.204,1.883,0.258,2.979c0.048,0.966,0.099,2.009,0.236,3.041c0.133,0.992,0.346,1.975,0.715,2.875
			c0.117,0.289,0.253,0.568,0.405,0.838c0.458,0.809,1.084,1.514,1.94,2.053c0.967,0.664,1.992,0.869,2.899,1.049
			c0.062,0.012,0.123,0.025,0.183,0.037c0.031,0.006,0.064,0.014,0.096,0.018c0.037,0.01,0.07,0.016,0.105,0.023
			c0.058,0.012,0.115,0.025,0.17,0.035c0.036,0.01,0.07,0.018,0.104,0.025c0.054,0.012,0.105,0.025,0.156,0.039
			c0.034,0.008,0.066,0.018,0.101,0.027c0.048,0.012,0.095,0.027,0.141,0.039c0.034,0.012,0.066,0.023,0.098,0.033
			c0.044,0.016,0.087,0.031,0.129,0.047c0.031,0.012,0.063,0.025,0.094,0.039c0.039,0.016,0.078,0.033,0.116,0.053
			c0.029,0.016,0.059,0.031,0.088,0.047c0.432,0.238,0.613,0.672,0.709,1.135c0.107,0.516,0.174,1.037,0.238,1.559l1.135,8.178
			c0.041,0.316,0.078,0.592,0.109,0.826c0.053,0.389,0.091,0.664,0.117,0.826c0.082,0.484,0.413,0.893,0.871,1.07
			c0.165,0.064,0.337,0.096,0.508,0.096c0.21,0,0.417-0.051,0.607-0.143c0.087-0.043,0.173-0.09,0.251-0.15
			c5.052-3.934,7.726-16.27,8.008-23.05c0.016-0.395,0.025-0.773,0.025-1.128C74.109,32.043,73.301,27.974,71.894,24.194z
			 M61.81,47.184c0.014,0.012,0.03,0.02,0.043,0.029c0.002,0.002,0.003,0.006,0.003,0.006C61.84,47.208,61.826,47.196,61.81,47.184z
			 M66.434,55.926c-0.007,0.012-0.015,0.025-0.023,0.039c-0.006,0.008-0.013,0.02-0.018,0.027c-0.018,0.012-0.032,0.023-0.055,0.023
			c-0.034,0-0.061-0.021-0.078-0.047c-0.002-0.002-0.002-0.004-0.002-0.006c-0.005-0.025-0.007-0.049-0.011-0.072
			c-0.299-2.178-0.556-3.9-0.784-5.268c-0.644-3.826-1.071-4.871-1.593-5.363c-0.031-0.027-0.063-0.057-0.096-0.084
			c-0.068-0.059-0.14-0.109-0.21-0.162c-0.059-0.047-0.116-0.098-0.177-0.141c-0.084-0.057-0.168-0.105-0.254-0.158
			c-0.046-0.029-0.094-0.061-0.141-0.088c-0.1-0.057-0.201-0.104-0.301-0.15c-0.033-0.016-0.068-0.035-0.103-0.051
			c-0.126-0.055-0.253-0.105-0.381-0.15c-0.008-0.004-0.017-0.008-0.024-0.01c-0.136-0.049-0.271-0.092-0.406-0.131
			c-0.406-0.117-0.809-0.195-1.192-0.271c-0.554-0.111-1.052-0.209-1.476-0.398c-0.14-0.063-0.272-0.135-0.396-0.223
			c-0.021-0.014-0.044-0.029-0.065-0.043c-1.741-1.078-1.877-3.879-2.01-6.588c-0.059-1.188-0.114-2.312-0.298-3.321
			c-0.671-4.026-0.757-8.05-0.757-11.104c0-0.341-0.007-0.656-0.013-0.951c-0.034-1.639-0.043-2.078,0.953-2.984
			c0.017-0.014,0.031-0.029,0.047-0.045c0.115-0.113,0.239-0.226,0.371-0.333c0.043-0.036,0.09-0.069,0.133-0.103
			c0.092-0.072,0.184-0.144,0.282-0.213c0.056-0.039,0.115-0.075,0.173-0.114c0.092-0.059,0.183-0.119,0.277-0.175
			c0.065-0.038,0.132-0.073,0.197-0.11c0.094-0.051,0.188-0.103,0.283-0.15c0.069-0.034,0.141-0.067,0.211-0.1
			c0.096-0.045,0.191-0.088,0.289-0.129c0.072-0.03,0.146-0.059,0.221-0.087c0.097-0.037,0.192-0.071,0.291-0.104
			c0.073-0.024,0.149-0.048,0.224-0.07c0.533-0.16,0.962,0.014,1.482,0.184c0.03,0.01,0.06,0.021,0.091,0.033
			c0.771,0.334,1.486,0.716,2.147,1.139c0.062,0.038,0.12,0.076,0.18,0.115c0.025,0.018,0.048,0.032,0.072,0.05
			c0.458,0.305,0.892,0.63,1.3,0.974c0.952,0.783,1.793,1.706,2.521,2.706c0.026,0.034,0.051,0.07,0.076,0.106
			c0.127,0.174,0.249,0.352,0.367,0.531c0.012,0.018,0.025,0.036,0.036,0.055c0.041,0.061,0.083,0.122,0.122,0.183
			c0.359,0.559,0.682,1.143,0.975,1.739c0.003,0.007,0.007,0.016,0.012,0.022c0.107,0.222,0.212,0.443,0.313,0.668
			c1.329,3.519,2.096,7.308,2.189,11.263C71.405,41.772,69.485,51.079,66.434,55.926z"/>
	</g>
	<path fill="#39B54A" d="M45.479,22.309c-3.751,0-6.805,3.053-6.805,6.805c0,3.754,3.054,6.806,6.805,6.806
		c3.753,0,6.806-3.052,6.806-6.806C52.285,25.361,49.232,22.309,45.479,22.309z M45.479,33.124c-2.211,0-4.011-1.799-4.011-4.011
		c0-2.211,1.8-4.01,4.011-4.01c2.212,0,4.012,1.799,4.012,4.01C49.491,31.325,47.691,33.124,45.479,33.124z"/>
	<path fill="#39B54A" d="M44.576,26.533c0.382,0.604,0.957,1.222,0.261,1.931c-0.744,0.759-1.364,0.114-2.016-0.32
		c-0.481,1.529,0.02,2.825,1.291,3.492c1.217,0.64,2.656,0.341,3.549-0.739c0.89-1.074,0.875-2.622-0.032-3.694
		C46.846,26.276,45.546,25.987,44.576,26.533z"/>
</g>
</svg>
